<svg width="72" height="90" viewBox="0 0 72 90" fill="none" xmlns="http://www.w3.org/2000/svg">
<path d="M71.555 86.9984L65.759 28.285C65.6369 27.0456 64.5939 26.1017 63.3484 26.1017H52.5091V16.5223C52.5091 7.41068 45.0973 0 35.9882 0C26.878 0 19.4671 7.41086 19.4671 16.5223V26.1019H8.6266C7.38128 26.1019 6.33933 27.0457 6.21616 28.2852L0.386825 87.3391C0.319331 88.0203 0.542938 88.6972 1.00197 89.2031C1.46082 89.7116 2.11355 90 2.79708 90H69.1793C69.1865 90 69.1945 90 69.2029 90C70.5408 90 71.625 88.9147 71.625 87.5783C71.6248 87.3771 71.6012 87.1834 71.555 86.9984ZM24.3113 16.5223C24.3113 10.0839 29.5494 4.84432 35.988 4.84432C42.4266 4.84432 47.6648 10.0841 47.6648 16.5223V26.1019H24.3113V16.5223ZM10.8215 30.9462H19.4669V35.8473C19.4669 37.1836 20.5517 38.2692 21.8892 38.2692C23.2269 38.2692 24.3113 37.1836 24.3113 35.8473V30.9462H47.6648V35.8473C47.6648 37.1836 48.7493 38.2692 50.0867 38.2692C51.4244 38.2692 52.5087 37.1836 52.5087 35.8473V30.9462H61.1533L65.561 75.5904H6.41381L10.8215 30.9462ZM5.46979 85.1564L5.9358 80.4349H66.0404L66.5064 85.1564H5.46979Z" fill="#979797"/>
</svg>
