<?xml version="1.0" encoding="UTF-8"?>
<svg version="1.1" xmlns="http://www.w3.org/2000/svg" width="5000" height="5000">
<path d="M0 0 C1531.86 0 3063.72 0 4642 0 C4642 1021.02 4642 2042.04 4642 3094 C3110.14 3094 1578.28 3094 0 3094 C0 2072.98 0 1051.96 0 0 Z " fill="#F0EFEF" transform="translate(179,953)"/>
<path d="M0 0 C1531.86 0 3063.72 0 4642 0 C4642 340.23 4642 680.46 4642 1031 C3110.14 1031 1578.28 1031 0 1031 C0 690.77 0 350.54 0 0 Z " fill="#028543" transform="translate(179,3016)"/>
<path d="M0 0 C1531.86 0 3063.72 0 4642 0 C4642 340.23 4642 680.46 4642 1031 C3110.14 1031 1578.28 1031 0 1031 C0 690.77 0 350.54 0 0 Z " fill="#F26827" transform="translate(179,953)"/>
<path d="M0 0 C0.85577637 0.39622559 1.71155273 0.79245117 2.59326172 1.20068359 C35.13580732 16.44392391 65.55785412 36.87241247 93 60 C93.52239258 60.43747559 94.04478516 60.87495117 94.58300781 61.32568359 C110.29028258 74.500561 126.00334494 88.38555984 139.30859375 104.03125 C141.23867842 106.27781507 143.24418139 108.44583904 145.25 110.625 C150.22683063 116.1426068 154.80175209 121.94468104 159.32739258 127.83300781 C160.61833357 129.50552165 161.91968038 131.17000699 163.2253418 132.83105469 C169.50787479 140.85572057 175.31385546 149.12804663 180.9375 157.625 C181.37231689 158.27985382 181.80713379 158.93470764 182.25512695 159.60940552 C203.76399002 192.0475409 221.68098929 226.88918981 234.47265625 263.66015625 C235.4250788 266.39059529 236.40798389 269.1048412 237.43359375 271.80859375 C265.5003876 346.60239316 268.69957825 432.87953954 221.22192383 613.91943359 C211.99139411 634.08550705 201.32684218 653.5568839 189 672 C188.54173828 672.6894873 188.08347656 673.37897461 187.61132812 674.08935547 C174.6914375 693.4462838 160.56711144 712.17298468 144.6328125 729.15625 C142.66644111 731.2801645 140.77489798 733.42390928 138.89453125 735.62109375 C134.51430111 740.64826844 129.80671189 745.34344517 125.0847168 750.0456543 C123.56508332 751.5599258 122.05087483 753.0794743 120.53710938 754.59960938 C115.19758085 759.94311876 109.7688876 765.11751375 104 770 C102.99030898 770.87694091 101.98115839 771.75450461 100.97265625 772.6328125 C31.33046228 832.27270479 -56.23980535 871.30952434 -153 882 C-153.94246582 882.10151367 -154.88493164 882.20302734 -155.85595703 882.30761719 C-207.64616127 887.72325128 -261.41262089 884.02961603 -311.97167969 871.49755859 C-314.19768687 870.95150628 -316.43014323 870.43846162 -318.6640625 869.92578125 C-332.06022684 866.78830057 -345.02748039 862.56396826 -358 858 C-359.10504883 857.61158936 -359.10504883 857.61158936 -360.23242188 857.21533203 C-364.85984285 855.57090462 -369.43696529 853.81485467 -374 852 C-374.89154785 851.64711914 -375.7830957 851.29423828 -376.70166016 850.93066406 C-389.81679613 845.70375904 -402.43672234 839.98845941 -414.80908203 833.18945312 C-416.92982389 832.03809873 -419.06616044 830.92630746 -421.21484375 829.828125 C-451.03853053 814.540294 -478.72508359 794.94740641 -504 773 C-504.73476562 772.36578125 -505.46953125 771.7315625 -506.2265625 771.078125 C-508.16187143 769.39725908 -510.08134366 767.69984226 -512 766 C-512.69754395 765.38729248 -513.39508789 764.77458496 -514.11376953 764.14331055 C-520.65357344 758.33966258 -526.88300982 752.27142255 -533.05102539 746.0793457 C-534.69239796 744.43258596 -536.33908819 742.79127905 -537.98632812 741.15039062 C-543.53393913 735.60659094 -548.94014079 729.99804322 -554 724 C-554.8767747 722.99016464 -555.75433261 721.98100857 -556.6328125 720.97265625 C-578.29722084 695.67487536 -596.90768121 668.12987893 -613 639 C-613.69609375 637.74775635 -613.69609375 637.74775635 -614.40625 636.47021484 C-647.19863383 577.09224427 -665.85565806 506.93708162 -667 439 C-667.02046387 437.98083496 -667.04092773 436.96166992 -667.06201172 435.91162109 C-668.30796367 364.21274999 -654.89476271 289.70685267 -623 225 C-622.55237305 224.08420166 -622.55237305 224.08420166 -622.09570312 223.14990234 C-620.139491 219.15166118 -618.14429421 215.17472281 -616.12304688 211.20898438 C-615.35430395 209.69690047 -614.59019968 208.18245179 -613.83007812 206.66601562 C-602.99317642 185.07890743 -590.42979185 164.38026213 -576 145 C-575.20964355 143.93579834 -575.20964355 143.93579834 -574.40332031 142.85009766 C-567.26248572 133.27883657 -559.82874706 124.01568613 -552 115 C-551.04867187 113.89785156 -551.04867187 113.89785156 -550.078125 112.7734375 C-548.3972539 110.83812262 -546.70012009 108.91842169 -545 107 C-544.37931641 106.29520508 -543.75863281 105.59041016 -543.11914062 104.86425781 C-537.49509187 98.53786059 -531.65524723 92.46899798 -525.67138672 86.48608398 C-524.1282647 84.94076934 -522.59335694 83.38759554 -521.05859375 81.83398438 C-515.42450049 76.16879367 -509.67607915 70.8998581 -503.40722656 65.93359375 C-501.06596283 64.05298434 -498.83929928 62.09010293 -496.625 60.0625 C-491.01250178 55.03401835 -485.03795906 50.49859761 -479 46 C-478.32791504 45.49807129 -477.65583008 44.99614258 -476.96337891 44.47900391 C-458.52549875 30.77203458 -439.12078399 19.06190357 -419 8 C-418.17064941 7.54399414 -417.34129883 7.08798828 -416.48681641 6.61816406 C-402.1722265 -1.20906901 -402.1722265 -1.20906901 -394.47436523 -4.04125977 C-391.89943319 -5.03896654 -389.41724258 -6.16249005 -386.9140625 -7.328125 C-365.31504171 -17.21040683 -343.00792065 -24.29322559 -320 -30 C-318.4855127 -30.38140137 -318.4855127 -30.38140137 -316.94042969 -30.77050781 C-233.32734148 -51.68042215 -144.04236327 -48.70635802 0 0 Z " fill="#EEEEEF" transform="translate(2702,2080)"/>
<path d="M0 0 C0.85577637 0.39622559 1.71155273 0.79245117 2.59326172 1.20068359 C35.13580732 16.44392391 65.55785412 36.87241247 93 60 C93.52239258 60.43747559 94.04478516 60.87495117 94.58300781 61.32568359 C110.29028258 74.500561 126.00334494 88.38555984 139.30859375 104.03125 C141.23867842 106.27781507 143.24418139 108.44583904 145.25 110.625 C150.22683063 116.1426068 154.80175209 121.94468104 159.32739258 127.83300781 C160.61833357 129.50552165 161.91968038 131.17000699 163.2253418 132.83105469 C169.50787479 140.85572057 175.31385546 149.12804663 180.9375 157.625 C181.37231689 158.27985382 181.80713379 158.93470764 182.25512695 159.60940552 C203.76399002 192.0475409 221.68098929 226.88918981 234.47265625 263.66015625 C235.4250788 266.39059529 236.40798389 269.1048412 237.43359375 271.80859375 C265.5003876 346.60239316 268.69957825 432.87953954 221.22192383 613.91943359 C211.99139411 634.08550705 201.32684218 653.5568839 189 672 C188.54173828 672.6894873 188.08347656 673.37897461 187.61132812 674.08935547 C174.6914375 693.4462838 160.56711144 712.17298468 144.6328125 729.15625 C142.66644111 731.2801645 140.77489798 733.42390928 138.89453125 735.62109375 C134.51430111 740.64826844 129.80671189 745.34344517 125.0847168 750.0456543 C123.56508332 751.5599258 122.05087483 753.0794743 120.53710938 754.59960938 C115.19758085 759.94311876 109.7688876 765.11751375 104 770 C102.99030898 770.87694091 101.98115839 771.75450461 100.97265625 772.6328125 C31.33046228 832.27270479 -56.23980535 871.30952434 -153 882 C-153.94246582 882.10151367 -154.88493164 882.20302734 -155.85595703 882.30761719 C-207.64616127 887.72325128 -261.41262089 884.02961603 -311.97167969 871.49755859 C-314.19768687 870.95150628 -316.43014323 870.43846162 -318.6640625 869.92578125 C-332.06022684 866.78830057 -345.02748039 862.56396826 -358 858 C-359.10504883 857.61158936 -359.10504883 857.61158936 -360.23242188 857.21533203 C-364.85984285 855.57090462 -369.43696529 853.81485467 -374 852 C-374.89154785 851.64711914 -375.7830957 851.29423828 -376.70166016 850.93066406 C-389.81679613 845.70375904 -402.43672234 839.98845941 -414.80908203 833.18945312 C-416.92982389 832.03809873 -419.06616044 830.92630746 -421.21484375 829.828125 C-451.03853053 814.540294 -478.72508359 794.94740641 -504 773 C-504.73476562 772.36578125 -505.46953125 771.7315625 -506.2265625 771.078125 C-508.16187143 769.39725908 -510.08134366 767.69984226 -512 766 C-512.69754395 765.38729248 -513.39508789 764.77458496 -514.11376953 764.14331055 C-520.65357344 758.33966258 -526.88300982 752.27142255 -533.05102539 746.0793457 C-534.69239796 744.43258596 -536.33908819 742.79127905 -537.98632812 741.15039062 C-543.53393913 735.60659094 -548.94014079 729.99804322 -554 724 C-554.8767747 722.99016464 -555.75433261 721.98100857 -556.6328125 720.97265625 C-578.29722084 695.67487536 -596.90768121 668.12987893 -613 639 C-613.69609375 637.74775635 -613.69609375 637.74775635 -614.40625 636.47021484 C-647.19863383 577.09224427 -665.85565806 506.93708162 -667 439 C-667.02046387 437.98083496 -667.04092773 436.96166992 -667.06201172 435.91162109 C-668.30796367 364.21274999 -654.89476271 289.70685267 -623 225 C-622.55237305 224.08420166 -622.55237305 224.08420166 -622.09570312 223.14990234 C-620.139491 219.15166118 -618.14429421 215.17472281 -616.12304688 211.20898438 C-615.35430395 209.69690047 -614.59019968 208.18245179 -613.83007812 206.66601562 C-602.99317642 185.07890743 -590.42979185 164.38026213 -576 145 C-575.20964355 143.93579834 -575.20964355 143.93579834 -574.40332031 142.85009766 C-567.26248572 133.27883657 -559.82874706 124.01568613 -552 115 C-551.04867187 113.89785156 -551.04867187 113.89785156 -550.078125 112.7734375 C-548.3972539 110.83812262 -546.70012009 108.91842169 -545 107 C-544.37931641 106.29520508 -543.75863281 105.59041016 -543.11914062 104.86425781 C-537.49509187 98.53786059 -531.65524723 92.46899798 -525.67138672 86.48608398 C-524.1282647 84.94076934 -522.59335694 83.38759554 -521.05859375 81.83398438 C-515.42450049 76.16879367 -509.67607915 70.8998581 -503.40722656 65.93359375 C-501.06596283 64.05298434 -498.83929928 62.09010293 -496.625 60.0625 C-491.01250178 55.03401835 -485.03795906 50.49859761 -479 46 C-478.32791504 45.49807129 -477.65583008 44.99614258 -476.96337891 44.47900391 C-458.52549875 30.77203458 -439.12078399 19.06190357 -419 8 C-418.17064941 7.54399414 -417.34129883 7.08798828 -416.48681641 6.61816406 C-402.1722265 -1.20906901 -402.1722265 -1.20906901 -394.47436523 -4.04125977 C-391.89943319 -5.03896654 -389.41724258 -6.16249005 -386.9140625 -7.328125 C-365.31504171 -17.21040683 -343.00792065 -24.29322559 -320 -30 C-318.4855127 -30.38140137 -318.4855127 -30.38140137 -316.94042969 -30.77050781 C-233.32734148 -51.68042215 -144.04236327 -48.70635802 0 0 Z M-234 15 C-234.4997627 16.98578277 -234.9934051 18.97212406 -235.46484375 20.96484375 C-237.3721865 28.92524116 -237.3721865 28.92524116 -239 32 C-245.68150878 35.82628702 -253.39255193 38.38840845 -261.03515625 36.49609375 C-265.76301128 34.94959911 -268.8887906 33.00012638 -272 29 C-273.21656368 26.36084169 -274.10584079 23.77659966 -275 21 C-283.32622054 21.4761129 -291.11877673 22.99663056 -299.1875 25.0625 C-300.39116211 25.36615479 -301.59482422 25.66980957 -302.83496094 25.98266602 C-314.75593105 29.0645166 -326.39888009 32.88872028 -338 37 C-337.96519531 37.94101563 -337.93039062 38.88203125 -337.89453125 39.8515625 C-337.86746094 41.09679688 -337.84039063 42.34203125 -337.8125 43.625 C-337.77769531 44.85476562 -337.74289062 46.08453125 -337.70703125 47.3515625 C-338.14980856 52.86561599 -339.9117459 55.95906129 -343.875 59.75 C-350.32785714 64.39605714 -356.21557086 64.80772287 -364 64 C-368.61946878 62.68654846 -371.78170309 60.73306005 -374.5 56.75 C-374.995 55.8425 -375.49 54.935 -376 54 C-381.7107085 54.93841787 -386.23135972 57.45298066 -391.3125 60.125 C-392.31128174 60.64763428 -393.31006348 61.17026855 -394.33911133 61.70874023 C-407.26336987 68.58873811 -420.36378664 76.07081658 -432 85 C-431.690625 85.639375 -431.38125 86.27875 -431.0625 86.9375 C-428.68210675 93.79863349 -428.48413923 99.79013811 -430.8671875 106.703125 C-433.51834248 112.07857028 -437.91770035 114.80037566 -443.375 116.9375 C-448.07581986 118.28287945 -452.28674467 118.33142806 -457 117 C-460.375 115.0625 -460.375 115.0625 -463 113 C-463.99 112.34 -464.98 111.68 -466 111 C-466.94359375 111.88300781 -467.8871875 112.76601562 -468.859375 113.67578125 C-470.15619967 114.88807468 -471.45307865 116.10031001 -472.75 117.3125 C-473.42869141 117.94752441 -474.10738281 118.58254883 -474.80664062 119.23681641 C-478.50722311 122.69375698 -482.22970817 126.12201235 -485.99145508 129.51220703 C-490.31276094 133.4159988 -494.38932852 137.34807428 -498.1328125 141.80859375 C-500.66013532 144.77476133 -503.29820725 147.63353611 -505.9375 150.5 C-506.43515869 151.04132568 -506.93281738 151.58265137 -507.44555664 152.14038086 C-508.62957873 153.42764984 -509.81467378 154.71393177 -511 156 C-510.65066406 156.47050781 -510.30132813 156.94101563 -509.94140625 157.42578125 C-509.48636719 158.04839844 -509.03132813 158.67101563 -508.5625 159.3125 C-508.11003906 159.92738281 -507.65757812 160.54226562 -507.19140625 161.17578125 C-503.78101204 166.39759796 -504.37219568 173.03233196 -505 179 C-506.94465878 184.14810084 -510.3202958 188.10304026 -515 191 C-521.55845499 193.70054029 -528.20707299 193.41574434 -534.8046875 190.953125 C-535.52914062 190.63859375 -536.25359375 190.3240625 -537 190 C-549.10226874 207.56272839 -559.26280341 226.04078734 -569 245 C-568.22011719 245.60972656 -567.44023437 246.21945312 -566.63671875 246.84765625 C-561.5963011 250.96213051 -558.48316871 255.31265987 -557.62890625 261.83203125 C-557.47237957 268.85731716 -558.12433766 273.73072951 -563 279 C-568.32493354 283.15344816 -572.02448564 284.12847044 -578.6875 284.0625 C-579.86699219 284.05347656 -581.04648438 284.04445313 -582.26171875 284.03515625 C-583.16535156 284.02355469 -584.06898438 284.01195313 -585 284 C-589.53511191 296.79708037 -593.61535543 309.64379747 -596.9375 322.8125 C-597.23148682 323.96073242 -597.52547363 325.10896484 -597.82836914 326.29199219 C-599.52428531 333.19223541 -600.59426279 339.90450329 -601 347 C-599.783125 347.391875 -598.56625 347.78375 -597.3125 348.1875 C-592.59119375 349.98927058 -589.43146874 352.2582756 -587.03125 356.85546875 C-583.73654482 364.74140661 -584.88832756 371.27791382 -588 379 C-589.65104574 382.83424673 -589.65104574 382.83424673 -592.5 384.1875 C-593.7375 384.5896875 -593.7375 384.5896875 -595 385 C-595.66 385.33 -596.32 385.66 -597 386 C-599.33077343 386.30791869 -601.66241896 386.50895274 -604.00390625 386.71875 C-605.99583131 386.79532012 -605.99583131 386.79532012 -607 388 C-608.04229404 394.34743293 -608.14602865 400.5783987 -608.1328125 407 C-608.13376923 408.03511719 -608.13472595 409.07023437 -608.13571167 410.13671875 C-608.13638913 412.31510479 -608.13456525 414.49349289 -608.13037109 416.671875 C-608.12501674 419.98962984 -608.1303309 423.30724932 -608.13671875 426.625 C-608.13605789 428.7500003 -608.13477657 430.87500051 -608.1328125 433 C-608.13483673 433.98355469 -608.13686096 434.96710937 -608.13894653 435.98046875 C-608.12062245 441.41329719 -607.79790202 446.62466006 -607 452 C-605.78763672 452.29003906 -605.78763672 452.29003906 -604.55078125 452.5859375 C-602.94783203 452.97652344 -602.94783203 452.97652344 -601.3125 453.375 C-600.25675781 453.63023437 -599.20101562 453.88546875 -598.11328125 454.1484375 C-590.49534194 456.23213985 -590.49534194 456.23213985 -588.79296875 458.87109375 C-588.53128906 459.57363281 -588.26960938 460.27617187 -588 461 C-587.70738281 461.65097656 -587.41476563 462.30195313 -587.11328125 462.97265625 C-584.49455191 469.80690112 -584.41412607 476.1252398 -586.6875 483.11328125 C-589.13031372 488.20611163 -592.98140048 490.08324536 -598 492 C-598.99 492.33 -599.98 492.66 -601 493 C-600.4009258 506.86856783 -596.33152085 520.12047991 -592.5 533.375 C-592.21560059 534.36072998 -591.93120117 535.34645996 -591.63818359 536.36206055 C-589.68153019 543.00966506 -587.44113448 549.51514211 -585 556 C-584.05898437 555.96519531 -583.11796875 555.93039062 -582.1484375 555.89453125 C-580.90320312 555.86746094 -579.65796875 555.84039063 -578.375 555.8125 C-577.14523438 555.77769531 -575.91546875 555.74289062 -574.6484375 555.70703125 C-569.87773795 556.0901174 -566.68738117 557.47534322 -563.13671875 560.68359375 C-562.65847656 561.26238281 -562.18023438 561.84117187 -561.6875 562.4375 C-561.19636719 563.01371094 -560.70523438 563.58992188 -560.19921875 564.18359375 C-556.81041639 569.31647029 -557.58059542 576.11250925 -558 582 C-559.75836172 587.58538428 -563.49930712 590.52275235 -568 594 C-567.42013932 597.50419126 -566.52377614 600.30409559 -564.8828125 603.44921875 C-564.44622314 604.288479 -564.00963379 605.12773926 -563.55981445 605.99243164 C-562.8495813 607.32649048 -562.8495813 607.32649048 -562.125 608.6875 C-561.39059692 610.07666626 -561.39059692 610.07666626 -560.64135742 611.49389648 C-553.52570478 624.80092863 -545.51897836 637.55106314 -537 650 C-536.39414063 649.77183594 -535.78828125 649.54367187 -535.1640625 649.30859375 C-528.84253224 647.1398226 -523.54766961 646.33476223 -517 648 C-511.43037372 650.88795437 -508.42034689 654.86947966 -505 660 C-504.13994839 667.96047771 -504.09786111 674.511875 -509 681 C-509.66 681.99 -510.32 682.98 -511 684 C-502.69866708 693.03573204 -494.22860865 701.89621385 -485.57888794 710.59835815 C-484.57736359 711.60665487 -483.57755118 712.61665525 -482.57955933 713.62844849 C-477.05002096 719.2284165 -471.51797059 724.54556629 -465 729 C-464.154375 728.21625 -463.30875 727.4325 -462.4375 726.625 C-457.91377651 722.90455451 -453.37980457 721.73265283 -447.5625 722.0625 C-441.30681085 722.96989518 -436.8037403 726.05751044 -432.5625 730.625 C-429.97414328 734.55930221 -429.83910658 737.69891848 -429.8125 742.3125 C-429.79832031 743.42238281 -429.78414062 744.53226563 -429.76953125 745.67578125 C-430.00666843 749.0961836 -430.77891499 751.80973443 -432 755 C-420.39366797 763.05846709 -408.34900275 770.14432587 -396 777 C-394.74630615 777.70479492 -394.74630615 777.70479492 -393.46728516 778.42382812 C-391.13145431 779.73409271 -388.78673371 781.02645501 -386.4375 782.3125 C-385.39360107 782.89946655 -385.39360107 782.89946655 -384.32861328 783.49829102 C-380.80232172 785.49204414 -380.80232172 785.49204414 -376.87524414 785.73510742 C-374.75409577 785.12489234 -374.75409577 785.12489234 -373.625 782.6875 C-371.56603078 779.28228167 -369.74778453 777.28593708 -366 776 C-358.92267722 775.15072127 -351.87345727 774.95009873 -345.6171875 778.72265625 C-342.01164181 781.5705148 -339.47282703 784.58151892 -338 789 C-337.93029948 791.39490986 -337.91551997 793.79167691 -337.9375 796.1875 C-337.95103516 798.09595703 -337.95103516 798.09595703 -337.96484375 800.04296875 C-337.98224609 801.50669922 -337.98224609 801.50669922 -338 803 C-307.24308862 814.62414767 -307.24308862 814.62414767 -275 819 C-274.7525 818.13375 -274.505 817.2675 -274.25 816.375 C-272.41046808 811.40826381 -270.60501393 807.96969592 -266 805.1875 C-258.73160907 802.31042859 -252.46713098 802.35710879 -245.08203125 805.01171875 C-240.87168569 807.01025051 -238.52560583 810.21159125 -236 814 C-235.58578198 815.69477439 -235.23569173 817.40601236 -234.9375 819.125 C-234.58395374 822.36108392 -234.58395374 822.36108392 -233 825 C-226.80539964 826.00837166 -220.73866224 826.14635392 -214.47265625 826.1328125 C-213.48430283 826.13376923 -212.4959494 826.13472595 -211.47764587 826.13571167 C-209.39761287 826.13638895 -207.31757771 826.13456633 -205.23754883 826.13037109 C-202.07563466 826.12502222 -198.91386289 826.13032857 -195.75195312 826.13671875 C-193.72135386 826.13605778 -191.69075468 826.13477622 -189.66015625 826.1328125 C-188.72551041 826.13483673 -187.79086456 826.13686096 -186.82789612 826.13894653 C-181.14201255 826.1189088 -175.64078586 825.72346321 -170 825 C-169.84144531 824.11957031 -169.68289063 823.23914062 -169.51953125 822.33203125 C-167.87738537 814.15759235 -166.43450043 810.1041503 -159.5 805.25 C-154.12305204 802.56152602 -148.27424543 802.07027599 -142.46875 803.71875 C-137.40938455 805.56393034 -133.72204587 807.12300116 -131 812 C-130.16565815 814.32839587 -129.5685258 816.58376535 -129 819 C-121.55410308 818.46932105 -114.49379087 817.14996862 -107.25 815.375 C-105.63593262 814.98393066 -105.63593262 814.98393066 -103.98925781 814.58496094 C-91.51645989 811.48960206 -78.86444433 808.00071621 -67 803 C-66.96132812 801.48019531 -66.96132812 801.48019531 -66.921875 799.9296875 C-66.86555819 798.57808403 -66.80821167 797.22652319 -66.75 795.875 C-66.72873047 794.87726563 -66.72873047 794.87726563 -66.70703125 793.859375 C-66.40037081 787.603502 -64.08740806 783.92683821 -59.5625 779.75 C-53.333427 775.49599893 -47.36151664 775.31265948 -40 776 C-36.375 777.5 -36.375 777.5 -34 779 C-33.34 779 -32.68 779 -32 779 C-31.71125 779.598125 -31.4225 780.19625 -31.125 780.8125 C-29.95257974 783.19327792 -29.95257974 783.19327792 -28 786 C-24.03215135 785.3947121 -21.02232539 784.15357561 -17.4921875 782.26171875 C-16.43161133 781.69437012 -15.37103516 781.12702148 -14.27832031 780.54248047 C-13.15522461 779.93033691 -12.03212891 779.31819336 -10.875 778.6875 C-9.7209668 778.06246582 -8.56693359 777.43743164 -7.37792969 776.79345703 C4.81374747 770.14414215 16.46803712 762.72423929 28 755 C27.77183594 754.40574219 27.54367187 753.81148437 27.30859375 753.19921875 C25.00280106 746.5506775 24.41266601 740.90381566 26 734 C28.39394339 729.12344865 31.16862777 726.45960768 36 724 C43.26763809 721.70911408 49.15393195 721.47211628 56 725 C58.01619473 726.30871562 60.01933217 727.63811427 62 729 C71.23054632 720.4689066 80.32158847 711.79925371 89.23748779 702.9397583 C90.65856334 701.52873203 92.0843624 700.12246799 93.51025391 698.71630859 C98.47326194 693.76051031 103.02065119 688.7844248 107 683 C106.21625 682.154375 105.4325 681.30875 104.625 680.4375 C100.87699738 675.88026954 99.72742682 671.35426513 100.125 665.5 C101.02327955 659.42886927 103.43910339 655.56089661 107.8125 651.1875 C113.43577732 647.32838811 118.10158315 646.69340854 124.69140625 647.515625 C127.54949366 648.11529139 130.24600003 649.03590245 133 650 C141.0793026 637.5641077 148.89651995 625.08168261 155.90820312 612.01025391 C156.98027155 610.03632469 158.08523484 608.08499859 159.203125 606.13671875 C159.54029541 605.53996338 159.87746582 604.94320801 160.22485352 604.32836914 C161.11705757 602.7496454 162.01717884 601.17540311 162.91796875 599.6015625 C164.18277806 597.11779189 164.18277806 597.11779189 163.8203125 594.73046875 C163.0877521 592.75709479 163.0877521 592.75709479 160.6875 591.6875 C157.01760996 589.38315044 155.24545429 587.07902755 154 583 C153.10667559 576.13590904 152.43539108 569.17795249 156.625 563.3125 C160.30517282 559.07738049 164.28256687 556.27062583 169.8671875 555.390625 C171.20234394 555.32517615 172.53854403 555.27849034 173.875 555.25 C174.90753906 555.20552734 174.90753906 555.20552734 175.9609375 555.16015625 C177.64001626 555.09019464 179.32000812 555.04274789 181 555 C183.78119308 548.41023936 186.05018956 541.85084764 187.875 534.9375 C188.2474585 533.54640015 188.2474585 533.54640015 188.62744141 532.12719727 C190.62566047 524.58470332 192.52342521 517.01721115 194.375 509.4375 C194.63780762 508.37329834 194.90061523 507.30909668 195.17138672 506.21264648 C195.41131348 505.21305908 195.65124023 504.21347168 195.8984375 503.18359375 C196.11161621 502.30243896 196.32479492 501.42128418 196.54443359 500.51342773 C197.00849976 497.95310558 197.08213615 495.59602665 197 493 C196.32453125 492.76925781 195.6490625 492.53851562 194.953125 492.30078125 C185.83924843 488.96868476 185.83924843 488.96868476 183 484 C180.30887508 478.07952519 180.2785791 472.06603882 181.75 465.8125 C183.72002202 461.37995046 185.52441281 457.98372479 189.625 455.25 C194.01003345 453.62591354 198.40477005 452.79645759 203 452 C203.79352602 445.22737133 204.14850181 438.56649605 204.1328125 431.75 C204.13376923 430.81124023 204.13472595 429.87248047 204.13571167 428.90527344 C204.13638719 426.93554619 204.13457714 424.96581663 204.13037109 422.99609375 C204.12501391 420.00776088 204.13033763 417.01957828 204.13671875 414.03125 C204.13605786 412.10416634 204.13477646 410.17708277 204.1328125 408.25 C204.13483673 407.37053711 204.13686096 406.49107422 204.13894653 405.58496094 C204.79433865 395.66902683 204.79433865 395.66902683 202 387 C200.43962479 386.86776481 198.87632969 386.76931471 197.3125 386.6875 C192.51850636 386.22930089 189.65889965 385.31043302 186 382 C181.25822872 375.44385321 180.1658899 368.92404593 181 361 C182.59039789 355.47193021 185.44259846 351.9859497 190.25 348.8984375 C192.46281823 347.76239243 194.52685068 347.22483176 197 347 C196.51953505 338.3220836 194.51240851 330.07544817 192.375 321.6875 C192.11154785 320.63925049 192.11154785 320.63925049 191.84277344 319.56982422 C188.80460233 307.50811949 185.21837643 295.70599459 181 284 C180.05898437 284.03480469 179.11796875 284.06960938 178.1484375 284.10546875 C176.90320312 284.13253906 175.65796875 284.15960937 174.375 284.1875 C173.14523437 284.22230469 171.91546875 284.25710938 170.6484375 284.29296875 C165.13438401 283.85019144 162.04093871 282.0882541 158.25 278.125 C153.23243326 271.1561573 153.21158564 264.38675779 154 256 C156.2638151 250.94995093 159.37498384 248.73296409 164 246 C163.3947121 242.03215135 162.15357561 239.02232539 160.26171875 235.4921875 C159.69437012 234.43161133 159.12702148 233.37103516 158.54248047 232.27832031 C157.93033691 231.15522461 157.31819336 230.03212891 156.6875 228.875 C156.06246582 227.7209668 155.43743164 226.56693359 154.79345703 225.37792969 C148.14414215 213.18625253 140.72423929 201.53196288 133 190 C132.31035156 190.22816406 131.62070313 190.45632812 130.91015625 190.69140625 C123.180482 193.05590194 117.10800387 194.13300201 109.75 190.3125 C104.13497916 185.59077793 100.77214696 181.32160775 100 174 C99.88757294 166.65008091 103.00461377 161.99307934 107 156 C98.3761127 146.62387331 89.56146661 137.45319543 80.5625 128.4375 C79.64001465 127.51050293 78.7175293 126.58350586 77.76708984 125.62841797 C72.67454796 120.54692482 67.49716086 115.64245796 62 111 C60.6078125 112.175625 60.6078125 112.175625 59.1875 113.375 C53.93601125 117.08817386 47.93380621 118.54948404 41.5390625 117.65625 C35.4376532 115.90704051 30.26329379 112.62907452 26.8671875 107.18359375 C23.5334766 99.75031944 25.40011119 92.38240033 28 85 C13.55715391 75.49194363 -1.1041392 66.54757588 -16.3125 58.3125 C-17.11929199 57.86575928 -17.92608398 57.41901855 -18.75732422 56.95874023 C-19.51416504 56.55598877 -20.27100586 56.1532373 -21.05078125 55.73828125 C-21.71762939 55.37774658 -22.38447754 55.01721191 -23.0715332 54.64575195 C-25.46119063 53.84556916 -26.66890527 54.10967697 -29 55 C-30.62985439 56.66320179 -31.94444496 58.4467664 -33.33984375 60.30859375 C-36.85932913 63.89432827 -40.96824423 64.31151041 -45.8125 64.375 C-52.20440899 64.24936051 -56.93532073 63.00338568 -61.5625 58.46875 C-65.67582312 53.70103457 -66.11896149 51.08576376 -66.0625 44.875 C-66.05347656 43.59367187 -66.04445313 42.31234375 -66.03515625 40.9921875 C-66.01775391 39.51105469 -66.01775391 39.51105469 -66 38 C-71.64615463 35.00289737 -77.11583993 32.82995949 -83.25 31.0625 C-84.10827393 30.81016602 -84.96654785 30.55783203 -85.85083008 30.29785156 C-95.16415659 27.59745275 -104.56146444 25.22000012 -114 23 C-114.81025635 22.80873535 -115.6205127 22.6174707 -116.45532227 22.42041016 C-117.24865967 22.23784668 -118.04199707 22.0552832 -118.859375 21.8671875 C-119.56932617 21.70331543 -120.27927734 21.53944336 -121.01074219 21.37060547 C-123.6930678 20.87087912 -126.28188187 20.86060933 -129 21 C-129.24234375 21.60328125 -129.4846875 22.2065625 -129.734375 22.828125 C-132.33743293 29.03541698 -134.40822258 33.05995669 -140.8125 35.75 C-147.94342672 38.14451783 -154.28471534 37.13043345 -161 34 C-166.67717826 29.68040785 -168.35928848 24.26180408 -169.6875 17.5 C-169.790625 16.675 -169.89375 15.85 -170 15 C-176.66507642 14.14210622 -183.16286945 13.85297471 -189.87890625 13.8671875 C-191.39616554 13.86575241 -191.39616554 13.86575241 -192.94407654 13.86428833 C-195.06940778 13.86361171 -197.19474116 13.86542961 -199.32006836 13.86962891 C-202.55652541 13.8749901 -205.79284405 13.86966333 -209.02929688 13.86328125 C-211.10416697 13.86394201 -213.17903698 13.86522314 -215.25390625 13.8671875 C-216.69172203 13.86415115 -216.69172203 13.86415115 -218.15858459 13.86105347 C-223.5311161 13.87963645 -228.68380148 14.2146392 -234 15 Z " fill="#0437A0" transform="translate(2702,2080)"/>
<path d="M0 0 C2.76029057 2.76029057 2.45861153 5.40169219 2.65138245 9.1133728 C2.69730481 9.85486655 2.74322717 10.59636029 2.79054111 11.36032355 C2.94295197 13.85874476 3.08188733 16.3577363 3.22094727 18.85693359 C3.32719659 20.64433461 3.43426167 22.4316873 3.54208374 24.21899414 C3.83362888 29.09202732 4.11344026 33.96567236 4.39107633 38.83951521 C4.68455611 43.9597584 4.98815668 49.07940187 5.29051208 54.1991272 C5.79850901 62.82591618 6.2994304 71.45309259 6.7956543 80.08056641 C7.42781441 91.07083491 8.07141009 102.06040086 8.71882725 113.04977989 C9.27930439 122.56521669 9.83426217 132.08097445 10.38844943 141.59677935 C10.56451273 144.61596689 10.74132052 147.63511012 10.91824532 150.65424728 C14.14094198 205.74410431 12.2747895 257.22480381 5 312 C5.60328125 311.98839844 6.2065625 311.97679688 6.828125 311.96484375 C8.02695313 311.95130859 8.02695313 311.95130859 9.25 311.9375 C10.03890625 311.92589844 10.8278125 311.91429688 11.640625 311.90234375 C13.90691002 311.99614694 15.8288895 312.36758937 18 313 C18.11822113 312.08062904 18.11822113 312.08062904 18.23883057 311.14268494 C19.07679334 304.63411908 19.92199429 298.12651962 20.77099609 291.61938477 C21.08494488 289.20620348 21.39718149 286.79279868 21.70751953 284.37915039 C25.21522823 257.11778328 29.3921954 230.51778919 37.95002747 204.35346985 C39.66276521 199.08039615 41.30551172 193.78844714 42.92908192 188.4873476 C48.37491894 170.7317864 54.19787194 153.1089467 60.07920289 135.49374032 C61.47379602 131.31513683 62.86538505 127.13553271 64.25749207 122.95610046 C66.58577374 115.96765617 68.91653151 108.98004152 71.2487793 101.99291992 C73.93538063 93.94407248 76.61759227 85.89377189 79.29762346 77.84273463 C81.61919924 70.86891273 83.94312587 63.89587745 86.26899832 56.92348737 C87.64962766 52.78469698 89.02947362 48.64565021 90.40717506 44.50588417 C91.69730909 40.62967464 92.99040926 36.75446683 94.28573608 32.87998962 C94.75758282 31.46707445 95.22843052 30.05382516 95.69815636 28.64020348 C98.23874536 20.99663225 100.88681469 13.43282781 104 6 C105.74518486 9.49036973 103.88093152 13.40653879 102.99047852 17.06518555 C100.7790855 26.47016984 98.72840459 35.90032514 96.77709961 45.36254883 C96.56405502 46.39370868 96.56405502 46.39370868 96.34670651 47.44570005 C95.43811405 51.84426559 94.53282379 56.24350543 93.62840724 60.64293122 C92.81235083 64.60970497 91.99350433 68.57590278 91.17494202 72.54216003 C89.4431974 80.93518555 87.71415543 89.32876607 85.98571777 97.72247314 C84.43799055 105.23849249 82.88917843 112.75428813 81.33999407 120.27000725 C80.83068332 122.74120418 80.32159209 125.21244626 79.81251812 127.68369198 C78.13176529 135.84048826 76.44605437 143.99621708 74.75093079 152.15003967 C74.08732871 155.34418885 73.424072 158.5384096 72.76098633 161.73266602 C72.59917204 162.51173565 72.43735776 163.29080528 72.27064002 164.09348309 C70.31937074 173.4965087 68.41545337 182.9068159 66.5821209 192.33354568 C61.20417833 219.96691635 55.05487055 245.98786014 43.8347168 271.85321045 C42.27995803 275.46501026 40.77959685 279.09934515 39.27539062 282.73242188 C37.58421151 286.81652091 35.89121884 290.89891092 34.14866638 294.96141052 C31.33150144 301.57003292 28.90847562 308.07180393 27 315 C30.3 316.32 33.6 317.64 37 319 C39.84745191 314.61457251 41.7734848 310.0039249 43.75 305.1875 C44.45729319 303.48264102 45.16564463 301.77822073 45.875 300.07421875 C46.22949219 299.22263184 46.58398438 298.37104492 46.94921875 297.49365234 C48.5022852 293.80800626 50.12566433 290.15464435 51.75 286.5 C53.65005074 282.21770253 55.42550669 277.93694106 56.9375 273.5 C59.31712693 266.74427949 62.61441797 260.46160523 65.90576172 254.11474609 C66.98109865 252.03652912 68.03996868 249.95052378 69.09765625 247.86328125 C74.7545579 236.81916293 81.25313863 226.4044645 88 216 C88.81125957 214.74339029 89.6222749 213.48662289 90.43310547 212.22973633 C97.02720203 202.0137048 103.68548144 191.84124075 110.375 181.6875 C111.44283151 180.06570135 112.51062005 178.4438744 113.57836914 176.82202148 C116.44302804 172.47124728 119.30865828 168.12111364 122.17449951 163.77111816 C124.05687021 160.91367076 125.93888149 158.05598691 127.82080078 155.19824219 C131.06121505 150.2776404 134.30215781 145.35738713 137.54351807 140.43740845 C138.78870187 138.54732207 140.03378143 136.65716702 141.27874756 134.76693726 C146.85601298 126.29961021 152.43368777 117.83291883 158.06640625 109.40234375 C163.92535914 100.63302026 169.71026658 91.81511 175.5 83 C182.96098608 71.64033829 190.44366237 60.29651368 198 49 C198.33 49.66 198.66 50.32 199 51 C197.97270203 53.54234314 197.97270203 53.54234314 196.3347168 56.80053711 C196.03881149 57.39453812 195.74290619 57.98853912 195.43803406 58.60054016 C194.44942512 60.58008335 193.44944228 62.55364694 192.44921875 64.52734375 C191.75365495 65.91354171 191.05874442 67.30006764 190.36445618 68.68690491 C188.8987308 71.61068826 187.42786844 74.53180624 185.95288086 77.45092773 C184.09198205 81.13380865 182.23924046 84.82070439 180.38997173 88.50943661 C178.59996281 92.07928483 176.80613188 95.64720777 175.01171875 99.21484375 C174.68251623 99.86985304 174.35331371 100.52486233 174.01413536 101.19972038 C170.60009056 107.98553008 167.14582126 114.74510443 163.57927227 121.45219326 C157.50812825 132.87947904 151.77178678 144.4643706 146.06204301 156.07547385 C143.81403367 160.64647369 141.55792203 165.21340667 139.29714966 169.77810669 C138.96406449 170.45066903 138.63097933 171.12323137 138.28780067 171.81617439 C136.9204046 174.5768864 135.55277855 177.33748446 134.18513083 180.09807181 C130.35116883 187.83792839 126.52471503 195.58130219 122.71972656 203.33544922 C119.66668673 209.55705959 116.59729701 215.77030928 113.50972283 221.97485745 C111.88904068 225.23312419 110.27595345 228.49459152 108.68297958 231.7665062 C101.10544066 247.31606238 92.82100713 261.27714426 81.85033035 274.69212723 C78.68798071 278.63645027 75.72486061 282.72606385 72.75 286.8125 C68.43712929 292.6988344 64.08665046 298.55288489 59.6875 304.375 C54.59710377 311.12146057 49.7431491 318.00505284 45 325 C45.76699219 325.28617188 46.53398437 325.57234375 47.32421875 325.8671875 C50.35548929 327.15049912 52.5112645 328.86679814 55 331 C58.23550817 327.91961893 60.92571834 324.61904538 63.625 321.0625 C64.5181728 319.89058204 65.4114035 318.7187082 66.3046875 317.546875 C66.75553711 316.95326172 67.20638672 316.35964844 67.67089844 315.74804688 C70.95113571 311.43384796 74.26364197 307.14433369 77.57373047 302.85302734 C78.58253987 301.54236947 79.58916327 300.23002767 80.59423828 298.91650391 C94.97363841 280.12736571 110.07084502 262.2491674 128.02026367 246.73242188 C131.25511517 243.90167749 134.37232513 240.94799384 137.5 238 C141.97498252 233.80239925 146.46334509 229.64111063 151.11328125 225.63671875 C153.43658787 223.62126228 155.71748465 221.56151538 158 219.5 C161.62023723 216.23295665 165.26983565 213.00479224 168.94921875 209.8046875 C171.26088797 207.77041859 173.5353143 205.6977769 175.8125 203.625 C179.18940982 200.57141133 182.63217132 197.65570795 186.1875 194.8125 C192.25816662 189.90595269 197.89068915 184.56799383 203.5703125 179.21875 C207.76808922 175.26683983 212.08290505 171.47654227 216.47753906 167.74560547 C223.62022012 161.67959403 230.66068759 155.54263174 237.51953125 149.15625 C240.97369374 145.94030561 244.47435592 142.79482045 248.04296875 139.70703125 C250.3855915 137.66366569 252.69273422 135.58319141 255 133.5 C258.60648273 130.24536924 262.2429674 127.03020257 265.90625 123.83984375 C269.97295412 120.26630337 273.98345603 116.6297047 278 113 C278.66 113.33 279.32 113.66 280 114 C275.44893791 119.23884317 270.83323489 124.41494887 266.18359375 129.56640625 C264.29151315 131.67511146 262.42094242 133.79919801 260.5625 135.9375 C256.91062947 140.13164365 253.15733816 144.23094292 249.41015625 148.33984375 C246.83006864 151.18755795 244.29798144 154.07244018 241.77734375 156.97265625 C239.70640513 159.33489173 237.60487152 161.66795853 235.5 164 C232.81016569 166.98062721 230.13689636 169.97245233 227.5 173 C224.10746907 176.89512811 220.64805799 180.72782763 217.1875 184.5625 C215.27445851 186.69417481 213.38112388 188.8401911 211.5 191 C206.62856797 196.58979989 201.6410485 202.07534898 196.671875 207.578125 C192.68295423 212.00121401 188.72432093 216.44615005 184.8125 220.9375 C181.96852205 224.17375077 179.07387299 227.36408668 176.1875 230.5625 C174.27445851 232.69417481 172.38112388 234.8401911 170.5 237 C167.10625985 240.89651647 163.64569997 244.73064945 160.18359375 248.56640625 C158.29151315 250.67511146 156.42094242 252.79919801 154.5625 254.9375 C151.75177475 258.16559512 148.884201 261.33738443 146 264.5 C143.09630963 267.68440968 140.20825953 270.87774821 137.375 274.125 C136.818125 274.75921875 136.26125 275.3934375 135.6875 276.046875 C134.52256071 277.39518437 133.37779206 278.76109364 132.25 280.140625 C127.10135638 286.27609198 121.17742649 290.89904272 114.79589844 295.64355469 C111.66504869 298.00829112 108.6172082 300.47570877 105.5625 302.9375 C98.9978655 308.21144917 92.3894423 313.42668224 85.76025391 318.61914062 C83.93557065 320.05054263 82.11391193 321.48571871 80.29296875 322.921875 C74.24745711 327.68771476 68.18880221 332.42028637 62 337 C63.4605926 339.50387303 64.91537286 341.89029816 66.6875 344.1875 C68 346 68 346 68 348 C80.80181065 338.64209696 80.80181065 338.64209696 93.4375 329.0625 C95.62454242 327.37440262 97.81201535 325.68687499 100 324 C100.7223584 323.44199707 101.4447168 322.88399414 102.18896484 322.30908203 C139.27269266 293.75802772 181.77262349 274.02945593 223.46898842 253.19834304 C227.63647036 251.11589561 231.80295116 249.03144662 235.96960449 246.94734192 C242.93051861 243.46598552 249.89225616 239.98628027 256.85449219 236.50756836 C264.89110576 232.49200696 272.92624625 228.47350946 280.96066904 224.45356673 C287.91170613 220.97578063 294.8635198 217.49955071 301.81598806 214.02462655 C305.94705994 211.95986756 310.07786434 209.89457836 314.20796204 207.82787132 C318.06838984 205.89621429 321.92978906 203.96651324 325.79195023 202.03832436 C327.20604826 201.33193597 328.61980708 200.62486804 330.03319931 199.91706848 C331.96233459 198.95113335 333.8926866 197.98767374 335.82336426 197.02482605 C336.90198982 196.48570178 337.98061539 195.94657751 339.09192657 195.39111614 C341.69582618 194.14550565 344.30600951 193.03345708 347 192 C343.71110415 195.64279724 339.92419514 198.06847411 335.7578125 200.578125 C330.09852603 204.05096279 324.50667023 207.59811533 318.9921875 211.296875 C318.33276657 211.7389328 317.67334564 212.1809906 316.99394226 212.63644409 C315.64491122 213.54217058 314.29633755 214.44857863 312.94821167 215.35565186 C302.85164258 222.14614633 292.73280011 228.88813945 282.4375 235.375 C274.22474417 240.55260694 266.12518019 245.87883353 258.05957031 251.2824707 C248.63449234 257.59181429 239.16521888 263.83259756 229.6875 270.0625 C228.47705521 270.85821915 228.47705521 270.85821915 227.24215698 271.67001343 C223.1282813 274.37416252 219.01398445 277.0776698 214.89941406 279.78076172 C209.36342682 283.41784522 203.82902073 287.05733203 198.29570007 290.69847107 C194.58165217 293.1419414 190.86559533 295.58223288 187.14477539 298.01538086 C180.96423211 302.05943896 174.79991245 306.11377648 168.72265625 310.3125 C154.92030402 319.77568678 140.46048635 326.64664947 125.07562256 333.12188721 C121.32991162 334.70654752 117.59742313 336.32190806 113.86328125 337.93359375 C107.23931532 340.78915412 100.60877981 343.62879692 93.97225952 346.45504761 C87.3101125 349.29235995 80.65446408 352.14471809 74 355 C75.98 360.445 75.98 360.445 78 366 C84.28975765 364.26803775 89.99291405 362.16272577 95.88671875 359.38671875 C99.51985677 357.76844523 103.20643023 356.37337834 106.9375 355 C112.71134547 352.87382728 118.40191349 350.61514633 124.0703125 348.21875 C129.33468183 346.02877236 134.66043813 343.99860696 140 342 C140.80743652 341.69296143 141.61487305 341.38592285 142.44677734 341.06958008 C159.76348828 334.59859862 178.00102916 330.90267171 196.06640625 327.16015625 C197.90122191 326.77804415 199.73602464 326.39586992 201.57081604 326.01364136 C234.66611746 319.13286548 267.79968698 312.43389432 300.92407227 305.69482422 C307.87053185 304.28156561 314.81659805 302.8663895 321.76224762 301.44915521 C326.1013525 300.56388808 330.44091529 299.68091537 334.78085887 298.79976964 C338.10231015 298.12468275 341.42304549 297.44609984 344.74389648 296.76806641 C346.49942589 296.41272324 346.49942589 296.41272324 348.29042053 296.05020142 C354.69297184 294.73906775 361.03589394 293.28818502 367.36343479 291.65163231 C371.29454129 290.68005156 375.25716559 289.97555689 379.25 289.3125 C380.00667969 289.18294922 380.76335938 289.05339844 381.54296875 288.91992188 C383.36128591 288.60919679 385.18054005 288.30396191 387 288 C386 290 386 290 382.41957092 291.21228027 C380.78935588 291.68084831 379.15720967 292.14272505 377.52368164 292.59960938 C369.60959247 294.89428093 361.76357279 297.33945625 353.94702148 299.94726562 C352.89033799 300.29964043 351.8336545 300.65201523 350.74495029 301.01506805 C347.3695823 302.14323613 343.99535209 303.27476787 340.62109375 304.40625 C338.19688743 305.21641939 335.7725736 306.02626716 333.34815979 306.83581543 C326.99359236 308.95840387 320.64014772 311.0843271 314.28704834 313.21130371 C303.00394528 316.98875192 291.71907012 320.76089898 280.43359375 324.53125 C279.21402607 324.9388814 277.99445839 325.34651279 276.73793411 325.76649666 C259.6901094 331.4628992 242.61863361 337.08041149 225.51814842 342.61660576 C215.87987273 345.73770005 206.25926859 348.88736611 196.703125 352.25390625 C178.93619302 358.50871109 161.86761142 363.77338262 143.10127258 366.09188843 C136.00452334 366.97147893 128.93350976 368.01417057 121.859375 369.05859375 C119.31990646 369.43311128 116.78043705 369.80762295 114.2409668 370.18212891 C112.33944351 370.46265106 112.33944351 370.46265106 110.39950562 370.74884033 C104.24843222 371.65243869 98.09505377 372.53990834 91.94140625 373.42578125 C90.8367804 373.58485458 89.73215454 373.74392792 88.59405518 373.90782166 C86.06274371 374.27216091 83.53137854 374.63612705 81 375 C81 379.29 81 383.58 81 388 C82.54453857 387.79842285 84.08907715 387.5968457 85.68041992 387.38916016 C153.95449269 378.5131263 153.95449269 378.5131263 184.05664062 379.31225586 C184.91504453 379.33416296 185.77344843 379.35607006 186.65786457 379.37864101 C207.00260654 379.91138789 227.30286235 381.08045984 247.61456871 382.32261395 C252.72032253 382.63331469 257.82655817 382.93590384 262.93273926 383.23948669 C272.52947093 383.81121955 282.12577174 384.38986442 291.7219243 384.97122759 C302.67757152 385.6345975 313.63369683 386.28990458 324.58986187 386.94465744 C347.0604368 388.28769941 369.53041719 389.64046709 392 391 C392.33 391.66 392.66 392.32 393 393 C366.21664805 394.57417332 339.43277805 396.13925878 312.64828014 397.69381714 C300.2090348 398.41599218 287.76996922 399.14103024 275.33129883 399.87304688 C264.47729678 400.51179811 253.62298351 401.1449347 242.76827699 401.77160454 C237.03216084 402.10295455 231.29622719 402.43692787 225.56065941 402.77764893 C163.98589017 406.43006249 163.98589017 406.43006249 137.73828125 403.03125 C136.07310342 402.82805742 134.40774861 402.6263107 132.74223328 402.42590332 C128.46475233 401.90744224 124.18988149 401.37006697 119.91534424 400.82794189 C115.51079445 400.27299651 111.10393321 399.73703946 106.69726562 399.19921875 C98.12921399 398.15080663 89.56383796 397.08229133 81 396 C81.01160156 396.60328125 81.02320312 397.2065625 81.03515625 397.828125 C81.04417969 398.62734375 81.05320312 399.4265625 81.0625 400.25 C81.07990234 401.43335937 81.07990234 401.43335937 81.09765625 402.640625 C81.00385306 404.90691002 80.63241063 406.8288895 80 409 C80.90057884 409.11822113 80.90057884 409.11822113 81.8193512 409.23883057 C88.1981232 410.07715832 94.57596933 410.92229435 100.95336914 411.77099609 C103.31805735 412.08483755 105.68295958 412.3970716 108.0480957 412.70751953 C143.14488768 417.3174701 176.13853266 424.73916345 209.75390625 435.9609375 C212.38662606 436.83371232 215.02019691 437.70390768 217.65370178 438.5743103 C223.94352309 440.65503672 230.23012017 442.74533081 236.51537019 444.83982074 C241.5761337 446.52619628 246.63791175 448.20949156 251.70037842 449.89074707 C270.19914963 456.03471531 288.69171644 462.19714735 307.18098414 468.3696506 C314.84378066 470.92775862 322.50720612 473.48398022 330.17066181 476.04011273 C343.23550174 480.3979006 356.29991644 484.75696077 369.36381531 489.11756897 C370.41981934 489.47005203 371.47582336 489.8225351 372.56382751 490.18569946 C373.47460525 490.48972498 374.38538298 490.7937505 375.32376003 491.10698891 C378.21563145 492.07195217 381.10778089 493.03607938 384 494 C380.34284197 495.28659479 377.74714163 494.7150504 374.015625 493.84765625 C372.79029053 493.56970215 371.56495605 493.29174805 370.30249023 493.00537109 C369.64465546 492.85219421 368.98682068 492.69901733 368.30905151 492.54119873 C364.72762768 491.70857117 361.13917532 490.90743175 357.55078125 490.10546875 C356.78681534 489.934245 356.02284943 489.76302124 355.23573303 489.58660889 C344.4046784 487.17627752 333.51148267 485.06751377 322.62402344 482.92993164 C313.02748474 481.03985939 303.46310973 479.03311777 293.90895081 476.93920898 C283.8350569 474.7349823 273.74000752 472.63710067 263.64126587 470.55014038 C260.26147003 469.85153324 256.88204165 469.15117044 253.50268555 468.45043945 C242.7487444 466.22120726 231.99366213 463.99759381 221.23675537 461.78271484 C216.55173157 460.81762328 211.86717972 459.85025262 207.18267822 458.88262939 C204.983981 458.42912843 202.78505702 457.97672502 200.58587646 457.52557373 C188.70032723 455.08719888 176.83864507 452.55966762 165.0078125 449.8671875 C163.9383992 449.62675217 162.8689859 449.38631683 161.76716614 449.13859558 C150.13859379 446.45954705 139.55741822 442.27722549 128.76953125 437.21484375 C124.41847662 435.30627113 119.93268675 433.80385981 115.44921875 432.23828125 C111.40153133 430.78514771 107.45842496 429.14677797 103.5 427.46875 C98.80828941 425.49990716 94.09432982 423.58902625 89.375 421.6875 C88.48474121 421.32551514 87.59448242 420.96353027 86.67724609 420.59057617 C85.84273926 420.25517822 85.00823242 419.91978027 84.1484375 419.57421875 C83.39739746 419.27088623 82.64635742 418.96755371 81.87255859 418.6550293 C80.01599792 417.88993801 80.01599792 417.88993801 78 418 C76.68 421.63 75.36 425.26 74 429 C74.85303711 429.36125977 75.70607422 429.72251953 76.58496094 430.09472656 C78.3914209 430.85994629 78.3914209 430.85994629 80.234375 431.640625 C80.89083008 431.91869492 81.54728516 432.19676483 82.22363281 432.48326111 C85.90813089 434.04441745 89.59186584 435.60734504 93.27441406 437.1730957 C94.80793623 437.8250478 96.34146492 438.47698455 97.875 439.12890625 C99.0304129 439.62013725 99.0304129 439.62013725 100.20916748 440.12129211 C104.41921061 441.90954343 108.63349502 443.68692106 112.85444641 445.44926453 C150.76313751 461.2819202 184.01331976 483.40142181 218.1875 505.9375 C219.13677368 506.56317871 220.08604736 507.18885742 221.06408691 507.83349609 C234.15542835 516.4630846 247.22144618 525.12935882 260.25775146 533.84182739 C270.72147947 540.83388202 281.22813136 547.75757719 291.75866699 554.64852905 C308.57763961 565.65755603 325.28913935 576.82782108 342 588 C339 589 339 589 335.78125 587.52539062 C334.34974229 586.74372575 332.92312522 585.95307427 331.5 585.15625 C322.2626741 580.14309911 312.90713508 575.40196804 303.5 570.71875 C301.99343701 569.96739056 300.48692711 569.21592466 298.98046875 568.46435547 C294.32137804 566.14076232 289.66081448 563.82013314 285 561.5 C279.57080131 558.79736855 274.14233871 556.09327773 268.71557617 553.38575745 C266.59052896 552.32638043 264.46425846 551.2694916 262.33789062 550.21276855 C255.11675516 546.61543282 247.95023432 542.93238407 240.82373047 539.15087891 C231.38392358 534.1496497 221.8203529 529.42091505 212.22458267 524.72753525 C207.12426769 522.22881052 202.03354255 519.71065082 196.94140625 517.1953125 C190.53417347 514.03054099 184.12432303 510.87164224 177.70166016 507.73828125 C172.44370363 505.17247781 167.1974038 502.58406453 161.95769882 499.98120499 C159.99178173 499.00945548 158.02202436 498.04542584 156.04800797 497.09023666 C142.16297438 490.36439192 130.21066004 482.36970446 118.1799736 472.71840286 C115.19364214 470.36437411 112.11748295 468.17699271 109 466 C103.02585514 461.79956627 97.23032503 457.38416629 91.4375 452.9375 C83.77233527 447.05549102 76.03535824 441.36684409 68 436 C67.71382812 436.76699219 67.42765625 437.53398437 67.1328125 438.32421875 C65.84950088 441.35548929 64.13320186 443.5112645 62 446 C65.81734418 450.02941886 69.89796622 453.29475493 74.375 456.5625 C80.51638501 461.10531654 86.53884046 465.76414385 92.48266602 470.56201172 C96.13478567 473.50974236 99.81218157 476.41896744 103.52050781 479.2956543 C109.13465916 483.65618247 114.54255863 488.14323282 119.77734375 492.9609375 C121.79562103 494.81250295 123.85349135 496.59833 125.9375 498.375 C133.09024263 504.61555076 139.76628897 511.42223695 145.92578125 518.640625 C148.87633691 521.99681261 151.94185254 525.24197622 155 528.5 C159.19666979 532.97590133 163.35884531 537.46329393 167.36328125 542.11328125 C169.37873772 544.43658787 171.43848462 546.71748465 173.5 549 C178.29907792 554.32334693 183.0407795 559.68863339 187.6796875 565.15234375 C193.22567765 571.6752574 198.86520568 578.06659203 204.71411133 584.31958008 C207.7383702 587.57331665 210.60000498 590.90240919 213.375 594.375 C217.60978848 599.65693617 222.19871525 604.53876878 226.84716797 609.45263672 C230.21456839 613.0308973 233.43367257 616.6556492 236.5 620.5 C241.27600677 626.48342421 246.52279415 631.98775721 251.76953125 637.5546875 C254.71032579 640.67775922 257.56399177 643.86272092 260.36328125 647.11328125 C262.37873772 649.43658787 264.43848462 651.71748465 266.5 654 C268 655.66666667 269.5 657.33333333 271 659 C271.67933594 659.75023438 272.35867188 660.50046875 273.05859375 661.2734375 C273.67863281 661.96695313 274.29867187 662.66046875 274.9375 663.375 C275.75541016 664.28378906 275.75541016 664.28378906 276.58984375 665.2109375 C278.04135381 667.0524655 279.02946548 668.87138806 280 671 C277.18648214 669.71104283 275.0674293 668.33731495 272.828125 666.20703125 C272.2503833 665.66280518 271.6726416 665.1185791 271.07739258 664.55786133 C270.47435303 663.98189209 269.87131348 663.40592285 269.25 662.8125 C267.98906652 661.62416621 266.72735409 660.43665837 265.46484375 659.25 C264.86269043 658.6828125 264.26053711 658.115625 263.64013672 657.53125 C261.14483185 655.20160544 258.57232051 652.96819093 255.98828125 650.73828125 C253.45947072 648.52743511 250.98127436 646.26403557 248.5 644 C244.71337002 640.54671847 240.8952368 637.13900949 237.02734375 633.77734375 C233.79875322 630.94688384 230.62086825 628.06038793 227.43359375 625.18359375 C225.32488854 623.29151315 223.20080199 621.42094242 221.0625 619.5625 C216.86835635 615.91062947 212.76905708 612.15733816 208.66015625 608.41015625 C205.81244205 605.83006864 202.92755982 603.29798144 200.02734375 600.77734375 C197.66510827 598.70640513 195.33204147 596.60487152 193 594.5 C190.01937279 591.81016569 187.02754767 589.13689636 184 586.5 C178.41020011 581.62856797 172.92465102 576.6410485 167.421875 571.671875 C162.99878599 567.68295423 158.55384995 563.72432093 154.0625 559.8125 C150.82624923 556.96852205 147.63591332 554.07387299 144.4375 551.1875 C142.30582519 549.27445851 140.1598089 547.38112388 138 545.5 C132.41020011 540.62856797 126.92465102 535.6410485 121.421875 530.671875 C120.58140625 529.91390625 119.7409375 529.1559375 118.875 528.375 C118.04742188 527.62476562 117.21984375 526.87453125 116.3671875 526.1015625 C114.91941148 524.81624319 113.44979313 523.5543952 111.9453125 522.3359375 C106.70345111 518.06245211 102.7998427 513.0572425 98.76953125 507.66015625 C95.79037107 503.68181494 92.65179612 499.84207123 89.5 496 C84.71900663 490.15331744 80.05669672 484.23536784 75.4765625 478.23046875 C72.77087321 474.6873042 70.01131486 471.18737666 67.25 467.6875 C63.4295711 462.84194818 59.67083266 457.96058468 56 453 C53.49612697 454.4605926 51.10970184 455.91537286 48.8125 457.6875 C47 459 47 459 45 459 C50.31514384 466.57078051 55.73864874 474.03947941 61.375 481.375 C61.92510742 482.09196045 62.47521484 482.8089209 63.04199219 483.54760742 C65.20022783 486.35879439 67.35925435 489.16935056 69.52392578 491.97558594 C87.07975741 514.78484524 101.47978579 538.99788894 114.56640625 564.58203125 C114.99881748 565.42659441 115.43122871 566.27115757 115.87674332 567.14131355 C129.72440275 594.20775226 143.328027 621.3987314 156.9373827 648.58551979 C161.53193376 657.76370752 166.13206977 666.93904741 170.7397083 676.11067241 C174.02465053 682.65051208 177.30353232 689.19336712 180.57779276 695.73856121 C182.51911297 699.61885564 184.46303952 703.49779057 186.41349411 707.37350273 C188.2280728 710.97955387 190.03516283 714.58925495 191.83636475 718.20200539 C192.49837071 719.52651555 193.16313949 720.84964877 193.8307991 722.17131805 C194.73726048 723.96672185 195.63304042 725.76750688 196.52816772 727.56858826 C197.03276709 728.57539863 197.53736645 729.582209 198.0572567 730.61952877 C198.36836199 731.40508428 198.67946728 732.19063978 199 733 C198.67 733.66 198.34 734.32 198 735 C189.16630271 721.84969679 180.37485131 708.68202454 171.875 695.3125 C166.13877411 686.29409391 160.28445647 677.36624718 154.33569336 668.48681641 C148.82207626 660.25118639 143.36994279 651.97677198 137.9375 643.6875 C137.49918854 643.01878876 137.06087708 642.35007751 136.60928345 641.66110229 C134.80099745 638.90218912 132.99282942 636.14319873 131.18495178 633.38401794 C126.44600663 626.1522764 121.6971711 618.92704644 116.94766235 611.70223999 C113.1088011 605.86241571 109.27117904 600.02177682 105.43334961 594.18127441 C104.47520509 592.7231681 103.51703438 591.265079 102.55883789 589.80700684 C101.60143579 588.35012236 100.64407879 586.89320824 99.68676758 585.43626404 C98.74530776 584.0034632 97.80374014 582.57073319 96.86206055 581.13807678 C94.59949338 577.69483316 92.34014409 574.24956075 90.08789062 570.79956055 C84.97837897 562.96730738 84.97837897 562.96730738 79.703125 555.24609375 C71.28598911 543.10689568 65.68765913 529.64636156 59.90667725 516.11846924 C58.96058698 513.90791071 58.00953375 511.69954412 57.05712891 509.49169922 C53.53479592 501.32626647 50.02926685 493.15386948 46.54489136 484.97216797 C43.70765522 478.31002772 40.85526765 471.65443084 38 465 C36.99332275 465.33076538 36.99332275 465.33076538 35.96630859 465.66821289 C34.3655599 466.19417318 32.7648112 466.72013346 31.1640625 467.24609375 C28.98968201 467.95179729 28.98968201 467.95179729 27 469 C28.67374598 475.2731455 30.84606022 481.01597153 33.61328125 486.8828125 C35.238507 490.53613687 36.62638422 494.2465048 38 498 C39.65215345 502.51072422 41.35815105 506.91404613 43.4375 511.25 C46.99564669 518.83688697 49.5411429 526.8262426 52.23046875 534.75146484 C52.84424913 536.54490309 53.48079885 538.33054404 54.125 540.11328125 C60.70186623 558.61071753 64.23634405 578.29138459 68.0625 597.5 C68.68283402 600.58719811 69.30478282 603.67406712 69.92710876 606.76086426 C70.3071823 608.6488232 70.68595 610.53704605 71.0627594 612.42565918 C72.44442174 619.3295374 73.87795372 626.22210915 75.31787109 633.11401367 C77.80606458 645.02948216 80.24318855 656.95498497 82.66589546 668.88392067 C83.40193353 672.50790935 84.13873908 676.13174131 84.87571716 679.75553894 C86.70291787 688.74078994 88.52895068 697.72627817 90.3548584 706.71179199 C91.90764232 714.35307929 93.46096146 721.9942574 95.01499748 729.63529015 C95.7333032 733.16819744 96.4508437 736.70125955 97.16835022 740.23432922 C99.72937464 752.83357409 102.32909994 765.42357044 105 778 C103 777 103 777 102.13238525 774.9671936 C101.84152039 774.06874725 101.55065552 773.1703009 101.25097656 772.24462891 C100.91532684 771.22047379 100.57967712 770.19631866 100.2338562 769.14112854 C99.8730899 768.01432175 99.51232361 766.88751495 99.140625 765.7265625 C98.76028107 764.55894882 98.37993713 763.39133514 97.98806763 762.18833923 C97.16624329 759.66176571 96.34722971 757.13447869 95.53289795 754.60549927 C94.23860926 750.58602288 92.93371085 746.57003933 91.62744141 742.55444336 C89.46021919 735.88773075 87.30167458 729.21823971 85.1463623 722.54766846 C82.82099888 715.35132361 80.49048401 708.15665124 78.1546936 700.96368408 C77.63039038 699.34901321 77.10645032 697.73422437 76.58285522 696.11932373 C71.96884315 681.89797057 67.24772888 667.71301811 62.50291443 653.53489685 C59.74238365 645.28494431 56.99056621 637.03230593 54.26049805 628.7722168 C53.18201063 625.51203052 52.10288233 622.2520569 51.0234375 618.9921875 C50.75968889 618.19512957 50.49594028 617.39807163 50.2241993 616.57686043 C47.11330093 607.18661122 43.89883188 597.85262458 40.4765625 588.5703125 C27.61958668 553.06766076 18 509.00564174 18 471 C17.15695312 471.24556641 17.15695312 471.24556641 16.296875 471.49609375 C13.86940944 472.02864997 11.73110319 472.09898681 9.25 472.0625 C8.05117187 472.04896484 8.05117187 472.04896484 6.828125 472.03515625 C5.92320312 472.01775391 5.92320312 472.01775391 5 472 C5.147006 473.17699211 5.147006 473.17699211 5.29698181 474.37776184 C6.23048235 481.86154698 7.15740746 489.34610619 8.07739925 496.831563 C8.55031784 500.67762002 9.02555943 504.52335687 9.5065918 508.3684082 C9.97283489 512.09600252 10.43234746 515.82437613 10.8876667 519.55331993 C11.06036225 520.9585659 11.23527172 522.36354208 11.41270256 523.76819801 C13.60610898 541.16215622 14.22676214 558.4115923 13.71459961 575.92602539 C13.69134861 576.79481327 13.66809761 577.66360115 13.64414203 578.55871594 C13.09727889 598.8108538 11.96496731 619.02538448 10.74324918 639.24624133 C10.50179592 643.25676821 10.2649013 647.26755993 10.02788967 651.27835137 C9.4699723 660.71810692 8.90484632 670.15741024 8.3347168 679.59643555 C7.74801886 689.31180747 7.17369856 699.02785846 6.60510021 708.74430507 C6.11246971 717.1556942 5.61263394 725.5666334 5.10686916 733.97724301 C4.80650148 738.9731537 4.50882049 743.96918653 4.21805 748.96566582 C3.94649753 753.62629091 3.66597384 758.28628835 3.37833786 762.94594765 C3.27430832 764.65586937 3.17349903 766.36599038 3.07608223 768.07630157 C2.94313748 770.40150157 2.79877969 772.72571175 2.65138245 775.05003357 C2.53441938 777.00270976 2.53441938 777.00270976 2.41509342 778.99483395 C2 782 2 782 0 784 C-1.72333304 755.16685288 -3.43622457 726.33310176 -5.13678074 697.49860191 C-5.29419454 694.83012049 -5.45164729 692.16164137 -5.60913086 689.49316406 C-5.66784131 688.49831194 -5.66784131 688.49831194 -5.72773784 687.4833618 C-6.32105068 677.43264625 -6.91968943 667.38225684 -7.52124023 657.33203125 C-8.21986901 645.65894771 -8.9120754 633.98550383 -9.59666008 622.31158793 C-9.95916569 616.13373927 -10.32482499 609.95611467 -10.69818306 603.77891159 C-11.0499812 597.95672964 -11.39314596 592.13410093 -11.72988892 586.31102943 C-11.85451738 584.18169541 -11.98221413 582.05253823 -12.11332512 579.92359352 C-12.79526173 568.82106659 -13.23123069 558.08289308 -12 547 C-11.92071982 546.20687723 -11.84143965 545.41375446 -11.75975704 544.59659767 C-11.54864313 542.57060708 -11.30530989 540.54805062 -11.06030273 538.52587891 C-10.97237457 537.79231674 -10.88444641 537.05875458 -10.79385376 536.30296326 C-10.51028659 533.94376558 -10.22201439 531.58517125 -9.93359375 529.2265625 C-9.73294501 527.56508899 -9.53259759 525.90357907 -9.33253479 524.24203491 C-8.81110381 519.91817248 -8.28564533 515.59480923 -7.75927734 511.27154541 C-7.22049521 506.84018501 -6.68561908 502.40835327 -6.15039062 497.9765625 C-5.10403109 489.31724865 -4.05340607 480.65845945 -3 472 C-3.59167969 472.01160156 -4.18335937 472.02320312 -4.79296875 472.03515625 C-9.00231785 472.08322386 -12.8922333 472.06006883 -17 471 C-17.03593262 471.72638672 -17.07186523 472.45277344 -17.10888672 473.20117188 C-19.38850851 511.24413705 -26.35458537 548.70624515 -37.93115234 584.953125 C-38.2132269 585.8394952 -38.49530145 586.7258654 -38.78592372 587.63909531 C-44.73767972 606.33754394 -50.89903732 624.96415236 -57.12349749 643.57328033 C-58.59504207 647.97501899 -60.06296212 652.37796642 -61.53134155 656.78076172 C-64.29088633 665.05328371 -67.05347327 673.32478608 -69.81728208 681.59588432 C-72.96177993 691.00676266 -76.10273695 700.41882159 -79.24343991 709.83096695 C-84.60769286 725.90651721 -89.97441243 741.98124207 -95.34423828 758.05493164 C-97.56500596 764.70256246 -99.78474893 771.35052848 -102 778 C-103.53798936 774.92402129 -102.44089793 772.69629769 -101.69799805 769.36816406 C-101.54138765 768.6542878 -101.38477726 767.94041153 -101.2234211 767.20490265 C-100.87060129 765.59756281 -100.51490429 763.99085278 -100.15686989 762.38466644 C-99.10420698 757.65290228 -98.07906214 752.9151631 -97.05224609 748.17773438 C-96.81779313 747.09753902 -96.58334017 746.01734367 -96.34178257 744.90441513 C-93.07662415 729.80616071 -89.96922884 714.67479552 -86.84777689 699.54632378 C-86.33035606 697.03875654 -85.81264764 694.53124884 -85.29485703 692.02375793 C-83.34110552 682.56182988 -81.38941222 673.09947862 -79.43878448 663.63690615 C-77.98925929 656.60581736 -76.53790135 649.57510791 -75.08604985 642.54449916 C-73.4860225 634.79622001 -71.88706885 627.04771967 -70.28864098 619.29911041 C-69.62124816 616.06385452 -68.95354423 612.8286631 -68.28556252 609.59352875 C-67.49983185 605.78774299 -66.71495289 601.98178257 -65.9308027 598.17567086 C-65.62951116 596.71355912 -65.32801374 595.25148979 -65.02630198 593.78946471 C-63.42151284 586.01020145 -61.83975613 578.22734398 -60.31246948 570.4324646 C-60.1767777 569.74270365 -60.04108591 569.05294271 -59.90128225 568.34227991 C-59.26346692 565.10006028 -58.63047852 561.8571899 -58.00748158 558.61207199 C-56.32185782 550.01354761 -54.04761159 542.16071441 -50.5 534.125 C-49.53817275 531.8167768 -48.5772289 529.50818529 -47.6171875 527.19921875 C-47.1644043 526.13493652 -46.71162109 525.0706543 -46.24511719 523.97412109 C-44.58307807 520.00412882 -43.08997099 515.98337459 -41.625 511.9375 C-39.70776938 506.75713187 -37.56310169 501.77005025 -35.21484375 496.7734375 C-33.31102707 492.4271036 -31.82700517 487.94052917 -30.26953125 483.4609375 C-28.45343258 478.50997312 -26.2792329 473.75244306 -24 469 C-24.61488281 468.79503906 -25.22976563 468.59007813 -25.86328125 468.37890625 C-29.2421875 467.25260417 -32.62109375 466.12630208 -36 465 C-37.64394046 468.77795089 -39.28630543 472.55658217 -40.92715454 476.33587646 C-41.5177725 477.696185 -42.10857272 479.05641441 -42.69955444 480.41656494 C-46.33551732 488.78802075 -49.92534403 497.17536211 -53.44213867 505.59765625 C-57.91204188 516.28783631 -62.54219853 526.77741207 -68 537 C-68.40686035 537.76973145 -68.8137207 538.53946289 -69.23291016 539.33251953 C-74.71511029 549.66521759 -80.51015526 559.69464785 -86.98388672 569.43774414 C-89.99923031 573.98900996 -92.97220559 578.56698822 -95.94140625 583.1484375 C-102.48807694 593.23394967 -109.09114565 603.28170217 -115.71166992 613.31884766 C-117.56578414 616.12997928 -119.41870242 618.94189642 -121.27148438 621.75390625 C-126.83360132 630.1921933 -132.40642079 638.62287649 -138.01953125 647.02734375 C-144.14494698 656.1991306 -150.21060492 665.40988733 -156.27313232 674.62332153 C-165.95476691 689.3359535 -175.64758357 704.04022455 -185.45751953 718.66772461 C-189.73322417 725.05331469 -193.90233542 731.49869955 -198 738 C-198.33 737.34 -198.66 736.68 -199 736 C-197.58324215 733.02444535 -196.0835797 730.15740656 -194.5078125 727.265625 C-188.17148961 715.37750064 -182.12739528 703.35252772 -176.1171875 691.296875 C-175.1211785 689.30119669 -174.12510445 687.30555086 -173.12896729 685.30993652 C-170.04223228 679.12432694 -166.95838594 672.93727954 -163.875 666.75 C-160.27937779 659.53490077 -156.68233224 652.32051782 -153.08188248 645.10782623 C-151.66575965 642.26923689 -150.25210324 639.4294293 -148.83859253 636.58953857 C-144.60398832 628.09689422 -140.31414044 619.64246175 -135.86816406 611.25830078 C-131.60870325 603.2245872 -127.55282275 595.1069085 -123.57949448 586.92850113 C-121.64881516 582.96313423 -119.6978151 579.00775106 -117.75 575.05078125 C-115.30941605 570.09210476 -112.87481602 565.13085131 -110.46582031 560.15673828 C-101.56833429 541.80258951 -92.86679686 524.59827743 -79.59945679 508.93540955 C-77.22899807 506.06705545 -75.12206516 503.05606607 -73 500 C-68.11254916 493.04864013 -62.94348547 486.31917347 -57.77734375 479.57348633 C-53.08967318 473.44791106 -48.47396631 467.28415663 -44 461 C-47.12732048 457.69397549 -50.06164359 455.25710846 -54 453 C-59.36800486 459.80695674 -64.72425305 466.62117238 -70 473.5 C-80.89913215 487.70729335 -91.90933642 501.77769796 -104 515 C-104.87785156 515.98226562 -105.75570312 516.96453125 -106.66015625 517.9765625 C-111.56292184 523.44299414 -116.59709275 528.60777558 -122.12890625 533.44921875 C-126.54670376 537.37414634 -130.82392493 541.44751425 -135.1159668 545.5090332 C-139.05578715 549.22343972 -143.06354215 552.83793735 -147.15185547 556.38818359 C-149.63591739 558.55460061 -152.06915938 560.77417003 -154.5 563 C-158.29009082 566.45643771 -162.11056033 569.86843854 -165.984375 573.23046875 C-168.28607764 575.25114956 -170.54764379 577.31312618 -172.8125 579.375 C-176.18940982 582.42858867 -179.63217132 585.34429205 -183.1875 588.1875 C-189.25816662 593.09404731 -194.89068915 598.43200617 -200.5703125 603.78125 C-204.76808922 607.73316017 -209.08290505 611.52345773 -213.47753906 615.25439453 C-220.62022012 621.32040597 -227.66068759 627.45736826 -234.51953125 633.84375 C-237.97369374 637.05969439 -241.47435592 640.20517955 -245.04296875 643.29296875 C-247.3855915 645.33633431 -249.69273422 647.41680859 -252 649.5 C-254.98062721 652.18983431 -257.97245233 654.86310364 -261 657.5 C-270.74890891 665.98431606 -270.74890891 665.98431606 -280 675 C-280.66 674.67 -281.32 674.34 -282 674 C-281.21496094 673.154375 -280.42992188 672.30875 -279.62109375 671.4375 C-274.58258922 666.00073281 -269.55771899 660.56305723 -264.70703125 654.95703125 C-262.66366569 652.6144085 -260.58319141 650.30726578 -258.5 648 C-255.81016569 645.01937279 -253.13689636 642.02754767 -250.5 639 C-247.10746907 635.10487189 -243.64805799 631.27217237 -240.1875 627.4375 C-238.27445851 625.30582519 -236.38112388 623.1598089 -234.5 621 C-231.10746907 617.10487189 -227.64805799 613.27217237 -224.1875 609.4375 C-222.27445851 607.30582519 -220.38112388 605.1598089 -218.5 603 C-215.10625985 599.10348353 -211.64569997 595.26935055 -208.18359375 591.43359375 C-206.29151315 589.32488854 -204.42094242 587.20080199 -202.5625 585.0625 C-198.91062947 580.86835635 -195.15733816 576.76905708 -191.41015625 572.66015625 C-188.83006864 569.81244205 -186.29798144 566.92755982 -183.77734375 564.02734375 C-181.70640513 561.66510827 -179.60487152 559.33204147 -177.5 557 C-174.81016569 554.01937279 -172.13689636 551.02754767 -169.5 548 C-166.10746907 544.10487189 -162.64805799 540.27217237 -159.1875 536.4375 C-157.27445851 534.30582519 -155.38112388 532.1598089 -153.5 530 C-150.10746907 526.10487189 -146.64805799 522.27217237 -143.1875 518.4375 C-141.27445851 516.30582519 -139.38112388 514.1598089 -137.5 512 C-136.93152344 511.35417969 -136.36304687 510.70835937 -135.77734375 510.04296875 C-134.54277486 508.62389286 -133.32787696 507.18755899 -132.12890625 505.73828125 C-122.72800337 494.70243874 -110.74430508 486.27528462 -99.2734375 477.5234375 C-95.6616264 474.75474826 -92.11079288 471.91187981 -88.5625 469.0625 C-83.55602498 465.0441195 -78.54156902 461.03681099 -73.5 457.0625 C-72.94900635 456.62623291 -72.3980127 456.18996582 -71.83032227 455.74047852 C-67.96975648 452.70337533 -64.0131859 449.83253904 -60 447 C-60.92455559 445.491987 -61.8650747 443.99375083 -62.8125 442.5 C-63.33457031 441.6646875 -63.85664063 440.829375 -64.39453125 439.96875 C-65.18923828 438.99421875 -65.18923828 438.99421875 -66 438 C-70.29798979 438 -72.61291488 440.46482298 -75.875 443 C-76.57189941 443.53181885 -77.26879883 444.0636377 -77.98681641 444.61157227 C-80.32966613 446.40112812 -82.66482829 448.20043959 -85 450 C-122.36433212 478.65420733 -122.36433212 478.65420733 -139 488 C-139.73476562 488.41475586 -140.46953125 488.82951172 -141.2265625 489.25683594 C-153.0349318 495.88686507 -165.04302897 502.12758593 -177.08764648 508.3137207 C-177.84260875 508.70176774 -178.59757101 509.08981477 -179.37541091 509.4896208 C-196.4805261 518.27838546 -213.65491464 526.92719812 -230.84765625 535.54296875 C-232.41745862 536.32990506 -233.98725155 537.11686021 -235.55703545 537.90383339 C-242.89434899 541.58189128 -250.23255763 545.25815542 -257.57193667 548.93208998 C-265.98128929 553.14171753 -274.38723129 557.35806472 -282.79058081 561.5796625 C-289.35577567 564.87728568 -295.92398838 568.16884353 -302.4945392 571.45578176 C-306.39504328 573.40720772 -310.29418414 575.36124816 -314.19011116 577.32179832 C-317.82070424 579.14865216 -321.45495181 580.96800951 -325.0922451 582.7814846 C-326.4264255 583.44832568 -327.75922883 584.11792979 -329.09056854 584.79042435 C-330.89943047 585.70361534 -332.71367391 586.60612375 -334.5282135 587.50798035 C-336.05011842 588.27072407 -336.05011842 588.27072407 -337.6027689 589.04887676 C-338.39385516 589.36274743 -339.18494143 589.6766181 -340 590 C-340.66 589.67 -341.32 589.34 -342 589 C-332.75869418 582.82197963 -323.49537587 576.67953268 -314.1968689 570.58795166 C-310.72550146 568.31375571 -307.2554622 566.03753401 -303.78515625 563.76171875 C-303.06395096 563.28883423 -302.34274567 562.81594971 -301.59968567 562.32873535 C-293.62532873 557.09967789 -285.65622908 551.86262829 -277.6875 546.625 C-276.21907804 545.65990827 -274.75065355 544.6948204 -273.28222656 543.72973633 C-270.32923754 541.78894049 -267.37628003 539.84809671 -264.42333984 537.90722656 C-257.84399421 533.58289493 -251.26422098 529.25921399 -244.68447876 524.93548584 C-241.03963487 522.54035072 -237.39481885 520.14517321 -233.75 517.75 C-232.2916668 516.79166646 -230.83333347 515.83333313 -229.375 514.875 C-228.2921875 514.1634375 -228.2921875 514.1634375 -227.1875 513.4375 C-220.62500001 509.12500001 -220.62500001 509.12500001 -218.43788147 507.6877594 C-216.9782659 506.72857764 -215.51866102 505.76937962 -214.05906677 504.81016541 C-210.43293869 502.42718018 -206.80663065 500.04446976 -203.17993164 497.66235352 C-196.38239889 493.19712935 -189.58671892 488.72915683 -182.79708862 484.25192261 C-179.61117389 482.15129086 -176.4242761 480.05215316 -173.23730469 477.953125 C-171.72721118 476.95793811 -170.21759268 475.96203 -168.70849609 474.96533203 C-146.29387933 460.16208231 -146.29387933 460.16208231 -138.5625 457.4375 C-133.59779344 455.67040105 -128.85516342 453.59278134 -124.0715332 451.39379883 C-118.52579843 448.87725803 -112.91477007 446.51230708 -107.3125 444.125 C-104.83818254 443.06724508 -102.36441015 442.00821791 -99.890625 440.94921875 C-98.70791016 440.44310059 -97.52519531 439.93698242 -96.30664062 439.41552734 C-92.05583256 437.59581491 -87.80548413 435.77538938 -83.5625 433.9375 C-81.80099609 433.17759766 -81.80099609 433.17759766 -80.00390625 432.40234375 C-77.20435575 431.09540145 -74.61222113 429.64545518 -72 428 C-73.98 423.05 -73.98 423.05 -76 418 C-84.99967989 420.39869393 -93.41794446 423.95890998 -101.98959351 427.55001831 C-123.11202941 436.37514736 -144.01125692 444.71137609 -166.26953125 450.23046875 C-167.04229904 450.42311436 -167.81506683 450.61575996 -168.61125183 450.81424332 C-186.7390545 455.31772497 -205.00130093 459.11181969 -223.3040123 462.82671356 C-227.94256253 463.77006141 -232.57923173 464.72256893 -237.21606445 465.67431641 C-244.06594857 467.07963326 -250.91634051 468.4824243 -257.76737309 469.88213158 C-271.3216376 472.65182035 -284.87059861 475.44680263 -298.41796875 478.25 C-300.52043646 478.68494739 -302.62290431 479.11989409 -304.72537231 479.55484009 C-308.85917308 480.41009123 -312.99294766 481.26546885 -317.12670898 482.12091064 C-325.86071013 483.92823302 -334.59490625 485.73460684 -343.32964516 487.5383606 C-345.0516684 487.89407652 -346.77364454 488.25002056 -348.49556541 488.60623169 C-360.65377123 491.1213131 -372.82304514 493.57733247 -385 496 C-384 494 -384 494 -382.03369141 493.21655273 C-381.14858887 492.95817627 -380.26348633 492.6997998 -379.3515625 492.43359375 C-378.31032227 492.12204346 -377.26908203 491.81049316 -376.19628906 491.48950195 C-374.42850098 490.96876099 -374.42850098 490.96876099 -372.625 490.4375 C-358.41799832 486.1383964 -344.32710775 481.51830509 -330.25 476.8125 C-329.15353149 476.4462149 -328.05706299 476.07992981 -326.92736816 475.70254517 C-310.38192486 470.17150753 -293.86475763 464.55982572 -277.36035156 458.90771484 C-267.27971531 455.45614653 -257.19422114 452.02008284 -247.09014893 448.63763428 C-245.7378562 448.18465867 -244.38590369 447.73066558 -243.03436279 447.27545166 C-236.06391608 444.92923345 -229.07716358 442.71504923 -222.0078125 440.69140625 C-215.23379326 438.74329135 -208.58115708 436.51810933 -201.9296875 434.1875 C-181.74313893 427.13452187 -162.20181679 420.3666716 -140.8782196 417.85664368 C-133.95550866 417.03403118 -127.06844906 415.99100306 -120.17578125 414.94921875 C-118.94843262 414.76400665 -117.72108398 414.57879456 -116.45654297 414.38796997 C-113.95222267 414.00988663 -111.44792999 413.63162033 -108.94366455 413.25317383 C-102.93680627 412.34854825 -96.92783223 411.45863332 -90.91796875 410.57421875 C-89.84557449 410.41515549 -88.77318024 410.25609222 -87.66828918 410.09220886 C-86.68615952 409.94793961 -85.70402985 409.80367035 -84.69213867 409.6550293 C-83.83077805 409.52799118 -82.96941742 409.40095306 -82.08195496 409.27006531 C-80 409 -80 409 -78 409 C-78.66 405.04 -79.32 401.08 -80 397 C-94.4582679 397.75946253 -108.74533421 399.60110893 -123.10375977 401.41601562 C-147.91467948 404.53981905 -172.13629984 405.45520928 -197.10546875 404.3203125 C-198.01868582 404.27959751 -198.93190289 404.23888252 -199.8727932 404.19693375 C-233.80805212 402.66433093 -267.71362108 400.46039472 -301.62002647 398.4021256 C-311.39087276 397.80913194 -321.16197041 397.22032869 -330.93308508 396.63177657 C-350.95566102 395.42565009 -370.97793491 394.21457546 -391 393 C-390.67 392.34 -390.34 391.68 -390 391 C-361.88575085 389.06298664 -333.76694032 387.21020657 -305.64112663 385.44872189 C-292.57192821 384.62839229 -279.50529607 383.78356635 -266.44189453 382.87524414 C-206.28392722 378.70634218 -148.51606435 376.19238828 -88.88951302 386.61837101 C-85.49437689 387.13093675 -85.49437689 387.13093675 -80 387 C-79.67 383.04 -79.34 379.08 -79 375 C-80.81306641 374.75354736 -82.62613281 374.50709473 -84.49414062 374.25317383 C-90.59379753 373.42198459 -96.69232265 372.58284478 -102.79019928 371.73869801 C-106.47478733 371.228909 -110.1597144 370.7219814 -113.84570312 370.22241211 C-137.67029154 366.99001303 -161.13207285 363.38707419 -183.98535156 355.67138672 C-186.82754196 354.72421953 -189.69352851 353.86212236 -192.5625 353 C-198.33651593 351.2363272 -204.05847249 349.33097406 -209.76782227 347.36914062 C-214.08977587 345.90410581 -218.43755773 344.57181375 -222.82196045 343.30480957 C-231.69669583 340.73925481 -240.44340743 337.89559949 -249.17114258 334.86978149 C-251.60438587 334.0263154 -254.0392963 333.18781209 -256.47460938 332.3503418 C-259.93024915 331.16161605 -263.38530729 329.97122514 -266.83984375 328.77929688 C-290.49430006 320.6199082 -314.18496798 312.5690558 -337.91625977 304.63583374 C-340.27254564 303.84793711 -342.62851241 303.05908538 -344.98413086 302.26919556 C-348.31127525 301.15411307 -351.63953631 300.04248209 -354.96875 298.93359375 C-356.01285034 298.58579361 -357.05695068 298.23799347 -358.13269043 297.87965393 C-365.0942776 295.58005915 -372.08590631 293.42709721 -379.16687012 291.52354431 C-380.79451028 291.07170619 -382.40066184 290.54358776 -384 290 C-384.33 289.34 -384.66 288.68 -385 288 C-370.40867041 290.88956179 -355.83934012 293.87989672 -341.27574158 296.90590096 C-338.01614009 297.58306671 -334.75638155 298.2594655 -331.49652588 298.93540591 C-317.09519733 301.92165024 -302.69617136 304.91865912 -288.30059183 307.93249893 C-282.39383134 309.1688702 -276.48668797 310.40340965 -270.57939315 311.63722515 C-269.10845444 311.94445979 -267.63753151 312.25177003 -266.16662431 312.55915546 C-248.58933873 316.23176938 -231.00405264 319.82849056 -213.35928154 323.16561508 C-171.23618639 331.14535836 -133.08110488 342.4044149 -93.82312012 359.76898193 C-87.94396103 362.33258205 -81.9811127 364.68576656 -76 367 C-75.66923462 366.00770386 -75.66923462 366.00770386 -75.33178711 364.99536133 C-73.66589355 359.99768066 -73.66589355 359.99768066 -72 355 C-73.0041394 354.58488159 -73.0041394 354.58488159 -74.02856445 354.16137695 C-77.12402459 352.88037739 -80.21826388 351.59645319 -83.3125 350.3125 C-84.36501953 349.87744141 -85.41753906 349.44238281 -86.50195312 348.99414062 C-92.56769712 346.47452389 -98.57423139 343.8665805 -104.52709961 341.09008789 C-107.06675592 339.97057309 -109.62685856 339.02954931 -112.25 338.125 C-119.39842073 335.57774585 -126.20293382 332.35352446 -133 329 C-133.76038574 328.62520508 -134.52077148 328.25041016 -135.30419922 327.86425781 C-158.07088433 316.52933539 -179.29674577 302.65059577 -200.34765625 288.44921875 C-205.89268281 284.71877534 -211.49257051 281.08016478 -217.10913086 277.45858765 C-226.63674476 271.30901035 -236.09680501 265.05677697 -245.5625 258.8125 C-246.53675934 258.17016418 -247.51101868 257.52782837 -248.51480103 256.86602783 C-259.9614747 249.31898426 -271.39719296 241.75690102 -282.79223633 234.13208008 C-294.68314191 226.18747343 -306.64200361 218.34526243 -318.59057617 210.48779297 C-327.4121481 204.68583472 -336.22702796 198.87527313 -345 193 C-344.34 192.67 -343.68 192.34 -343 192 C-341.20513916 192.71627808 -341.20513916 192.71627808 -338.97753906 193.92529297 C-338.12375671 194.38122833 -337.26997437 194.8371637 -336.39031982 195.30691528 C-334.96734589 196.07925003 -334.96734589 196.07925003 -333.515625 196.8671875 C-323.59653747 202.14679778 -313.60464373 207.24902081 -303.546875 212.2578125 C-302.08830693 212.98526849 -300.62977039 213.7127877 -299.17126465 214.44036865 C-294.69855964 216.67068932 -290.22440296 218.89808812 -285.75 221.125 C-280.51741916 223.7292988 -275.28559232 226.33509241 -270.05545807 228.94430161 C-268.01460933 229.96158792 -265.97253639 230.97638189 -263.93035889 231.99099731 C-256.8752273 235.50509044 -249.87673764 239.10876875 -242.91455078 242.80371094 C-233.20100588 247.949696 -223.35582155 252.80960481 -213.48379898 257.6428566 C-208.15648368 260.25516537 -202.83870011 262.88677935 -197.51953125 265.515625 C-190.82258655 268.82523902 -184.1230183 272.12899676 -177.41064453 275.40722656 C-171.91929004 278.08977893 -166.43954429 280.79487603 -160.96642685 283.514431 C-158.91119289 284.53082778 -156.85211395 285.53949641 -154.78879166 286.53937149 C-140.70149548 293.37292983 -128.52873614 301.36244957 -116.32665634 311.16805649 C-112.64043661 314.07048183 -108.82682576 316.78733598 -105 319.5 C-97.28807414 325.01158664 -89.74370341 330.72330831 -82.25390625 336.53320312 C-77.3203573 340.33502817 -72.34086365 343.7930149 -67 347 C-64.69 344.03 -62.38 341.06 -60 338 C-62.57775612 335.42224388 -64.77248833 333.29557375 -67.6171875 331.15234375 C-68.29934326 330.63526855 -68.98149902 330.11819336 -69.68432617 329.58544922 C-70.40724854 329.04162598 -71.1301709 328.49780273 -71.875 327.9375 C-73.41071988 326.77287826 -74.94586812 325.6075024 -76.48046875 324.44140625 C-77.24407715 323.86148926 -78.00768555 323.28157227 -78.79443359 322.68408203 C-83.66754571 318.9631691 -88.46997294 315.15240515 -93.28076172 311.3515625 C-95.05707808 309.95512862 -96.84185371 308.57016208 -98.62890625 307.1875 C-104.88460267 302.33641774 -110.95595642 297.397515 -116.78515625 292.03125 C-118.75839244 290.22158012 -120.77107813 288.48160109 -122.8125 286.75 C-130.74446809 279.83371075 -138.25140412 272.24272165 -145.0625 264.22265625 C-147.80194206 261.08003018 -150.65433779 258.04633067 -153.5 255 C-157.4952879 250.71752795 -161.4458365 246.41393665 -165.26953125 241.9765625 C-167.43037207 239.50842377 -169.65437702 237.10195991 -171.875 234.6875 C-175.12628694 231.12865889 -178.24039458 227.51480381 -181.25 223.75 C-185.53294476 218.43428842 -190.15731039 213.50523653 -194.84448242 208.55004883 C-199.00142162 204.1326343 -202.86660176 199.56133518 -206.65234375 194.8203125 C-210.5725735 190.11081852 -214.80119046 185.69029491 -218.9921875 181.22265625 C-221.8422557 178.18205669 -224.60488811 175.07651576 -227.328125 171.921875 C-229.35758073 169.58894926 -231.427647 167.29488755 -233.5 165 C-238.29907792 159.67665307 -243.0407795 154.31136661 -247.6796875 148.84765625 C-252.78744847 142.83961862 -257.94355008 136.90198672 -263.3125 131.125 C-263.81273682 130.58665527 -264.31297363 130.04831055 -264.82836914 129.49365234 C-265.31168701 128.97367676 -265.79500488 128.45370117 -266.29296875 127.91796875 C-268.59055615 125.44134857 -270.87516646 122.95749989 -273.125 120.4375 C-273.64320313 119.85871094 -274.16140625 119.27992188 -274.6953125 118.68359375 C-276.09126612 116.88222846 -277.05032943 115.06666404 -278 113 C-275.07356763 114.32856194 -272.9299237 115.79564177 -270.609375 118.01171875 C-269.98635498 118.60122314 -269.36333496 119.19072754 -268.72143555 119.7980957 C-268.07086182 120.42159912 -267.42028809 121.04510254 -266.75 121.6875 C-265.39797253 122.96703096 -264.04511712 124.24568767 -262.69140625 125.5234375 C-262.0483252 126.13155273 -261.40524414 126.73966797 -260.74267578 127.36621094 C-258.18169819 129.76717228 -255.54627532 132.07294729 -252.88671875 134.36328125 C-250.56341213 136.37873772 -248.28251535 138.43848462 -246 140.5 C-243.01937279 143.18983431 -240.02754767 145.86310364 -237 148.5 C-231.41020011 153.37143203 -225.92465102 158.3589515 -220.421875 163.328125 C-215.99878599 167.31704577 -211.55384995 171.27567907 -207.0625 175.1875 C-203.82624923 178.03147795 -200.63591332 180.92612701 -197.4375 183.8125 C-195.30582519 185.72554149 -193.1598089 187.61887612 -191 189.5 C-187.10348353 192.89374015 -183.26935055 196.35430003 -179.43359375 199.81640625 C-177.32488854 201.70848685 -175.20080199 203.57905758 -173.0625 205.4375 C-168.86835635 209.08937053 -164.76905708 212.84266184 -160.66015625 216.58984375 C-157.81244205 219.16993136 -154.92755982 221.70201856 -152.02734375 224.22265625 C-149.66510827 226.29359487 -147.33204147 228.39512848 -145 230.5 C-142.01937279 233.18983431 -139.02754767 235.86310364 -136 238.5 C-132.10487189 241.89253093 -128.27217237 245.35194201 -124.4375 248.8125 C-122.30582519 250.72554149 -120.1598089 252.61887612 -118 254.5 C-117.03707031 255.34691406 -117.03707031 255.34691406 -116.0546875 256.2109375 C-114.59460716 257.48226221 -113.11888318 258.735718 -111.6328125 259.9765625 C-105.25368119 265.44155038 -100.30603707 271.51585447 -95.34033203 278.22021484 C-92.98450872 281.34843925 -90.52000352 284.3889663 -88.0625 287.4375 C-82.78845071 294.00205297 -77.57331668 300.61055908 -72.38085938 307.23974609 C-70.94945737 309.06442935 -69.51428129 310.88608807 -68.078125 312.70703125 C-63.31228524 318.75254289 -58.57971363 324.81119779 -54 331 C-50.24245204 328.60883312 -47.08991672 326.19739209 -44 323 C-44.40089844 322.4738208 -44.80179688 321.9476416 -45.21484375 321.40551758 C-45.78332031 320.65939209 -46.35179688 319.9132666 -46.9375 319.14453125 C-47.57703613 318.305271 -48.21657227 317.46601074 -48.87548828 316.60131836 C-50.31186895 314.7158005 -51.74772746 312.82988477 -53.18310547 310.94360352 C-56.82118665 306.16412477 -60.46567164 301.3900414 -64.1328125 296.6328125 C-81.70750499 273.80133706 -96.53997719 250.62067969 -109.7746582 225.01318359 C-110.09112576 224.4011498 -110.40759332 223.789116 -110.7336508 223.15853572 C-118.95443923 207.24682301 -126.94599102 191.22060414 -134.93772292 175.19301653 C-137.04138917 170.97548865 -139.14780028 166.75933211 -141.25398254 162.5430603 C-146.56758159 151.90491766 -151.87770744 141.26504294 -157.1875 130.625 C-162.96265593 119.05255291 -168.73847613 107.4804396 -174.5181635 95.91025484 C-177.01184744 90.91793149 -179.5035847 85.92464305 -181.99378526 80.93058133 C-183.53761613 77.83544688 -185.08311383 74.74114697 -186.62905884 71.64706802 C-187.34246587 70.21838794 -188.05518365 68.78936345 -188.76714516 67.35996246 C-189.74179821 65.40339451 -190.71895288 63.44809517 -191.69670105 61.49307251 C-192.51368359 59.85577651 -192.51368359 59.85577651 -193.34717083 58.18540382 C-194.5878981 55.7942206 -195.88243094 53.52224027 -197.26895618 51.21918297 C-197.84020064 50.15685259 -198.4114451 49.09452221 -199 48 C-198.67 47.34 -198.34 46.68 -198 46 C-197.54488037 46.69520752 -197.08976074 47.39041504 -196.62084961 48.10668945 C-186.48178468 63.5925613 -176.32991039 79.06994094 -166.16256714 94.53726196 C-159.2705643 105.0219061 -152.38271806 115.50925853 -145.5 126 C-138.21268773 137.10703032 -130.92084733 148.21107416 -123.625 159.3125 C-123.14840942 160.03769836 -122.67181885 160.76289673 -122.18078613 161.5100708 C-117.80484063 168.1685961 -113.42859423 174.82692356 -109.05175781 181.48486328 C-108.5647641 182.22569153 -108.07777039 182.96651978 -107.57601929 183.72979736 C-106.59418916 185.2233009 -105.6122761 186.71674993 -104.63027954 188.21014404 C-102.2108536 191.8899509 -99.79320204 195.57089935 -97.37939453 199.25439453 C-92.8127772 206.220175 -88.22451319 213.16916418 -83.578125 220.08203125 C-75.58234836 232.01133919 -68.12990046 243.50806527 -63 257 C-62.23658689 258.71023916 -61.46200344 260.41551205 -60.6796875 262.1171875 C-57.31289964 269.44710849 -54.22238077 276.88944422 -51.10546875 284.328125 C-48.5361309 290.43663528 -45.89235194 296.49857243 -43.12939453 302.52197266 C-41.59491391 305.88880756 -40.13687572 309.28315238 -38.6875 312.6875 C-38.17574219 313.88761719 -37.66398437 315.08773437 -37.13671875 316.32421875 C-36.57404297 317.64873047 -36.57404297 317.64873047 -36 319 C-34.95199219 318.566875 -34.95199219 318.566875 -33.8828125 318.125 C-32.97273438 317.75375 -32.06265625 317.3825 -31.125 317 C-30.22007812 316.62875 -29.31515625 316.2575 -28.3828125 315.875 C-26 315 -26 315 -24 315 C-24.33040283 314.20551201 -24.33040283 314.20551201 -24.66748047 313.39497375 C-27.00811189 307.76493537 -29.34431823 302.13307437 -31.67822266 296.50024414 C-32.54400388 294.41223058 -33.41082695 292.32464864 -34.27880859 290.23754883 C-37.21713247 283.17093099 -40.12425251 276.09231522 -43 269 C-43.36512695 268.10424255 -43.73025391 267.20848511 -44.10644531 266.2855835 C-48.10053925 256.42043886 -51.57505232 246.513262 -54.42382812 236.25537109 C-54.72677544 235.16645097 -55.02972275 234.07753084 -55.34185028 232.95561314 C-58.29636247 222.17238439 -60.73264575 211.3098352 -63.03125 200.37109375 C-63.49304313 198.20162669 -63.9551732 196.03223132 -64.41760254 193.86289978 C-70.81364378 163.7434183 -76.89983178 133.5578653 -83.02864075 103.38314819 C-85.22718628 92.5590248 -87.42682749 81.73512743 -89.63218546 70.9123897 C-90.5093766 66.60678812 -91.38400768 62.30067775 -92.25648594 57.99411881 C-92.66609444 55.97434925 -93.07693598 53.9548351 -93.48831177 51.9354248 C-93.98491074 49.49760016 -94.4796522 47.05939595 -94.97201538 44.62071228 C-96.27382955 38.24882246 -97.71875208 31.9376904 -99.34725189 25.6410284 C-100.31922728 21.70840177 -101.02418611 17.74438199 -101.6875 13.75 C-101.81705078 12.99332031 -101.94660156 12.23664062 -102.08007812 11.45703125 C-102.39080321 9.63871409 -102.69603809 7.81945995 -103 6 C-101 7 -101 7 -99.73828125 10.7277832 C-99.25652515 12.39608714 -98.78180471 14.06643195 -98.3125 15.73828125 C-96.20770433 22.98877027 -94.01078094 30.1922859 -91.625 37.35546875 C-91.19000183 38.66162643 -91.19000183 38.66162643 -90.74621582 39.99417114 C-89.83342826 42.72616481 -88.91689978 45.45688399 -88 48.1875 C-87.34688604 50.1399341 -86.6938937 52.09240889 -86.04101562 54.04492188 C-80.44369751 70.76263443 -74.74384121 87.44507456 -69.03515625 104.125 C-66.65540255 111.078669 -64.27775472 118.03291142 -61.9375 125 C-61.69902344 125.70253906 -61.46054688 126.40507812 -61.21484375 127.12890625 C-59.84714086 131.2242439 -58.60439771 135.34589732 -57.40840149 139.49473572 C-54.31183651 150.21167644 -50.82794509 160.78662858 -47.28125 171.36206055 C-46.26222067 174.40105497 -45.2479039 177.44158917 -44.234375 180.48242188 C-43.90013016 181.48206467 -43.56588531 182.48170746 -43.22151184 183.51164246 C-42.53890018 185.5539749 -41.85849276 187.59704532 -41.18022156 189.64082336 C-39.4268303 194.89052143 -37.6055304 200.09892568 -35.64770508 205.27612305 C-29.53545242 221.64442455 -26.48380144 237.65179021 -24.1875 254.9375 C-23.83118643 257.48145856 -23.47246613 260.0250812 -23.11132812 262.56835938 C-22.40474203 267.56592008 -21.71131106 272.56501374 -21.02880859 277.56591797 C-19.45192699 289.0583772 -17.72162048 300.52849798 -16 312 C-11.71 312 -7.42 312 -3 312 C-3.3556604 309.16426392 -3.3556604 309.16426392 -3.71850586 306.27124023 C-4.50835716 299.96537984 -5.29419059 293.65902848 -6.07739925 287.35233974 C-6.55154933 283.53547066 -7.02721886 279.71880482 -7.5065918 275.90258789 C-7.97072805 272.20718502 -8.43057164 268.51126926 -8.8876667 264.81498909 C-9.06118214 263.41770135 -9.23614279 262.02059216 -9.41270256 260.62368584 C-12.78177724 233.93919815 -12.25165298 207.59839307 -10.79296875 180.79296875 C-10.65950787 178.25848803 -10.52622836 175.72399775 -10.39311218 173.1894989 C-8.70300426 141.3939532 -6.7337048 109.61377463 -4.7754811 77.83385265 C-4.25055798 69.312981 -3.72929554 60.79188634 -3.20821059 52.27077925 C-2.14262839 34.84695069 -1.072858 17.42338206 0 0 Z " fill="#0538A0" transform="translate(2499,2108)"/>
<path d="M0 0 C0.33 0.66 0.66 1.32 1 2 C-0.07421875 4.78515625 -0.07421875 4.78515625 -1.6875 8.0625 C-2.20699219 9.14660156 -2.72648437 10.23070313 -3.26171875 11.34765625 C-5 14 -5 14 -7.20703125 14.87109375 C-8.09455078 14.93490234 -8.09455078 14.93490234 -9 15 C-7.61219205 11.10993227 -5.7847773 8.03441292 -3.375 4.6875 C-2.74335938 3.80449219 -2.11171875 2.92148438 -1.4609375 2.01171875 C-0.97882812 1.34785156 -0.49671875 0.68398437 0 0 Z " fill="#1D4AA8" transform="translate(2697,2157)"/>
<path d="M0 0 C8.415 1.485 8.415 1.485 17 3 C16.01 3.495 16.01 3.495 15 4 C14.67 4.66 14.34 5.32 14 6 C11.85144546 5.3844197 9.70620375 4.75726569 7.5625 4.125 C6.36753906 3.77695313 5.17257813 3.42890625 3.94140625 3.0703125 C1 2 1 2 0 0 Z " fill="#4166B4" transform="translate(2114,2396)"/>
<path d="M0 0 C0.33 0 0.66 0 1 0 C1.99 5.28 2.98 10.56 4 16 C1.35011506 14.67505753 1.26061768 13.57360369 0.3125 10.8125 C-0.94938953 6.86278577 -1.14671681 4.06563234 0 0 Z " fill="#4368B5" transform="translate(2600,2870)"/>
<path d="M0 0 C0.66 0.33 1.32 0.66 2 1 C2 1.66 2 2.32 2 3 C0.38007835 3.86375896 -1.24611861 4.71575854 -2.875 5.5625 C-4.23238281 6.27599609 -4.23238281 6.27599609 -5.6171875 7.00390625 C-6.40351563 7.33261719 -7.18984375 7.66132813 -8 8 C-8.66 7.67 -9.32 7.34 -10 7 C-6.7 4.69 -3.4 2.38 0 0 Z " fill="#1A48A7" transform="translate(2167,2690)"/>
<path d="M0 0 C4.49797113 1.68673918 8.72886302 3.81673892 13 6 C12.67 6.99 12.34 7.98 12 9 C9.997193 7.69161864 7.99773901 6.37857806 6 5.0625 C5.42765625 4.68931641 4.8553125 4.31613281 4.265625 3.93164062 C2.82614271 2.98055411 1.41085511 1.99305724 0 1 C0 0.67 0 0.34 0 0 Z " fill="#2954AC" transform="translate(2154,2300)"/>
<path d="M0 0 C0.99 0.33 1.98 0.66 3 1 C0.36 3.64 -2.28 6.28 -5 9 C-5.66 8.67 -6.32 8.34 -7 8 C-4.69 5.36 -2.38 2.72 0 0 Z " fill="#4267B4" transform="translate(2224,2774)"/>
<path d="M0 0 C3 1 3 1 4.75 3.9375 C5.1625 4.948125 5.575 5.95875 6 7 C5.67 7.66 5.34 8.32 5 9 C4.16094435 7.87926138 3.32892169 6.75325453 2.5 5.625 C2.0359375 4.99851562 1.571875 4.37203125 1.09375 3.7265625 C0 2 0 2 0 0 Z " fill="#1C49A8" transform="translate(2692,2834)"/>
</svg>
