<?xml version="1.0" standalone="no"?>
<!DOCTYPE svg PUBLIC "-//W3C//DTD SVG 20010904//EN"
 "http://www.w3.org/TR/2001/REC-SVG-20010904/DTD/svg10.dtd">
<svg version="1.0" xmlns="http://www.w3.org/2000/svg"
 width="5000.000000pt" height="5000.000000pt" viewBox="0 0 5000.000000 5000.000000"
 preserveAspectRatio="xMidYMid meet">

<g transform="translate(0.000000,5000.000000) scale(0.100000,-0.100000)"
fill="#000000" stroke="none">
<path d="M24705 29633 c-649 -42 -1256 -205 -1815 -488 -1069 -543 -1899
-1519 -2290 -2695 -355 -1066 -326 -2182 82 -3190 339 -835 963 -1600 1721
-2109 255 -171 601 -355 867 -460 787 -311 1648 -405 2478 -271 1424 230 2660
1113 3355 2395 498 918 657 2024 442 3080 -273 1344 -1095 2497 -2250 3156
-685 391 -1486 594 -2320 587 -121 -1 -242 -3 -270 -5z m545 -579 l66 -7 11
-57 c14 -73 35 -104 91 -137 37 -22 58 -27 111 -27 104 0 174 48 196 137 9 33
13 34 156 1 164 -36 427 -113 458 -133 11 -7 14 -27 12 -74 -3 -72 10 -105 56
-149 39 -37 93 -58 153 -58 68 0 109 19 153 71 l37 43 48 -23 c116 -56 460
-259 500 -296 2 -2 -3 -16 -11 -32 -44 -83 -29 -165 43 -234 80 -78 189 -85
273 -18 l37 30 226 -225 226 -225 -30 -38 c-42 -52 -55 -108 -42 -171 13 -56
63 -123 114 -149 41 -22 132 -21 174 1 19 10 35 16 36 14 65 -82 316 -515 316
-546 0 -6 -15 -20 -33 -31 -102 -63 -104 -240 -4 -328 41 -36 86 -48 158 -41
l49 5 37 -116 c41 -132 108 -393 118 -462 7 -45 6 -46 -22 -52 -84 -17 -138
-94 -138 -197 0 -116 61 -188 170 -200 l50 -5 6 -60 c9 -81 11 -414 3 -508
l-7 -75 -46 -7 c-69 -10 -117 -39 -146 -89 -69 -117 -27 -263 86 -303 l50 -18
-6 -43 c-17 -114 -136 -546 -155 -566 -5 -5 -38 -8 -74 -7 -71 3 -105 -10
-147 -56 -43 -46 -59 -87 -59 -154 0 -73 27 -129 77 -160 18 -11 33 -26 33
-32 0 -19 -148 -285 -234 -420 -60 -94 -85 -126 -96 -121 -117 51 -191 38
-263 -46 -71 -84 -71 -195 1 -272 l25 -27 -226 -226 -227 -226 -37 30 c-97 77
-239 52 -307 -52 -43 -67 -43 -119 -2 -217 6 -16 2 -19 -159 -121 -105 -66
-366 -209 -382 -209 -6 0 -21 16 -34 35 -63 92 -224 101 -312 17 -46 -44 -59
-77 -56 -150 l2 -66 -41 -17 c-86 -37 -512 -149 -565 -149 -8 0 -18 12 -22 28
-22 88 -92 136 -196 136 -53 0 -74 -5 -111 -27 -56 -33 -77 -64 -91 -137 l-11
-57 -66 -7 c-83 -8 -448 -6 -519 2 l-54 7 -4 45 c-10 107 -91 175 -208 175
-97 0 -176 -56 -192 -137 -3 -16 -12 -28 -19 -28 -49 0 -340 73 -520 131 l-91
29 5 49 c7 72 -5 117 -41 158 -88 100 -265 98 -328 -4 -11 -18 -25 -33 -30
-33 -37 0 -550 298 -549 318 1 4 7 18 15 32 17 30 19 127 4 167 -27 71 -113
126 -199 126 -60 0 -90 -11 -132 -51 l-27 -25 -226 226 -227 226 33 41 c29 36
34 50 37 109 4 74 -9 113 -57 164 -65 71 -140 81 -251 33 -12 -5 -31 18 -76
86 -75 115 -170 278 -220 380 l-38 78 43 37 c53 45 71 85 71 155 0 66 -26 124
-73 165 -41 36 -86 48 -158 41 l-49 -5 -36 111 c-40 126 -111 399 -120 469 -5
36 -3 47 6 47 8 0 33 9 57 21 80 38 118 143 89 241 -25 84 -78 130 -167 143
l-46 7 -7 60 c-8 78 -6 468 2 533 l7 50 51 5 c84 9 134 51 160 139 29 95 -4
191 -79 236 -24 14 -52 25 -62 25 -15 0 -17 6 -11 49 9 70 78 338 120 467 l36
111 54 -5 c93 -8 167 31 206 109 25 49 26 130 1 184 -18 40 -72 95 -93 95 -14
0 116 245 211 397 111 179 102 168 137 151 104 -53 223 -10 279 101 13 25 16
52 13 102 -3 58 -8 73 -35 107 l-31 39 108 117 c59 65 161 167 226 227 l118
109 26 -24 c40 -38 71 -49 130 -49 98 0 182 62 205 151 14 51 8 109 -15 151
-15 29 -23 22 152 131 130 82 366 210 386 210 5 0 20 -15 32 -34 28 -46 92
-76 161 -76 67 0 124 26 166 73 36 41 48 86 41 158 l-5 49 131 42 c147 46 376
105 449 114 40 6 47 4 47 -10 0 -29 39 -94 69 -116 50 -35 126 -46 191 -27 87
26 135 82 143 168 4 44 4 44 48 50 61 8 449 10 529 3z"/>
<path d="M24991 28875 c-1 -28 -23 -415 -51 -861 -85 -1384 -84 -1349 -14
-1912 20 -161 35 -294 33 -296 -2 -2 -33 -5 -69 -7 l-65 -4 -61 421 -62 421
-358 1081 c-197 595 -360 1080 -362 1078 -2 -3 5 -49 17 -103 11 -54 92 -451
181 -883 268 -1309 255 -1260 459 -1759 62 -150 109 -277 104 -280 -4 -4 -32
-17 -61 -29 l-53 -21 -19 42 c-10 23 -88 202 -173 397 l-154 355 -627 955
c-345 525 -632 960 -638 965 -23 23 958 -1922 1033 -2048 46 -77 177 -263 296
-420 l212 -282 -27 -23 c-15 -13 -38 -31 -53 -42 l-25 -19 -260 330 -259 329
-849 758 c-466 416 -862 768 -880 782 l-31 25 30 -36 c46 -56 997 -1130 1194
-1349 334 -371 384 -417 768 -714 l232 -180 -19 -25 c-11 -15 -29 -38 -42 -53
l-23 -27 -340 253 -340 253 -1047 527 c-577 290 -1048 525 -1048 522 0 -2 17
-15 38 -27 20 -13 361 -238 757 -500 1180 -780 1157 -766 1635 -967 118 -50
236 -100 262 -111 l47 -20 -21 -53 c-12 -29 -25 -57 -29 -61 -3 -5 -182 61
-395 146 l-389 155 -1120 232 c-616 127 -1131 234 -1145 237 -59 12 1874 -631
2045 -680 232 -67 289 -78 675 -130 l305 -42 -3 -60 c-2 -33 -7 -64 -12 -68
-4 -5 -187 13 -406 38 -220 26 -421 47 -449 47 -87 -1 -2229 -124 -2245 -130
-8 -3 118 -13 280 -23 162 -10 556 -34 875 -53 1080 -66 1115 -66 1642 0 169
21 298 33 302 28 5 -5 11 -35 14 -66 5 -54 4 -58 -16 -63 -12 -3 -203 -32
-424 -64 l-402 -59 -1099 -364 c-605 -199 -1099 -364 -1098 -365 4 -4 1877
382 2052 422 279 65 344 87 768 259 131 54 242 94 246 89 3 -4 16 -32 28 -61
l21 -53 -52 -23 c-29 -12 -203 -87 -387 -166 l-335 -144 -975 -639 c-536 -352
-979 -644 -985 -649 -15 -15 1788 889 1950 978 187 102 316 189 590 398 149
114 233 172 240 166 6 -5 25 -29 42 -52 l31 -43 -330 -260 -330 -260 -761
-855 c-890 -1001 -812 -912 -765 -875 43 35 1075 951 1363 1210 343 309 413
384 729 792 l149 192 44 -31 c24 -18 48 -37 53 -43 5 -6 -87 -138 -243 -348
l-252 -338 -524 -1042 c-288 -573 -519 -1037 -514 -1032 9 9 272 405 888 1340
378 574 404 621 612 1115 52 124 99 233 104 242 8 16 13 15 62 -4 28 -12 55
-24 60 -28 4 -3 -62 -182 -148 -397 l-155 -391 -230 -1112 c-126 -612 -230
-1118 -229 -1124 1 -13 532 1570 620 1849 107 339 131 457 200 983 l23 172 65
-6 c36 -4 68 -8 70 -10 2 -2 -19 -191 -46 -421 l-50 -418 66 -1138 c36 -626
69 -1130 72 -1120 8 22 107 1675 119 1988 10 269 1 427 -45 791 -19 155 -35
291 -35 301 0 17 9 21 62 26 35 3 65 3 68 1 2 -3 32 -193 65 -422 l62 -417
359 -1088 c197 -598 360 -1084 361 -1080 2 5 -58 308 -132 673 -331 1625 -311
1548 -511 2042 -68 169 -124 310 -124 313 0 10 114 55 121 48 4 -5 78 -172
164 -373 87 -201 164 -378 172 -394 18 -34 1271 -1946 1285 -1961 15 -15 -890
1790 -972 1939 -101 185 -177 297 -393 584 -149 198 -188 256 -177 262 8 5 33
22 55 40 39 31 39 31 55 11 8 -11 125 -160 260 -331 l245 -310 855 -763 c469
-419 865 -771 880 -781 l25 -20 -21 25 c-12 13 -162 184 -335 379 -1073 1213
-1123 1267 -1265 1394 -70 62 -460 373 -591 471 -12 9 -9 18 17 50 18 22 35
46 40 54 5 10 95 -51 351 -241 l344 -255 1040 -523 c572 -287 1036 -518 1030
-512 -11 11 -1264 840 -1560 1032 -362 234 -470 292 -845 448 -118 50 -236 99
-262 111 l-48 20 21 53 c11 29 24 57 28 61 5 4 184 -62 398 -147 l390 -154
1117 -232 c615 -127 1119 -230 1121 -228 5 5 -1871 629 -2036 677 -190 55
-292 74 -634 121 -165 23 -308 43 -317 46 -15 4 -17 14 -11 67 3 34 7 64 9 66
2 2 183 -17 402 -43 219 -25 436 -46 483 -45 136 0 2235 125 2219 132 -8 3
-71 8 -140 11 -69 4 -458 27 -865 51 -1239 75 -1268 75 -1800 9 -163 -20 -298
-35 -299 -33 -2 2 -5 33 -7 69 l-4 64 421 62 421 62 1081 358 c595 197 1080
359 1078 362 -5 5 -1763 -356 -1996 -410 -296 -68 -380 -97 -834 -282 -104
-43 -192 -74 -197 -69 -4 4 -17 32 -28 61 l-21 53 32 14 c18 7 197 85 398 172
l365 159 955 628 c525 345 960 633 965 638 15 15 -1787 -888 -1939 -972 -184
-100 -292 -174 -573 -386 -185 -141 -247 -184 -253 -173 -5 8 -22 32 -40 54
-31 38 -31 39 -11 55 11 8 160 125 331 260 l310 245 757 849 c417 468 769 864
783 880 l25 31 -31 -25 c-58 -46 -1336 -1182 -1517 -1348 -217 -200 -297 -289
-537 -600 -104 -133 -191 -244 -195 -245 -7 -2 -104 65 -104 73 -1 3 113 158
252 345 l254 340 527 1050 c291 578 524 1046 518 1040 -5 -5 -137 -203 -292
-440 -156 -236 -399 -606 -541 -822 -445 -675 -486 -748 -679 -1213 -56 -135
-105 -248 -108 -252 -7 -6 -104 30 -117 44 -4 4 63 181 148 395 l155 388 232
1123 c128 618 230 1125 228 1127 -6 6 -620 -1847 -673 -2028 -60 -210 -86
-345 -131 -684 -21 -156 -40 -287 -43 -292 -4 -5 -34 -7 -69 -4 -55 5 -62 8
-62 27 0 12 16 145 35 296 47 364 56 513 45 783 -15 376 -111 1981 -120 2002
-6 15 -9 6 -9 -30z"/>
<path d="M23971 28824 c0 -11 3 -14 6 -6 3 7 2 16 -1 19 -3 4 -6 -2 -5 -13z"/>
<path d="M1800 14685 l0 -5155 23200 0 23200 0 0 5155 0 5155 -23200 0 -23200
0 0 -5155z"/>
</g>
</svg>
