<svg width="253" height="252" viewBox="0 0 253 252" fill="none" xmlns="http://www.w3.org/2000/svg">
<path d="M232.722 126C232.722 184.488 185.157 232 126.361 232C67.5655 232 20 184.488 20 126C20 67.5117 67.5655 20 126.361 20C185.157 20 232.722 67.5117 232.722 126Z" stroke="#B24242" stroke-width="40"/>
<rect width="285.271" height="70.8583" rx="12" transform="matrix(0.708249 -0.705963 0.707638 0.706575 0.537445 201.927)" fill="#C65252"/>
<path d="M52.3237 224.272C52.0754 224.521 51.7927 224.646 51.4755 224.648C51.1583 224.649 50.8747 224.525 50.6246 224.278L28.4576 202.322C28.2075 202.074 28.0819 201.792 28.0808 201.476C28.0796 201.159 28.2032 200.876 28.4515 200.627L37.4242 191.611C40.2458 188.775 43.1285 187.194 46.0724 186.867C48.9935 186.518 51.6818 187.559 54.1372 189.991C55.7969 191.635 56.7888 193.405 57.1127 195.303C57.4367 197.2 57.2057 199.088 56.4195 200.967L69.7194 204.614C69.9235 204.681 70.0825 204.771 70.1961 204.884C70.378 205.064 70.4808 205.301 70.5045 205.594C70.5055 205.866 70.4044 206.103 70.2013 206.307L66.4429 210.084C66.0366 210.492 65.6296 210.697 65.2218 210.699C64.7913 210.678 64.4399 210.622 64.1678 210.533L52.2273 206.948L48.1304 211.065L56.0082 218.868C56.2583 219.116 56.3839 219.398 56.3851 219.714C56.3862 220.031 56.2626 220.314 56.0143 220.563L52.3237 224.272ZM43.7993 206.775L48.1333 202.42C49.3748 201.173 50.0048 199.973 50.0233 198.82C50.0644 197.645 49.5733 196.55 48.5503 195.537C47.5272 194.524 46.4266 194.019 45.2486 194.023C44.0706 194.028 42.8495 194.665 41.5855 195.935L37.2515 200.29L43.7993 206.775ZM75.4034 201.08C75.1551 201.33 74.8723 201.455 74.5552 201.456C74.238 201.457 73.9544 201.334 73.7043 201.086L51.5373 179.13C51.2872 178.883 51.1616 178.6 51.1605 178.284C51.1593 177.968 51.2829 177.685 51.5312 177.435L66.8694 162.023C67.1177 161.773 67.4004 161.648 67.7175 161.647C68.0347 161.646 68.3183 161.769 68.5684 162.017L71.2967 164.719C71.524 164.944 71.6383 165.215 71.6394 165.531C71.6405 165.848 71.517 166.131 71.2687 166.38L60.2983 177.404L65.6525 182.707L75.8779 172.432C76.1262 172.182 76.409 172.057 76.7261 172.056C77.0433 172.055 77.3269 172.178 77.577 172.426L80.1006 174.925C80.328 175.151 80.4422 175.421 80.4434 175.738C80.4445 176.054 80.3209 176.337 80.0726 176.587L69.8472 186.862L75.3719 192.334L86.6131 181.038C86.8614 180.789 87.1441 180.663 87.4613 180.662C87.7784 180.661 88.0621 180.784 88.3121 181.032L91.0063 183.7C91.2564 183.948 91.382 184.23 91.3831 184.547C91.3843 184.863 91.2607 185.146 91.0124 185.395L75.4034 201.08ZM104.148 172.877C102.884 174.147 101.529 175.191 100.082 176.01C98.6347 176.829 97.1528 177.365 95.6359 177.619C94.0962 177.851 92.5894 177.755 91.1153 177.331C89.6638 176.884 88.2789 176.053 86.9606 174.837C86.756 174.634 86.6532 174.397 86.6522 174.126C86.6285 173.832 86.7295 173.572 86.9552 173.345L90.8151 169.467C91.1086 169.172 91.4139 169.024 91.731 169.023C92.0708 168.999 92.4336 169.088 92.8194 169.29C93.6598 169.897 94.4879 170.244 95.3038 170.332C96.1197 170.419 96.9122 170.303 97.6813 169.984C98.4502 169.62 99.1846 169.086 99.8843 168.383C101.171 167.09 101.732 165.687 101.568 164.173C101.427 162.637 100.583 161.103 99.037 159.572L88.6015 149.236L77.3264 160.565C77.1007 160.792 76.8293 160.906 76.5121 160.907C76.195 160.908 75.9227 160.796 75.6953 160.571L72.8307 157.734C72.5806 157.486 72.455 157.204 72.4538 156.888C72.4527 156.571 72.565 156.3 72.7907 156.073L88.7383 140.048C88.9866 139.798 89.2694 139.673 89.5865 139.672C89.9037 139.671 90.1873 139.794 90.4374 140.042L104.692 154.161C106.648 156.098 107.901 158.15 108.453 160.318C108.981 162.463 108.876 164.61 108.136 166.76C107.396 168.91 106.067 170.949 104.148 172.877ZM119.116 157.156C118.868 157.405 118.585 157.531 118.268 157.532C117.951 157.533 117.667 157.41 117.417 157.162L95.2499 135.206C94.9998 134.958 94.8742 134.676 94.873 134.36C94.8719 134.043 94.9955 133.76 95.2438 133.511L110.582 118.099C110.83 117.849 111.113 117.724 111.43 117.723C111.747 117.721 112.031 117.845 112.281 118.092L115.009 120.795C115.237 121.02 115.351 121.291 115.352 121.607C115.353 121.923 115.229 122.206 114.981 122.456L104.011 133.479L109.365 138.783L119.59 128.508C119.839 128.258 120.122 128.133 120.439 128.132C120.756 128.131 121.039 128.254 121.29 128.502L123.813 131.001C124.041 131.226 124.155 131.497 124.156 131.814C124.157 132.13 124.033 132.413 123.785 132.662L113.56 142.937L119.084 148.409L130.326 137.114C130.574 136.864 130.857 136.739 131.174 136.738C131.491 136.737 131.775 136.86 132.025 137.108L134.719 139.776C134.969 140.024 135.095 140.306 135.096 140.622C135.097 140.939 134.973 141.222 134.725 141.471L119.116 157.156ZM149.152 127.655C147.03 129.787 144.872 131.252 142.677 132.051C140.483 132.805 138.297 132.914 136.12 132.38C133.921 131.823 131.787 130.61 129.719 128.742C128.764 127.841 127.752 126.862 126.684 125.803C125.615 124.745 124.603 123.72 123.648 122.729C121.783 120.702 120.575 118.604 120.024 116.436C119.472 114.224 119.577 112.008 120.339 109.791C121.102 107.573 122.521 105.421 124.598 103.334C126.11 101.814 127.68 100.622 129.308 99.7576C130.936 98.8929 132.566 98.3672 134.196 98.1806C135.827 97.9939 137.379 98.1352 138.853 98.6045C140.327 99.0738 141.689 99.8825 142.94 101.031C143.144 101.233 143.236 101.482 143.214 101.776C143.215 102.047 143.114 102.284 142.911 102.489L139.051 106.367C138.78 106.639 138.497 106.787 138.203 106.811C137.909 106.835 137.557 106.734 137.148 106.51C135.469 105.521 133.983 105.176 132.693 105.475C131.403 105.773 130.171 106.512 128.997 107.692C127.598 109.098 126.878 110.592 126.839 112.174C126.799 113.757 127.643 115.471 129.372 117.318C131.168 119.233 133.078 121.124 135.101 122.993C136.965 124.704 138.69 125.534 140.275 125.483C141.861 125.432 143.353 124.704 144.753 123.297C145.927 122.118 146.658 120.883 146.948 119.594C147.238 118.26 146.882 116.781 145.879 115.157C145.628 114.728 145.525 114.378 145.569 114.107C145.591 113.813 145.737 113.53 146.008 113.258L149.868 109.379C150.071 109.175 150.309 109.073 150.58 109.072C150.875 109.048 151.124 109.138 151.329 109.34C152.489 110.579 153.309 111.932 153.79 113.399C154.271 114.867 154.424 116.414 154.249 118.042C154.073 119.67 153.558 121.299 152.703 122.93C151.848 124.56 150.664 126.135 149.152 127.655ZM168.936 107.095C168.687 107.344 168.404 107.47 168.087 107.471C167.77 107.472 167.487 107.349 167.236 107.101L148.957 88.9958L142.795 95.188C142.569 95.4148 142.298 95.5288 141.981 95.53C141.663 95.5311 141.391 95.4191 141.164 95.1939L138.095 92.1538C137.844 91.9061 137.719 91.6241 137.718 91.3077C137.717 90.9913 137.829 90.7197 138.055 90.4928L155.797 72.6648C156.045 72.4153 156.328 72.2899 156.645 72.2888C156.962 72.2877 157.246 72.4109 157.496 72.6587L160.565 75.6987C160.792 75.9239 160.907 76.1947 160.908 76.5111C160.909 76.8275 160.785 77.1105 160.537 77.36L154.409 83.5181L172.688 101.623C172.938 101.871 173.063 102.153 173.065 102.47C173.066 102.786 172.942 103.069 172.694 103.318L168.936 107.095ZM184.619 91.3359C184.37 91.5854 184.088 91.7107 183.77 91.7119C183.453 91.713 183.17 91.5897 182.92 91.342L160.753 69.3861C160.502 69.1384 160.377 68.8563 160.376 68.5399C160.375 68.2235 160.498 67.9405 160.746 67.691L176.085 52.2786C176.333 52.0291 176.616 51.9038 176.933 51.9026C177.25 51.9015 177.534 52.0248 177.784 52.2725L180.512 54.9748C180.739 55.1999 180.853 55.4707 180.855 55.7871C180.856 56.1036 180.732 56.3865 180.484 56.636L169.514 67.6595L174.868 72.9627L185.093 62.6877C185.341 62.4382 185.624 62.3129 185.941 62.3118C186.259 62.3106 186.542 62.4339 186.792 62.6816L189.316 65.1812C189.543 65.4064 189.657 65.6772 189.659 65.9936C189.66 66.31 189.536 66.593 189.288 66.8425L179.062 77.1174L184.587 82.5895L195.828 71.2939C196.077 71.0444 196.359 70.9191 196.676 70.9179C196.994 70.9168 197.277 71.0401 197.527 71.2878L200.222 73.9563C200.472 74.204 200.597 74.486 200.598 74.8024C200.599 75.1188 200.476 75.4018 200.228 75.6513L184.619 91.3359ZM205.946 69.9054C205.698 70.1549 205.415 70.2802 205.098 70.2814C204.78 70.2825 204.497 70.1592 204.247 69.9115L182.08 47.9555C181.83 47.7078 181.704 47.4258 181.703 47.1094C181.702 46.793 181.825 46.51 182.074 46.2605L190.572 37.7207C192.83 35.4525 195.078 33.9189 197.318 33.1198C199.535 32.2982 201.732 32.1773 203.909 32.7571C206.086 33.2916 208.209 34.5383 210.277 36.4972C211.3 37.4653 212.187 38.321 212.937 39.0641C213.687 39.8072 214.54 40.6743 215.495 41.6653C217.542 43.8276 218.875 45.9811 219.494 48.126C220.113 50.2708 220.019 52.4295 219.211 54.6021C218.381 56.7522 216.848 58.95 214.614 61.1955L205.946 69.9054ZM206.084 60.9889L210.045 57.0082C211.174 55.8741 211.929 54.7752 212.31 53.7116C212.691 52.648 212.688 51.5858 212.299 50.525C211.909 49.4189 211.135 48.2691 209.975 47.0754C209.339 46.3997 208.759 45.8028 208.236 45.2849C207.736 44.7443 207.213 44.2264 206.667 43.7311C206.144 43.2132 205.553 42.6503 204.894 42.0424C203.144 40.3989 201.453 39.6026 199.822 39.6537C198.191 39.6596 196.518 40.5244 194.802 42.2483L191.01 46.0588L206.084 60.9889Z" fill="white"/>
</svg>
