<svg width="24" height="24" viewBox="0 0 24 24" fill="none" xmlns="http://www.w3.org/2000/svg">
<g clip-path="url(#clip0_872_11045)">
<path d="M12 0C9.62663 0 7.30655 0.703788 5.33316 2.02236C3.35977 3.34094 1.8217 5.21509 0.913451 7.4078C0.00519937 9.60051 -0.232441 12.0133 0.230582 14.3411C0.693605 16.6689 1.83649 18.8071 3.51472 20.4853C5.19295 22.1635 7.33115 23.3064 9.65892 23.7694C11.9867 24.2324 14.3995 23.9948 16.5922 23.0866C18.7849 22.1783 20.6591 20.6402 21.9776 18.6668C23.2962 16.6935 24 14.3734 24 12C23.9965 8.81847 22.7311 5.76824 20.4814 3.51856C18.2318 1.26887 15.1815 0.0034741 12 0V0ZM12 23.25C9.77497 23.25 7.59989 22.5902 5.74984 21.354C3.89979 20.1179 2.45785 18.3609 1.60636 16.3052C0.754875 14.2495 0.532087 11.9875 0.966171 9.80523C1.40025 7.62295 2.47171 5.61839 4.04505 4.04505C5.61839 2.47171 7.62295 1.40025 9.80524 0.966166C11.9875 0.532082 14.2495 0.754869 16.3052 1.60636C18.3609 2.45784 20.1179 3.89978 21.354 5.74984C22.5902 7.59989 23.25 9.77496 23.25 12C23.2465 14.9826 22.0602 17.8421 19.9511 19.9511C17.8421 22.0601 14.9826 23.2465 12 23.25Z" fill="#5297F8"/>
<path d="M14.7188 6.375H5.71875C5.61929 6.375 5.52391 6.41451 5.45359 6.48483C5.38326 6.55516 5.34375 6.65054 5.34375 6.75C5.34375 6.84946 5.38326 6.94484 5.45359 7.01517C5.52391 7.08549 5.61929 7.125 5.71875 7.125H14.7188C15.763 7.125 16.7646 7.53984 17.503 8.27827C18.2414 9.01669 18.6562 10.0182 18.6562 11.0625C18.6562 12.1068 18.2414 13.1083 17.503 13.8467C16.7646 14.5852 15.763 15 14.7188 15H6.62438L10.1119 11.5162C10.1468 11.4814 10.1746 11.44 10.1936 11.3945C10.2125 11.3489 10.2223 11.3 10.2224 11.2507C10.2225 11.2013 10.2129 11.1524 10.1941 11.1068C10.1753 11.0611 10.1477 11.0197 10.1128 10.9847C10.078 10.9497 10.0366 10.922 9.99101 10.903C9.94545 10.884 9.89659 10.8742 9.84723 10.8741C9.79787 10.874 9.74897 10.8837 9.70334 10.9025C9.6577 10.9213 9.61621 10.9489 9.58125 10.9838L5.45625 15.1088L5.44125 15.1275C5.42918 15.1394 5.41848 15.1526 5.40938 15.1669L5.39813 15.1856L5.37375 15.2306V15.2531C5.37375 15.27 5.3625 15.285 5.35875 15.3C5.34865 15.3495 5.34865 15.4005 5.35875 15.45C5.35875 15.465 5.36812 15.48 5.37375 15.4969V15.5194L5.39813 15.5644L5.40938 15.5831C5.41894 15.5977 5.4296 15.6114 5.44125 15.6244C5.44671 15.6296 5.45172 15.6352 5.45625 15.6412L9.58125 19.7662C9.61608 19.8011 9.65744 19.8288 9.70296 19.8476C9.74848 19.8665 9.79728 19.8762 9.84656 19.8762C9.89584 19.8762 9.94464 19.8665 9.99016 19.8476C10.0357 19.8288 10.077 19.8011 10.1119 19.7662C10.1467 19.7314 10.1744 19.6901 10.1933 19.6445C10.2121 19.599 10.2219 19.5502 10.2219 19.5009C10.2219 19.4517 10.2121 19.4029 10.1933 19.3573C10.1744 19.3118 10.1467 19.2705 10.1119 19.2356L6.62438 15.75H14.7188C15.962 15.75 17.1542 15.2561 18.0333 14.3771C18.9124 13.498 19.4062 12.3057 19.4062 11.0625C19.4062 9.8193 18.9124 8.62701 18.0333 7.74794C17.1542 6.86886 15.962 6.375 14.7188 6.375Z" fill="#5297F8"/>
</g>
<defs>
<clipPath id="clip0_872_11045">
<rect width="24" height="24" fill="white"/>
</clipPath>
</defs>
</svg>
