<svg width="281" height="304" viewBox="0 0 281 304" fill="none" xmlns="http://www.w3.org/2000/svg">
<g clip-path="url(#clip0_0_2472)">
<path fill-rule="evenodd" clip-rule="evenodd" d="M8.94116 234.457H24.8366V226.51H8.94116V234.457Z" fill="#EBEBEB"/>
<path fill-rule="evenodd" clip-rule="evenodd" d="M0 245.386H15.8954V237.438H0V245.386Z" fill="#EBEBEB"/>
<path fill-rule="evenodd" clip-rule="evenodd" d="M20.8628 245.386H36.7582V237.438H20.8628V245.386Z" fill="#EBEBEB"/>
<path fill-rule="evenodd" clip-rule="evenodd" d="M244.392 37.7517H260.288V29.804H244.392V37.7517Z" fill="#EBEBEB"/>
<path fill-rule="evenodd" clip-rule="evenodd" d="M250.353 47.6862H266.248V39.7385H250.353V47.6862Z" fill="#EBEBEB"/>
<path fill-rule="evenodd" clip-rule="evenodd" d="M0 37.7517H15.8954V29.804H0V37.7517Z" fill="#EBEBEB"/>
<path fill-rule="evenodd" clip-rule="evenodd" d="M191.739 173.856H207.634V165.908H191.739V173.856Z" fill="#EBEBEB"/>
<path fill-rule="evenodd" clip-rule="evenodd" d="M145.046 86.4314H160.941V78.4836H145.046V86.4314Z" fill="#EBEBEB"/>
<path fill-rule="evenodd" clip-rule="evenodd" d="M155.974 79.4771H171.869V71.5294H155.974V79.4771Z" fill="#EBEBEB"/>
<mask id="mask0_0_2472" style="mask-type:alpha" maskUnits="userSpaceOnUse" x="27" y="0" width="2" height="72">
<path fill-rule="evenodd" clip-rule="evenodd" d="M27.9124 0.0913086H28.4091V71.952H27.9124V0.0913086Z" fill="white"/>
</mask>
<g mask="url(#mask0_0_2472)">
<path d="M28.1607 71.9521V0.0913086" stroke="#C7C7C7"/>
</g>
<path fill-rule="evenodd" clip-rule="evenodd" d="M54.6405 94.4432L52.6028 98.3529H6.00551L3.97388 94.4432L23.8123 82.4575H34.8022L54.6405 94.4432Z" fill="#EBEBEB"/>
<path fill-rule="evenodd" clip-rule="evenodd" d="M36.7581 70.5359L35.3644 82.4575H24.2426L22.8496 70.5359H36.7581Z" fill="#DBDBDB"/>
<path fill-rule="evenodd" clip-rule="evenodd" d="M54.6405 96.366L52.6028 100.34H6.00548L3.97388 96.366H54.6405Z" fill="#DBDBDB"/>
<path d="M76.9936 60.6013V0" stroke="#C7C7C7"/>
<path fill-rule="evenodd" clip-rule="evenodd" d="M101.333 83.5153L99.2957 87.4248H52.6984L50.6667 83.5153L70.5049 71.5294H81.4953L101.333 83.5153Z" fill="#EBEBEB"/>
<path fill-rule="evenodd" clip-rule="evenodd" d="M83.451 56.6274L82.0573 68.549H70.9355L69.5425 56.6274H83.451Z" fill="#DBDBDB"/>
<path fill-rule="evenodd" clip-rule="evenodd" d="M101.333 82.4575L99.2957 86.4314H52.6984L50.6667 82.4575H101.333Z" fill="#DBDBDB"/>
<mask id="mask1_0_2472" style="mask-type:alpha" maskUnits="userSpaceOnUse" x="12" y="271" width="265" height="33">
<path fill-rule="evenodd" clip-rule="evenodd" d="M12.3879 271.505H276.463V303.353H12.3879V271.505Z" fill="white"/>
</mask>
<g mask="url(#mask1_0_2472)">
<path fill-rule="evenodd" clip-rule="evenodd" d="M276.463 287.429C276.463 296.223 217.348 303.353 144.426 303.353C71.5035 303.353 12.3879 296.223 12.3879 287.429C12.3879 278.634 71.5035 271.505 144.426 271.505C217.348 271.505 276.463 278.634 276.463 287.429Z" fill="#EBEBEB"/>
</g>
<path fill-rule="evenodd" clip-rule="evenodd" d="M246.107 198.489C246.602 201.803 246.417 205.221 245.591 208.466C245.203 209.985 244.671 211.449 244.029 212.876C243.218 214.702 242.37 216.484 242.574 218.481C242.772 218.61 242.095 218.589 242.073 218.394C236.619 215.357 229.623 214.799 225.425 209.83C223.437 207.478 222.435 204.496 221.959 201.514C221.443 198.266 221.299 194.67 222.156 191.469C222.877 188.762 224.494 186.151 227.094 184.825C229.778 183.459 233.292 183.573 236.118 184.432C242.213 186.285 245.245 192.72 246.107 198.489Z" fill="#12B39A"/>
<path fill-rule="evenodd" clip-rule="evenodd" d="M250.342 239.329C249.595 236.888 248.849 234.447 248.081 232.012C246.579 227.244 245.017 222.492 243.288 217.797C242.253 214.985 241.16 212.199 240.011 209.44C240.207 207.707 240.285 205.981 240.665 204.254C241.123 202.174 241.788 200.164 242.407 198.128C242.445 198.003 242.238 197.937 242.186 198.056C240.956 200.86 239.353 204.449 239.312 207.772C237.975 204.651 236.546 201.571 235.009 198.54C234.922 195.956 234.826 193.452 235.25 190.852C235.269 190.735 235.087 190.7 235.065 190.817C234.654 193 234.364 195.341 234.529 197.603C233.353 195.326 232.113 193.077 230.794 190.862C230.674 190.662 230.393 190.866 230.497 191.063C232.554 194.946 234.463 198.91 236.254 202.926C233.773 200.771 230.77 199.139 227.67 198.054C227.533 198.007 227.431 198.2 227.569 198.257C231.098 199.702 234.061 201.746 236.854 204.281C238.142 207.223 239.368 210.19 240.535 213.176C237.109 209.885 232.421 207.719 227.886 206.558C227.732 206.518 227.69 206.751 227.839 206.794C233.086 208.343 237.164 211.259 241.156 214.762C241.619 215.969 242.074 217.18 242.52 218.392C244.211 222.991 245.814 227.621 247.35 232.27C248.087 234.5 248.812 236.732 249.524 238.969C250.29 241.376 250.889 243.916 251.886 246.239C251.981 246.462 252.387 246.411 252.335 246.145C251.886 243.84 251.031 241.576 250.342 239.329Z" fill="#263238"/>
<path fill-rule="evenodd" clip-rule="evenodd" d="M242.056 193.806C240.749 195.587 239.874 197.544 239.426 199.627C239.414 199.681 239.509 199.712 239.53 199.658C240.345 197.696 241.302 195.802 242.382 193.947C242.492 193.756 242.18 193.638 242.056 193.806Z" fill="#263238"/>
<path fill-rule="evenodd" clip-rule="evenodd" d="M233.373 205.51C231.697 205.093 229.473 204.764 227.563 204.654C227.509 204.651 227.477 204.685 227.532 204.694C228.466 204.864 229.447 204.983 230.393 205.142C231.342 205.302 232.268 205.496 233.227 205.642C233.427 205.672 233.563 205.558 233.373 205.51Z" fill="#263238"/>
<path fill-rule="evenodd" clip-rule="evenodd" d="M228.475 190.587C228.19 190.307 227.888 189.947 227.571 189.757C227.522 189.728 227.479 189.819 227.519 189.875C227.77 190.218 228.119 190.473 228.41 190.734C228.467 190.786 228.531 190.643 228.475 190.587Z" fill="#263238"/>
<path fill-rule="evenodd" clip-rule="evenodd" d="M267.04 216.2C263.163 217.351 259.266 218.416 255.39 219.555C255.053 219.655 248.499 207.085 250.868 200.609C253.057 194.615 258.069 190.129 264.045 188.092C266.813 187.151 270.217 186.361 273.141 187.006C275.741 187.583 277.578 189.713 278.423 192.16C279.575 195.487 279.191 199.456 278.564 202.852C277.983 206.001 276.831 209.103 274.749 211.578C272.69 214.027 270.062 215.302 267.04 216.2Z" fill="#12B39A"/>
<path fill-rule="evenodd" clip-rule="evenodd" d="M271.096 206.401C268.546 207.639 265.962 208.536 263.243 209.377C261.54 209.904 259.632 210.379 258 211.203C259.691 207.573 261.548 204.021 263.518 200.498C266.106 199.777 268.827 198.653 270.778 196.891C270.885 196.794 270.748 196.65 270.633 196.728C268.499 198.18 266.144 199.052 263.784 200.033C264.317 199.085 264.853 198.138 265.401 197.195C265.554 196.932 265.179 196.671 264.995 196.926C262.896 199.842 261.007 202.933 259.304 206.126C258.881 203.308 258.729 200.563 258.892 197.697C258.896 197.623 258.788 197.618 258.775 197.689C258.281 200.721 258.304 203.928 258.875 206.951C257.469 209.65 256.19 212.415 255.04 215.214C254.583 213.532 253.99 211.877 253.593 210.181C253.023 207.741 252.755 205.255 253.018 202.759C253.025 202.686 252.914 202.681 252.901 202.752C252.124 207.176 252.833 212.172 254.582 216.375C253.912 218.061 253.274 219.752 252.689 221.446C249.698 230.122 247.855 239.065 247.373 248.196C247.362 248.407 247.686 248.429 247.711 248.221C248.799 239.263 250.721 230.347 253.68 221.785C254.842 218.424 256.179 215.16 257.646 211.957C260.012 211.284 262.368 210.372 264.692 209.597C266.96 208.841 269.282 207.966 271.187 206.532C271.26 206.475 271.179 206.361 271.096 206.401Z" fill="#263238"/>
<path fill-rule="evenodd" clip-rule="evenodd" d="M276.066 201.678C273.765 202.495 271.583 203.638 269.285 204.465C269.177 204.504 269.24 204.674 269.348 204.652C271.781 204.151 274.193 203.401 276.154 201.81C276.229 201.748 276.145 201.65 276.066 201.678Z" fill="#263238"/>
<path fill-rule="evenodd" clip-rule="evenodd" d="M254.324 196.845C254.353 196.718 254.165 196.644 254.125 196.775C253.457 198.986 252.997 201.333 253.646 203.594C253.671 203.683 253.813 203.685 253.819 203.583C253.935 201.306 253.806 199.089 254.324 196.845Z" fill="#263238"/>
<path fill-rule="evenodd" clip-rule="evenodd" d="M265.035 191.806C264.441 192.848 264.227 194.326 264.266 195.622C264.268 195.708 264.368 195.757 264.384 195.656C264.601 194.373 264.962 193.203 265.248 191.956C265.291 191.772 265.119 191.659 265.035 191.806Z" fill="#263238"/>
<path fill-rule="evenodd" clip-rule="evenodd" d="M221.252 222.067C222.42 225.998 225.193 231.432 229.588 231.475C232.435 231.504 235.303 231.146 238.158 231.103C241.215 231.053 244.279 231.06 247.329 231.253C247.579 231.268 246.963 221.541 239.616 216.805C237.557 215.478 235.04 215.058 232.705 214.52C230.032 213.904 227.279 213.49 224.539 213.618C222.852 213.69 221.448 214.069 220.847 215.902C220.22 217.821 220.693 220.199 221.252 222.067Z" fill="#12B39A"/>
<path fill-rule="evenodd" clip-rule="evenodd" d="M221.766 217.327C223.511 217.785 225.273 218.311 227.025 218.878C226.557 218.384 226.1 217.881 225.577 217.438C224.824 216.8 223.997 216.291 223.19 215.731C223.122 215.685 223.163 215.553 223.249 215.587C224.842 216.226 226.499 217.56 227.486 219.025C229.669 219.744 231.832 220.538 233.913 221.409C235.39 222.027 236.752 222.765 238.029 223.62C237.57 222.716 237.152 221.787 236.54 220.977C235.586 219.717 234.296 219.014 233.048 218.119C232.93 218.034 233.03 217.865 233.16 217.924C235.978 219.202 237.693 221.277 238.762 224.121C240.236 225.193 241.584 226.445 242.837 227.895C247.59 233.402 251.333 240.729 251.346 248.206C251.347 248.384 251.066 248.434 251.032 248.249C249.684 240.822 246.809 234.153 241.969 228.389C241.629 227.985 241.28 227.599 240.924 227.226C239.617 227.087 238.322 226.908 236.997 226.928C235.468 226.952 233.95 227.158 232.428 227.284C229.92 227.492 227.147 227.522 224.886 226.235C224.786 226.179 224.853 226.001 224.965 226.043C230.007 227.913 235.297 225.54 240.352 226.656C238.195 224.546 235.746 222.956 232.896 221.752C232.743 221.687 232.587 221.626 232.433 221.563C229.197 221.959 225.78 222.819 222.629 221.747C222.534 221.715 222.572 221.569 222.669 221.594C225.715 222.37 228.636 221.394 231.641 221.239C228.368 219.94 225.033 218.905 221.75 217.615C221.474 217.507 221.467 217.249 221.766 217.327Z" fill="#263238"/>
<path fill-rule="evenodd" clip-rule="evenodd" d="M220.645 221.595C222.598 221.984 224.506 221.995 226.469 222.128C226.513 222.131 226.528 222.212 226.48 222.226C224.565 222.745 222.47 222.425 220.604 221.774C220.507 221.74 220.549 221.577 220.645 221.595Z" fill="#263238"/>
<path fill-rule="evenodd" clip-rule="evenodd" d="M232.679 219.559C233.688 219.723 234.627 220.126 235.417 220.455C235.514 220.495 235.384 220.576 235.278 220.54C234.815 220.381 234.335 220.231 233.854 220.085C233.414 219.951 232.923 219.844 232.52 219.688C232.395 219.639 232.53 219.535 232.679 219.559Z" fill="#263238"/>
<path fill-rule="evenodd" clip-rule="evenodd" d="M255.331 231.418C255.274 231.551 255.461 231.676 255.533 231.536C255.54 231.536 255.54 231.536 255.54 231.529C255.569 231.565 255.605 231.602 255.663 231.61C258.84 232.309 262.031 233.023 265.264 233.317C267.864 233.553 270.859 233.699 273.134 232.161C276.217 230.078 278.245 224.506 276.578 220.965C274.607 216.762 268.665 219.044 265.683 220.538C261.099 222.82 257.417 226.677 255.331 231.418Z" fill="#12B39A"/>
<path fill-rule="evenodd" clip-rule="evenodd" d="M254.898 230.965C256.453 229.352 258.172 228.009 259.995 226.851C261.245 224.601 263.163 222.733 265.164 221.265C265.264 221.191 265.35 221.359 265.258 221.435C263.532 222.843 262.185 224.496 260.902 226.292C262.942 225.086 265.098 224.093 267.297 223.209C268.063 221.719 269.311 220.325 270.732 219.559C270.761 219.544 270.798 219.585 270.769 219.608C269.529 220.638 268.533 221.707 267.666 223.061C268.965 222.547 270.278 222.069 271.589 221.607C271.708 221.565 271.752 221.755 271.64 221.802C269.306 222.769 266.918 223.789 264.605 224.966C267.525 225.381 270.155 225.478 273.124 224.939C273.203 224.926 273.237 225.044 273.158 225.068C270.292 225.936 267.007 226.096 264.118 225.211C262.642 225.98 261.202 226.819 259.83 227.758C260.978 227.599 262.132 227.813 263.296 228.058C265.325 228.486 267.309 228.864 269.386 228.789C269.463 228.786 269.483 228.92 269.404 228.936C265.871 229.58 262.531 227.877 259.029 228.32C257.733 229.265 256.506 230.309 255.383 231.478C253.182 233.769 251.421 236.507 250.064 239.435C248.589 242.617 247.79 245.989 246.598 249.275C246.547 249.42 246.357 249.365 246.381 249.211C247.402 242.732 250.445 235.585 254.898 230.965Z" fill="#263238"/>
<path fill-rule="evenodd" clip-rule="evenodd" d="M265.263 223.489C265.57 223.276 266.109 223.093 266.614 222.933C267.057 222.792 267.595 222.61 268.171 222.537C268.225 222.53 268.254 222.555 268.223 222.567C267.789 222.733 267.187 222.856 266.722 223.015C266.251 223.176 265.862 223.364 265.387 223.521C265.321 223.543 265.226 223.516 265.263 223.489Z" fill="#263238"/>
<path fill-rule="evenodd" clip-rule="evenodd" d="M272.282 225.285C272.911 225.142 273.576 225.153 274.215 225.035C274.862 224.915 275.463 224.706 276.089 224.526C276.172 224.503 276.22 224.612 276.148 224.651C275.116 225.205 273.487 225.678 272.282 225.464C272.182 225.446 272.188 225.307 272.282 225.285Z" fill="#263238"/>
<path fill-rule="evenodd" clip-rule="evenodd" d="M240.418 240.418L240.941 246.093L242.715 265.255H258.411L260.626 246.093L261.281 240.418H240.418Z" fill="#2473F2"/>
<path fill-rule="evenodd" clip-rule="evenodd" d="M240.418 240.418L240.941 246.379H260.626L261.281 240.418H240.418Z" fill="#263238"/>
<mask id="mask2_0_2472" style="mask-type:alpha" maskUnits="userSpaceOnUse" x="7" y="0" width="274" height="304">
<path fill-rule="evenodd" clip-rule="evenodd" d="M7.94775 303.007H280.157V0H7.94775V303.007Z" fill="white"/>
</mask>
<g mask="url(#mask2_0_2472)">
<path fill-rule="evenodd" clip-rule="evenodd" d="M239.425 243.399H262.274V239.425H239.425V243.399Z" fill="#455A64"/>
<path fill-rule="evenodd" clip-rule="evenodd" d="M7.94775 265.752L41.9735 265.51L75.9999 265.422L144.053 265.256L212.104 265.421L246.131 265.508L280.157 265.752L246.131 265.994L212.104 266.081L144.053 266.247L75.9999 266.08L41.9735 265.993L7.94775 265.752Z" fill="#263238"/>
<path fill-rule="evenodd" clip-rule="evenodd" d="M235.451 48.7728V264.175C235.451 270.264 230.805 275.189 225.076 275.189H122.65C116.907 275.189 112.261 270.264 112.261 264.175V48.7728C112.261 36.3695 116.907 35.7646 122.65 35.7646H143.171C144.363 35.7646 145.337 37.094 145.337 38.7425V39.4537C145.337 43.3156 147.491 43.3289 150.133 43.3289H197.58C200.248 43.3289 202.388 43.3156 202.388 39.4537V38.7425C202.388 37.094 203.35 35.7646 204.562 35.7646H225.076C230.805 35.7646 235.451 37.4131 235.451 48.7728Z" fill="white"/>
<path fill-rule="evenodd" clip-rule="evenodd" d="M235.451 264.176C235.451 270.264 230.805 275.189 225.076 275.189H122.65C116.907 275.189 112.261 270.264 112.261 264.176V48.7728C112.261 36.3695 116.907 35.7646 122.65 35.7646H143.171C144.363 35.7646 145.337 37.094 145.337 38.7425V39.4537C145.337 43.3156 147.491 43.3289 150.133 43.3289H197.58C200.248 43.3289 202.388 43.3156 202.388 39.4537V38.7425C202.388 37.094 203.35 35.7646 204.562 35.7646H225.076C230.805 35.7646 235.451 37.4131 235.451 48.7728V264.176Z" fill="white"/>
<path fill-rule="evenodd" clip-rule="evenodd" d="M235.247 48.8717C235.217 47.0172 235.118 45.1561 234.745 43.3342C234.373 41.5248 233.68 39.7234 232.401 38.3474C231.131 36.9547 229.249 36.2613 227.394 36.049C226.46 35.921 225.515 35.9057 224.572 35.9057L221.743 35.9077L210.424 35.9183L204.764 35.9236C204.526 35.9236 204.295 35.9196 204.072 35.9813C203.851 36.0457 203.644 36.1545 203.46 36.2918C203.094 36.5745 202.828 36.9673 202.652 37.3913C202.263 38.2492 202.409 39.1999 202.351 40.1268C202.322 40.592 202.257 41.0591 202.108 41.5049C201.974 41.9548 201.717 42.3761 201.36 42.6926C200.622 43.3322 199.6 43.435 198.673 43.4702C196.784 43.5007 194.899 43.4815 193.012 43.4901L181.693 43.5001L159.055 43.5213L153.395 43.5259L150.565 43.5286C149.626 43.5186 148.669 43.5664 147.726 43.3461C147.26 43.234 146.797 43.0343 146.437 42.7032C146.079 42.3741 145.82 41.9428 145.687 41.487C145.386 40.5774 145.44 39.612 145.422 38.7003C145.388 37.8066 145.046 36.8704 144.327 36.321C144.147 36.1903 143.945 36.0921 143.732 36.0364C143.521 35.9754 143.294 35.9939 143.054 35.99L141.639 35.9913L130.32 36.0019L124.661 36.0065C122.775 36.0185 120.879 35.9448 119.041 36.2806C118.131 36.4697 117.243 36.7676 116.462 37.2586C115.707 37.7794 115.057 38.4442 114.583 39.2311C114.337 39.6166 114.163 40.0459 113.957 40.4546C113.811 40.8905 113.644 41.3198 113.514 41.7604L113.195 43.1053L112.989 44.4741C112.77 46.31 112.729 48.1591 112.74 50.0162L112.745 55.5856L112.767 77.8618L112.933 256.073L112.928 261.643C112.938 262.564 112.901 263.514 112.951 264.412C112.966 265.318 113.156 266.208 113.379 267.081C113.915 268.8 114.811 270.44 116.124 271.702C116.753 272.359 117.509 272.882 118.289 273.344C119.085 273.787 119.943 274.111 120.829 274.327C121.73 274.517 122.615 274.589 123.568 274.571L126.398 274.574L132.057 274.579L143.377 274.589L188.653 274.631L211.291 274.651L222.61 274.661C223.547 274.65 224.509 274.691 225.427 274.637C226.35 274.609 227.259 274.399 228.127 274.102C229.002 273.808 229.805 273.342 230.567 272.833C231.294 272.273 231.991 271.666 232.558 270.944C233.727 269.529 234.483 267.805 234.841 266.019C234.995 265.115 235.057 264.216 235.044 263.283L235.047 260.498L235.058 249.36L235.078 227.084L235.247 48.8717ZM235.247 48.8717L235.414 227.084L235.435 249.36L235.446 260.498L235.449 263.283C235.464 264.207 235.402 265.165 235.245 266.093C234.878 267.942 234.097 269.73 232.886 271.202C232.299 271.953 231.575 272.588 230.818 273.171C230.024 273.704 229.188 274.191 228.274 274.501C227.366 274.813 226.416 275.033 225.451 275.064C224.486 275.122 223.558 275.082 222.61 275.095L211.291 275.106L188.653 275.126L143.377 275.167L132.057 275.178L126.398 275.183L123.568 275.186C122.634 275.207 121.63 275.134 120.686 274.931C119.74 274.703 118.823 274.359 117.975 273.888C117.143 273.398 116.339 272.842 115.67 272.146C114.275 270.808 113.323 269.076 112.754 267.259C112.514 266.336 112.315 265.396 112.295 264.441C112.242 263.485 112.278 262.578 112.266 261.643L112.261 256.073L112.428 77.8618L112.449 55.5856L112.454 50.0162C112.447 48.1618 112.491 46.292 112.717 44.4402L112.927 43.0549L113.254 41.6887C113.388 41.2402 113.559 40.8003 113.71 40.3558C113.922 39.9344 114.102 39.4952 114.357 39.0964C114.849 38.283 115.529 37.587 116.321 37.0449C117.137 36.5334 118.059 36.2275 118.992 36.0357C120.875 35.696 122.779 35.777 124.661 35.7677L130.32 35.773L141.639 35.7829L143.054 35.7843C143.283 35.7889 143.536 35.7683 143.783 35.8387C144.025 35.9017 144.251 36.0138 144.451 36.1585C145.24 36.7682 145.585 37.7562 145.623 38.693C145.638 39.6266 145.586 40.5568 145.872 41.428C146 41.8632 146.24 42.2606 146.568 42.5639C146.899 42.8684 147.325 43.0562 147.772 43.1643C148.673 43.378 149.626 43.3362 150.565 43.3468L153.395 43.3494L159.055 43.3548L181.693 43.3753L193.012 43.3859C194.898 43.3813 196.787 43.4039 198.67 43.3766C199.593 43.3441 200.593 43.24 201.3 42.6262C201.644 42.323 201.893 41.9183 202.025 41.4777C202.172 41.0425 202.237 40.582 202.266 40.1215C202.292 39.6611 202.284 39.198 202.292 38.7315C202.309 38.2644 202.393 37.7947 202.58 37.3621C202.76 36.9288 203.033 36.5247 203.413 36.2321C203.605 36.0895 203.82 35.9767 204.052 35.9097C204.286 35.8453 204.531 35.8506 204.764 35.8506L210.424 35.8559L221.743 35.8665L224.572 35.8692C225.515 35.8705 226.462 35.8884 227.397 36.0185C229.257 36.2341 231.145 36.9334 232.417 38.3334C233.696 39.7161 234.388 41.5215 234.755 43.3322C235.124 45.1555 235.22 47.0172 235.247 48.8717Z" fill="#263238"/>
<path fill-rule="evenodd" clip-rule="evenodd" d="M235.451 51.7243V77.4902H112.261V51.7243C112.261 39.3486 116.907 38.7451 122.65 38.7451H143.171C144.363 38.7451 145.337 40.0715 145.337 41.7163V42.426C145.337 46.2793 147.491 46.2925 150.133 46.2925H197.58C200.248 46.2925 202.388 46.2793 202.388 42.426V41.7163C202.388 40.0715 203.35 38.7451 204.562 38.7451H225.076C230.805 38.7451 235.451 40.3899 235.451 51.7243Z" fill="#FF7642"/>
<path fill-rule="evenodd" clip-rule="evenodd" d="M141.072 40.4814C141.013 40.5342 140.954 40.5865 140.895 40.6399C140.861 40.6699 140.828 40.6998 140.794 40.7304C140.318 40.3146 139.75 40.0929 139.086 40.0929C138.422 40.0929 137.854 40.3135 137.374 40.732C137.343 40.7026 137.311 40.6721 137.279 40.6421C137.221 40.5892 137.162 40.5369 137.104 40.4841C137.102 40.4824 137.1 40.4819 137.098 40.4814V40.4775C137.103 40.4743 137.107 40.471 137.111 40.4677C137.186 40.4083 137.259 40.3462 137.336 40.289C137.495 40.1713 137.67 40.0738 137.854 39.9921C138.073 39.8956 138.302 39.8237 138.542 39.7845C138.655 39.7654 138.771 39.7556 138.886 39.7436C138.924 39.7387 139.178 39.7382 139.186 39.7387C139.264 39.7436 139.343 39.7469 139.42 39.7545C139.636 39.7757 139.847 39.8226 140.051 39.8902C140.199 39.9387 140.341 39.9991 140.478 40.0694C140.622 40.1441 140.758 40.2291 140.885 40.3261C140.948 40.3751 141.01 40.4269 141.072 40.4775V40.4814Z" fill="white"/>
<path fill-rule="evenodd" clip-rule="evenodd" d="M136.397 40.732C136.299 40.6263 136.203 40.522 136.104 40.415C136.437 40.0579 136.831 39.8306 137.294 39.7623C137.987 39.66 138.581 39.89 139.085 40.4108C138.986 40.5186 138.889 40.6236 138.791 40.7299C138.46 40.379 138.061 40.1891 137.595 40.1898C137.128 40.1898 136.73 40.379 136.397 40.732Z" fill="white"/>
<path fill-rule="evenodd" clip-rule="evenodd" d="M139.085 42.285C139.032 42.4278 138.979 42.5715 138.925 42.7161C138.832 42.4738 138.72 42.3395 138.588 42.3395C138.457 42.3395 138.345 42.4738 138.251 42.7189C138.198 42.5743 138.145 42.4306 138.092 42.2878C138.346 41.5674 138.804 41.5101 139.085 42.285Z" fill="white"/>
<path fill-rule="evenodd" clip-rule="evenodd" d="M138.008 42.2222C138.008 42.4507 137.823 42.6355 137.594 42.6355C137.366 42.6355 137.182 42.4507 137.182 42.2222C137.182 41.9947 137.366 41.8089 137.594 41.8089C137.823 41.8089 138.008 41.9947 138.008 42.2222Z" fill="white"/>
<path fill-rule="evenodd" clip-rule="evenodd" d="M121.203 40.2351C121.203 39.9606 121.425 39.7385 121.7 39.7385C121.974 39.7385 122.196 39.9606 122.196 40.2351C122.196 40.5095 121.974 40.732 121.7 40.732C121.425 40.732 121.203 40.5095 121.203 40.2351Z" fill="white"/>
<path fill-rule="evenodd" clip-rule="evenodd" d="M124.183 40.2351C124.183 39.9606 124.406 39.7385 124.68 39.7385C124.954 39.7385 125.177 39.9606 125.177 40.2351C125.177 40.5095 124.954 40.732 124.68 40.732C124.406 40.732 124.183 40.5095 124.183 40.2351Z" fill="white"/>
<path fill-rule="evenodd" clip-rule="evenodd" d="M127.163 40.2351C127.163 39.9606 127.386 39.7385 127.66 39.7385C127.934 39.7385 128.157 39.9606 128.157 40.2351C128.157 40.5095 127.934 40.732 127.66 40.732C127.386 40.732 127.163 40.5095 127.163 40.2351Z" fill="white"/>
<path fill-rule="evenodd" clip-rule="evenodd" d="M130.144 40.2351C130.144 39.9606 130.366 39.7385 130.641 39.7385C130.915 39.7385 131.137 39.9606 131.137 40.2351C131.137 40.5095 130.915 40.732 130.641 40.732C130.366 40.732 130.144 40.5095 130.144 40.2351Z" fill="white"/>
<path fill-rule="evenodd" clip-rule="evenodd" d="M131.137 40.2351C131.137 39.9606 131.36 39.7385 131.634 39.7385C131.909 39.7385 132.131 39.9606 132.131 40.2351C132.131 40.5095 131.909 40.732 131.634 40.732C131.36 40.732 131.137 40.5095 131.137 40.2351Z" fill="white"/>
<path fill-rule="evenodd" clip-rule="evenodd" d="M217.922 42.3911H224.168V40.0663H217.922V42.3911ZM217.569 42.7189H224.523V39.7385H217.569V42.7189Z" fill="white"/>
<path fill-rule="evenodd" clip-rule="evenodd" d="M219.556 42.7189H223.53V41.7255H219.556V42.7189Z" fill="white"/>
<path fill-rule="evenodd" clip-rule="evenodd" d="M224.586 42.7189H225.453V41.7255H224.586V42.7189Z" fill="white"/>
<path fill-rule="evenodd" clip-rule="evenodd" d="M124.643 68.549L121.203 65.0712L124.643 61.5947L125.176 62.208L122.344 65.0712L125.176 67.9357L124.643 68.549Z" fill="white"/>
<path fill-rule="evenodd" clip-rule="evenodd" d="M129.15 193.726H217.569V185.778H129.15V193.726Z" fill="#EBEBEB"/>
<path fill-rule="evenodd" clip-rule="evenodd" d="M132.131 158.458L142.189 158.336L152.248 158.293L172.366 158.209L192.484 158.293L202.543 158.336L212.601 158.458L202.543 158.58L192.484 158.623L172.366 158.706L152.248 158.622L142.189 158.579L132.131 158.458Z" fill="#263238"/>
<path fill-rule="evenodd" clip-rule="evenodd" d="M139.085 164.418L147.529 164.297L155.974 164.253L172.863 164.17L189.751 164.252L198.196 164.296L206.641 164.418L198.196 164.54L189.751 164.583L172.863 164.667L155.974 164.583L147.529 164.54L139.085 164.418Z" fill="#263238"/>
<path fill-rule="evenodd" clip-rule="evenodd" d="M129.15 209.124L140.203 209.004L151.255 208.959L173.36 208.877L195.464 208.959L206.516 209.003L217.569 209.124L206.516 209.245L195.464 209.289L173.36 209.372L151.255 209.289L140.203 209.244L129.15 209.124Z" fill="#EBEBEB"/>
<path fill-rule="evenodd" clip-rule="evenodd" d="M137.098 230.484H207.634V218.562H137.098V230.484Z" fill="#FF7642"/>
<path fill-rule="evenodd" clip-rule="evenodd" d="M206.641 107.791C206.641 116.295 199.747 123.19 191.242 123.19C182.738 123.19 175.843 116.295 175.843 107.791C175.843 99.2867 182.738 92.3922 191.242 92.3922C199.747 92.3922 206.641 99.2867 206.641 107.791Z" fill="#FF7642"/>
<path fill-rule="evenodd" clip-rule="evenodd" d="M159.948 129.647C159.948 135.957 154.833 141.072 148.523 141.072C142.213 141.072 137.098 135.957 137.098 129.647C137.098 123.337 142.213 118.222 148.523 118.222C154.833 118.222 159.948 123.337 159.948 129.647Z" fill="#EBEBEB"/>
<path fill-rule="evenodd" clip-rule="evenodd" d="M181.804 103.745V115.242H178.472V103.745C178.472 99.3734 175.066 95.8181 170.876 95.8181C166.686 95.8181 163.281 99.3734 163.281 103.745V115.242H159.948V103.745C159.948 97.4841 164.85 92.3922 170.876 92.3922C176.902 92.3922 181.804 97.4841 181.804 103.745Z" fill="#C7C7C7"/>
<path fill-rule="evenodd" clip-rule="evenodd" d="M160.941 108.288L163.922 108.41V116.235H160.941V108.288Z" fill="#A6A6A6"/>
<path fill-rule="evenodd" clip-rule="evenodd" d="M181.804 108.423V116.235H178.823V108.288L181.804 108.423Z" fill="#A6A6A6"/>
<path fill-rule="evenodd" clip-rule="evenodd" d="M155.974 135.111H184.784V108.288H155.974V135.111Z" fill="#FF7642"/>
<path fill-rule="evenodd" clip-rule="evenodd" d="M171.869 135.111H187.765V108.288H171.869V135.111Z" fill="#2473F2"/>
<path fill-rule="evenodd" clip-rule="evenodd" d="M174.85 130.144H168.889L170.293 123.612C169.454 123.092 168.889 122.185 168.889 121.144C168.889 119.515 170.225 118.222 171.869 118.222C173.513 118.222 174.85 119.515 174.85 121.144C174.85 122.185 174.284 123.092 173.445 123.612L174.85 130.144Z" fill="white"/>
<path fill-rule="evenodd" clip-rule="evenodd" d="M165.908 253.83C165.908 254.653 165.019 255.32 163.921 255.32C162.824 255.32 161.935 254.653 161.935 253.83C161.935 253.007 162.824 252.34 163.921 252.34C165.019 252.34 165.908 253.007 165.908 253.83Z" fill="#DBDBDB"/>
<path fill-rule="evenodd" clip-rule="evenodd" d="M175.843 253.334C175.843 254.979 174.509 256.314 172.863 256.314C171.217 256.314 169.882 254.979 169.882 253.334C169.882 251.687 171.217 250.353 172.863 250.353C174.509 250.353 175.843 251.687 175.843 253.334Z" fill="#C7C7C7"/>
<path fill-rule="evenodd" clip-rule="evenodd" d="M184.784 253.83C184.784 254.653 183.895 255.32 182.797 255.32C181.7 255.32 180.811 254.653 180.811 253.83C180.811 253.007 181.7 252.34 182.797 252.34C183.895 252.34 184.784 253.007 184.784 253.83Z" fill="#DBDBDB"/>
<path fill-rule="evenodd" clip-rule="evenodd" d="M76.4968 217.569L78.1775 227.362L89.563 287.111H91.3988L83.1195 227.362L81.8957 217.569H76.4968Z" fill="#DBDBDB"/>
<path fill-rule="evenodd" clip-rule="evenodd" d="M81.1723 219.556H75.5032L77.268 230.484H82.4574L81.1723 219.556Z" fill="#A6A6A6"/>
<path fill-rule="evenodd" clip-rule="evenodd" d="M41.7256 287.111H43.5606L54.9462 227.363L56.6275 217.569H51.228L50.0048 227.363L41.7256 287.111Z" fill="#DBDBDB"/>
<path fill-rule="evenodd" clip-rule="evenodd" d="M50.9574 219.556L49.6731 230.484H54.8618L56.6273 219.556H50.9574Z" fill="#A6A6A6"/>
<path fill-rule="evenodd" clip-rule="evenodd" d="M10.9282 287.111H12.7633L24.1488 227.363L25.8302 217.569H20.4313L19.2075 227.363L10.9282 287.111Z" fill="#DBDBDB"/>
<path fill-rule="evenodd" clip-rule="evenodd" d="M18.8757 230.484H24.0645L25.83 219.556H20.1608L18.8757 230.484Z" fill="#A6A6A6"/>
<path fill-rule="evenodd" clip-rule="evenodd" d="M14.9019 224.523H93.3855V216.202H64.0053L54.131 172.863H17.8939L14.9019 224.523Z" fill="#DBDBDB"/>
<path fill-rule="evenodd" clip-rule="evenodd" d="M14.9019 224.523H19.1123L21.8561 172.863H17.8463L14.9019 224.523Z" fill="#A6A6A6"/>
<path fill-rule="evenodd" clip-rule="evenodd" d="M90.4484 293.069C88.9495 293.25 48.0344 284.017 46.7055 282.771C46.5442 282.633 47.9845 274.977 47.9845 274.977C48.6267 271.849 59.7763 246.379 59.7763 246.379L86.5244 252.762L75.1899 276.422C75.1899 276.422 80.2898 279.761 84.672 282.944C84.6767 282.951 84.6827 282.953 84.6814 282.958C87.3878 284.912 89.7233 286.671 90.2245 287.248C91.5244 288.755 91.9447 292.899 90.4484 293.069Z" fill="#C95F50"/>
<path fill-rule="evenodd" clip-rule="evenodd" d="M46.7055 283.114C48.0344 284.439 88.9515 294.258 90.449 294.063C91.9464 293.883 91.5215 289.476 90.2264 287.873C89.7205 287.263 87.3866 285.389 84.6817 283.315C84.6817 283.308 84.675 283.308 84.6682 283.302C80.2905 279.915 75.191 276.363 75.191 276.363L77.7138 270.756L51.7983 264.261C49.8354 269.292 48.2232 273.622 47.9871 274.83C47.9871 274.83 46.5436 282.968 46.7055 283.114Z" fill="#EBEBEB"/>
<path fill-rule="evenodd" clip-rule="evenodd" d="M90.3861 293.07C88.8571 293.24 48.1581 283.516 46.8307 282.098C46.3175 281.568 47.3027 275.173 48.7019 267.482C48.7172 267.401 48.7325 267.321 48.7478 267.242L75.0707 273.203L74.9608 273.675C74.9608 273.675 88.9749 284.813 90.2816 286.538C91.5757 288.252 91.9145 292.906 90.3861 293.07Z" fill="#FF7642"/>
<path fill-rule="evenodd" clip-rule="evenodd" d="M91.2986 292.933C84.2787 290.913 55.7997 283.529 48.7278 282.146C48.6702 282.134 48.6613 282.179 48.7175 282.196C55.6374 284.373 84.167 291.492 91.2732 293.066C91.4232 293.099 91.4472 292.976 91.2986 292.933Z" fill="#263238"/>
<path fill-rule="evenodd" clip-rule="evenodd" d="M77.3912 274.928C75.0081 274.078 71.8804 273.827 69.5825 274.947C69.4936 274.99 69.5684 275.095 69.6549 275.089C72.2821 274.903 74.6855 274.918 77.3109 275.188C77.4961 275.207 77.5623 274.989 77.3912 274.928Z" fill="#263238"/>
<path fill-rule="evenodd" clip-rule="evenodd" d="M79.3785 276.915C76.9953 276.064 73.8676 275.814 71.5696 276.934C71.4801 276.977 71.5555 277.082 71.642 277.076C74.2693 276.89 76.6727 276.905 79.2981 277.175C79.4827 277.194 79.549 276.976 79.3785 276.915Z" fill="#263238"/>
<path fill-rule="evenodd" clip-rule="evenodd" d="M82.3589 278.902C79.9758 278.051 76.8482 277.801 74.5497 278.92C74.4607 278.964 74.5362 279.069 74.6226 279.063C77.2499 278.877 79.6526 278.892 82.2786 279.162C82.4632 279.181 82.5294 278.963 82.3589 278.902Z" fill="#263238"/>
<path fill-rule="evenodd" clip-rule="evenodd" d="M77.8753 275.806C76.5731 276.014 75.2681 276.157 73.974 276.412C75.1677 275.287 76.3058 274.117 77.6124 273.112C78.2349 272.633 78.8837 272.153 79.5678 271.763C80.6319 271.157 84.5142 270.229 83.2596 273.374C82.5676 275.11 79.4279 275.558 77.8753 275.806ZM84.2476 271.661C83.4413 269.79 81.1058 270.025 79.6315 270.789C77.2454 272.028 74.896 274.272 73.5301 276.575C73.4965 276.631 73.5294 276.677 73.5763 276.697C73.5338 276.926 73.6832 277.211 73.9586 277.173C76.6149 276.815 79.4997 276.763 81.967 275.599C83.4076 274.919 85.0107 273.432 84.2476 271.661Z" fill="#263238"/>
<path fill-rule="evenodd" clip-rule="evenodd" d="M65.7238 271.991C65.0051 268.831 68.9744 270.373 69.9919 271.126C70.646 271.609 71.2452 272.17 71.8164 272.727C73.0147 273.893 74.0003 275.185 75.0536 276.445C73.7198 275.981 72.3526 275.62 71.0013 275.2C69.3903 274.698 66.1197 273.733 65.7238 271.991ZM66.6655 274.295C69.074 275.812 72.1487 276.363 74.9197 277.16C75.2065 277.243 75.4224 277.001 75.4224 276.78C75.4774 276.771 75.5204 276.733 75.4965 276.674C74.4919 274.283 72.4243 271.776 70.117 270.204C68.6916 269.233 66.24 268.606 65.0067 270.217C63.8395 271.74 65.2593 273.409 66.6655 274.295Z" fill="#263238"/>
<path fill-rule="evenodd" clip-rule="evenodd" d="M76.4968 291.426C83.8964 292.999 89.6328 294.123 90.2257 294.063C91.9966 293.891 91.6039 288.976 90.1025 287.164C89.5404 286.489 86.9686 284.451 83.9426 282.144L76.4968 291.426Z" fill="#000A14"/>
<path fill-rule="evenodd" clip-rule="evenodd" d="M79.1062 275.19L50.9204 268.603C50.9204 268.603 74.444 215.173 72.3767 212.456C71.3427 211.098 45.0996 210.698 36.7535 203.691C25.9115 194.588 33.1855 180.679 33.1855 180.679L62.4937 179.817C62.4937 179.817 62.1401 185.884 63.2832 186.798C64.0373 187.408 98.9593 190.316 102.795 201.98C107.497 216.28 79.1062 275.19 79.1062 275.19Z" fill="#2473F2"/>
<path fill-rule="evenodd" clip-rule="evenodd" d="M79.4273 272.971C78.6475 272.612 70.9427 270.418 69.2127 269.988C65.7301 269.121 62.2418 268.273 58.7366 267.497C56.9097 267.093 52.9937 266.208 52.7533 266.25C52.6374 266.27 52.6169 266.459 52.7215 266.492C56.1172 267.581 59.5609 268.501 63.0047 269.431C66.442 270.359 78.3039 273.136 79.3446 273.202C79.4443 273.209 79.5376 273.022 79.4273 272.971Z" fill="#263238"/>
<path fill-rule="evenodd" clip-rule="evenodd" d="M76.9955 212.088C76.4037 211.592 75.5153 211.531 74.7742 211.41C70.5252 210.713 66.2775 210.008 62.0292 209.311C58.0525 208.658 54.0564 208.073 50.0993 207.323C46.8221 206.704 43.4904 205.866 40.6557 204.121C37.8176 202.375 35.8572 199.749 34.8673 196.686C33.8786 193.622 33.808 190.328 34.1194 187.156C34.1947 186.38 34.34 185.605 34.4879 184.839C34.4994 184.781 34.4046 184.761 34.3938 184.819C33.3164 190.74 33.2196 197.614 37.7403 202.333C39.9441 204.634 42.9718 205.985 46.0601 206.861C49.5465 207.849 53.1882 208.317 56.7647 208.904C61.0137 209.601 65.262 210.3 69.5124 210.993C71.5562 211.326 73.6329 211.587 75.6599 212.004C76.0486 212.084 76.4885 212.196 76.7676 212.485C77.1522 212.883 77.0473 213.449 76.9471 213.932C76.742 214.915 76.4723 215.887 76.1845 216.851C73.8649 224.624 56.7452 264.29 56.2858 265.143C56.2367 265.233 56.3806 265.302 56.4311 265.214C60.3297 258.395 73.14 227.176 75.7137 219.822C76.3714 217.943 76.9781 216.043 77.3849 214.099C77.5315 213.398 77.617 212.61 76.9955 212.088Z" fill="#263238"/>
<path fill-rule="evenodd" clip-rule="evenodd" d="M134.477 295.888C133.024 296.346 91.4729 295.797 89.8911 294.847C88.16 293.302 87.4248 256.521 87.4248 256.521L114.157 256.314L115.823 282.722C115.823 282.722 121.592 284.976 126.616 287.216C126.622 287.222 126.628 287.222 126.628 287.228C129.728 288.6 132.418 289.854 133.037 290.315C134.645 291.523 135.93 295.44 134.477 295.888Z" fill="#C95F50"/>
<path fill-rule="evenodd" clip-rule="evenodd" d="M87.4248 276.183C87.8279 285.884 88.4049 294.83 89.1903 295.63C90.7959 296.745 132.994 297.394 134.467 296.85C135.941 296.33 134.641 291.732 133.008 290.315C132.375 289.773 129.644 288.303 126.495 286.69C126.495 286.683 126.495 286.683 126.488 286.675C121.386 284.045 115.527 281.399 115.527 281.399L115.242 276.183H87.4248Z" fill="#EBEBEB"/>
<path fill-rule="evenodd" clip-rule="evenodd" d="M134.452 294.796C132.957 295.303 90.1928 295.092 88.5713 294.028C87.9476 293.635 87.6145 287.278 87.4282 279.584C87.4269 279.504 87.4262 279.423 87.4248 279.342L115.015 279.163L115.003 279.642C115.003 279.642 131.336 287.19 133 288.551C134.65 289.907 135.949 294.296 134.452 294.796Z" fill="#FF7642"/>
<path fill-rule="evenodd" clip-rule="evenodd" d="M134.004 293.548C126.776 293.241 97.6091 292.989 90.4492 293.481C90.391 293.485 90.3903 293.542 90.4492 293.546C97.6071 294.078 126.776 293.988 134.004 293.72C134.155 293.714 134.156 293.555 134.004 293.548Z" fill="#263238"/>
<path fill-rule="evenodd" clip-rule="evenodd" d="M118.087 279.448C115.486 278.737 112.3 279.285 110.302 281.919C110.224 282.02 110.327 282.176 110.412 282.138C112.984 281.001 115.385 280.276 118.075 279.917C118.265 279.892 118.273 279.499 118.087 279.448Z" fill="#263238"/>
<path fill-rule="evenodd" clip-rule="evenodd" d="M121.068 280.442C118.466 279.731 115.28 280.278 113.282 282.911C113.205 283.013 113.307 283.169 113.392 283.132C115.965 281.993 118.366 281.27 121.056 280.911C121.245 280.886 121.254 280.493 121.068 280.442Z" fill="#263238"/>
<path fill-rule="evenodd" clip-rule="evenodd" d="M121.068 282.428C118.466 281.718 115.28 282.265 113.282 284.898C113.205 285 113.307 285.156 113.392 285.118C115.965 283.98 118.366 283.257 121.055 282.897C121.245 282.872 121.254 282.48 121.068 282.428Z" fill="#263238"/>
<path fill-rule="evenodd" clip-rule="evenodd" d="M116.789 279.116C115.429 279.563 114.05 279.952 112.71 280.44C113.735 279.186 114.689 277.901 115.865 276.734C116.426 276.178 117.015 275.614 117.662 275.127C118.67 274.367 122.653 272.758 122.041 275.85C121.703 277.555 118.411 278.584 116.789 279.116ZM122.704 274.105C121.387 272.573 118.915 273.249 117.5 274.234C115.21 275.827 113.2 278.322 112.267 280.675C112.245 280.733 112.291 280.768 112.346 280.776C112.355 280.991 112.584 281.219 112.874 281.131C115.664 280.279 118.774 279.659 121.169 278.116C122.567 277.216 123.949 275.554 122.704 274.105Z" fill="#263238"/>
<path fill-rule="evenodd" clip-rule="evenodd" d="M104.518 278.038C103.177 275.275 107.043 275.987 108.114 276.497C108.802 276.824 109.458 277.233 110.09 277.641C111.412 278.496 112.574 279.505 113.789 280.471C112.502 280.281 111.209 280.192 109.916 280.044C108.374 279.869 105.257 279.56 104.518 278.038ZM105.866 279.978C108.341 280.942 111.193 280.906 113.829 281.149C114.103 281.174 114.24 280.915 114.192 280.713C114.237 280.694 114.269 280.653 114.233 280.603C112.81 278.594 110.417 276.665 108.019 275.632C106.539 274.994 104.223 274.852 103.486 276.541C102.79 278.139 104.421 279.415 105.866 279.978Z" fill="#263238"/>
<path fill-rule="evenodd" clip-rule="evenodd" d="M116.235 281.142L87.2382 281.15C87.2382 281.15 87.6055 228.625 85.3329 225.711C82.3032 221.827 39.9086 221.916 30.8155 209.247C22.6486 197.869 29.5422 181.766 29.5422 181.766L61.6474 180.81C61.6474 180.81 60.6454 185.922 58.6716 190.947C58.6716 190.947 97.3465 198.103 108.181 209.997C115.493 218.024 116.235 281.142 116.235 281.142Z" fill="#2473F2"/>
<path fill-rule="evenodd" clip-rule="evenodd" d="M64.4236 188.76C63.3874 188.955 62.3645 189.401 61.385 189.798C60.3547 190.215 59.3413 190.691 58.3507 191.204C56.3902 192.221 54.5208 193.385 52.6772 194.62C52.6205 194.658 52.6764 194.744 52.7338 194.712C54.673 193.639 56.6777 192.674 58.6846 191.753C59.6502 191.31 60.6165 190.868 61.582 190.424C62.5535 189.978 63.5889 189.598 64.5118 189.046C64.6332 188.973 64.567 188.734 64.4236 188.76Z" fill="#263238"/>
<path fill-rule="evenodd" clip-rule="evenodd" d="M62.2534 180.933C61.79 182.665 61.383 184.41 60.854 186.127C60.6114 186.914 60.3722 187.715 60.055 188.479C59.7867 189.124 59.3806 189.86 58.5841 190.004C57.6664 190.17 57.4039 189.434 57.4779 188.723C57.5617 187.93 57.7777 187.136 57.9454 186.356C58.1373 185.457 58.3325 184.558 58.5069 183.655C58.5941 183.204 58.6846 182.754 58.7668 182.301C58.7868 182.188 58.8773 181.323 58.9429 181.076C58.9504 181.096 58.9653 181.116 58.9936 181.112C59.0044 181.112 59.0152 181.11 59.026 181.109C59.0509 181.105 59.0783 181.089 59.0824 181.063C59.0916 180.996 59.0907 180.982 59.0359 180.934C59.0127 180.913 58.9786 180.915 58.952 180.928C58.776 181.018 58.7635 181.243 58.707 181.409C58.5575 181.848 58.4056 182.285 58.2693 182.727C58.0135 183.554 57.7644 184.384 57.5393 185.217C57.3151 186.051 57.0975 186.887 56.8774 187.722C56.7138 188.347 56.5194 189.004 56.6996 189.647C56.8956 190.347 57.4936 190.7 58.1514 190.754C58.119 190.811 58.0816 190.864 58.0534 190.923C57.9728 191.093 57.9139 191.275 57.8449 191.449C57.7743 191.629 57.7112 191.807 57.6556 191.991C57.6298 192.079 57.6132 192.169 57.6024 192.259C57.5908 192.359 57.6132 192.457 57.5991 192.558C57.5783 192.712 57.8026 192.807 57.8856 192.655C57.9338 192.565 58.0044 192.497 58.0584 192.412C58.1149 192.323 58.1556 192.219 58.1904 192.122C58.2536 191.949 58.3067 191.776 58.3541 191.598C58.4006 191.424 58.4579 191.248 58.4928 191.071C58.5135 190.965 58.5177 190.857 58.5276 190.751C58.903 190.715 59.2776 190.594 59.5932 190.37C60.1447 189.98 60.4678 189.384 60.6978 188.789C60.9769 188.067 61.1928 187.321 61.4088 186.582C61.9444 184.752 62.4004 182.893 62.5873 181.001C62.6072 180.801 62.3082 180.728 62.2534 180.933Z" fill="#263238"/>
<path fill-rule="evenodd" clip-rule="evenodd" d="M41.5537 184.844C41.4057 185.638 41.312 186.439 41.1259 187.226C40.9435 187.995 40.7304 188.764 40.4719 189.512C40.225 190.228 39.9211 190.951 39.478 191.573C39.0487 192.177 38.4811 192.698 37.8952 193.154C36.7467 194.048 35.4466 194.758 34.066 195.245C33.3709 195.489 32.6597 195.697 31.939 195.856C31.5625 195.939 31.1831 196.003 30.8015 196.051C30.4837 196.091 30.1695 196.102 29.8853 196.259C29.7644 196.326 29.7849 196.513 29.9029 196.57C30.3899 196.805 31.0762 196.675 31.5962 196.622C32.2064 196.561 32.8113 196.46 33.4053 196.311C34.6029 196.01 35.7638 195.516 36.8251 194.897C37.8666 194.29 38.9147 193.532 39.6838 192.604C40.4807 191.643 40.9267 190.515 41.2124 189.319C41.5544 187.886 41.7902 186.329 41.7097 184.857C41.7053 184.77 41.5698 184.756 41.5537 184.844Z" fill="#263238"/>
<path fill-rule="evenodd" clip-rule="evenodd" d="M91.8208 243.201C91.5307 238.694 91.1464 234.192 90.6679 229.699C90.5496 228.591 90.4353 227.482 90.2949 226.376C90.186 225.522 90.045 224.655 89.7222 223.85C89.0445 222.161 87.6008 221.308 85.8565 220.879C83.7979 220.371 81.6673 220.068 79.572 219.738C77.4306 219.399 75.2825 219.096 73.1338 218.805C68.7822 218.214 64.4226 217.668 60.0897 216.957C55.7762 216.25 51.4807 215.382 47.2908 214.15C43.4405 213.017 39.4919 211.617 36.4102 209.014C29.7775 203.414 29.5342 194.027 30.3456 186.173C30.4599 185.064 30.5989 183.958 30.7366 182.852C30.7439 182.794 30.6523 182.774 30.6457 182.832C30.1203 187.255 29.5101 191.705 29.9613 196.16C30.3302 199.801 31.4236 203.458 33.5877 206.483C35.8327 209.621 39.1597 211.65 42.7494 213.062C46.674 214.606 50.8224 215.646 54.9581 216.49C63.5604 218.245 72.3351 218.988 80.9909 220.432C82.0589 220.611 83.1243 220.799 84.1876 221.001C85.1607 221.186 86.1599 221.357 87.0708 221.754C89.0364 222.61 89.5778 224.474 89.8211 226.401C90.3865 230.874 90.7701 235.376 91.1023 239.87C91.772 248.929 92.1282 258.036 92.1102 267.12C92.1082 268.24 92.1002 272.011 92.0895 273.132C92.0888 273.232 92.2452 273.222 92.2479 273.123C92.5292 264.027 92.4056 252.286 91.8208 243.201Z" fill="#263238"/>
<path fill-rule="evenodd" clip-rule="evenodd" d="M115.171 274.671C108.293 273.992 88.699 274.268 88.484 274.408C88.3799 274.477 88.4066 274.749 88.5128 274.76C91.9668 275.121 114.157 275.289 115.149 275.023C115.245 274.998 115.288 274.683 115.171 274.671Z" fill="#263238"/>
<path fill-rule="evenodd" clip-rule="evenodd" d="M57.825 189.753C63.8865 190.47 69.9089 191.943 75.77 193.733C81.6804 195.539 87.4835 197.786 93.0856 200.508C96.2324 202.038 99.2793 203.747 102.301 205.543C102.361 205.578 102.305 205.674 102.246 205.64C96.8246 202.586 91.1483 199.953 85.4059 197.694C79.6817 195.443 73.8233 193.591 67.8704 192.192C64.5186 191.403 61.1438 190.79 57.761 190.182C57.5377 190.142 57.5977 189.726 57.825 189.753Z" fill="#263238"/>
<path fill-rule="evenodd" clip-rule="evenodd" d="M87.0969 238.867C86.8741 235.712 86.5256 232.564 85.9768 229.442C85.7547 228.182 85.6922 226.552 84.2854 225.926C83.6277 225.633 70.5147 223.497 68.6343 223.53C68.5514 223.531 68.5128 223.648 68.5936 223.683C68.765 223.756 81.2287 225.968 82.8112 226.318C83.4626 226.463 84.1919 226.587 84.5623 227.171C84.9284 227.748 84.9747 228.545 85.0935 229.193C86.2171 235.308 86.6514 241.517 86.832 247.713C86.8819 249.428 86.91 251.144 86.9254 252.86C86.9416 254.623 86.8608 256.408 87.0034 258.165C87.0189 258.353 87.2943 258.341 87.3105 258.159C87.4553 256.56 87.4018 254.935 87.4131 253.332C87.425 251.723 87.4293 250.113 87.4194 248.504C87.4011 245.29 87.3231 242.074 87.0969 238.867Z" fill="#263238"/>
<path fill-rule="evenodd" clip-rule="evenodd" d="M57.9849 151.08C66.5052 162.252 86.7371 177.964 91.4833 174.311C97.3198 169.818 96.2356 153.291 96.3578 151.168C96.4889 148.891 77.3521 149.467 78.1188 151.787C78.5727 153.16 78.7855 154.631 78.4261 154.492C77.2973 154.054 74.7939 151.834 63.9227 145.824C57.8646 142.475 52.3443 143.684 57.9849 151.08Z" fill="#C95F50"/>
<path fill-rule="evenodd" clip-rule="evenodd" d="M77.4902 152.115L72.8003 156.902L66.8986 162.928C66.8986 162.928 60.1787 156.149 57.269 150.562C55.1362 146.451 55.0702 142.984 57.1881 142.226C57.9558 141.946 58.9981 142.021 60.3334 142.539C67.9472 145.51 77.4902 152.115 77.4902 152.115Z" fill="#FFBA5F"/>
<path fill-rule="evenodd" clip-rule="evenodd" d="M75.3684 150.018C73.1675 151.488 65.2105 156.947 64.5769 157.894C64.5629 157.914 64.6375 157.97 64.6665 157.959C65.9619 157.501 73.4768 151.716 75.4961 150.112C75.5343 150.082 75.4099 149.991 75.3684 150.018Z" fill="#263238"/>
<path fill-rule="evenodd" clip-rule="evenodd" d="M73.5164 156.856L67.3691 162.928C67.3691 162.928 60.3682 156.096 57.3371 150.466C55.1153 146.324 55.0466 142.83 57.2536 142.065L73.5164 156.856Z" fill="#263238"/>
<path fill-rule="evenodd" clip-rule="evenodd" d="M95.7906 141.349C96.9423 145.135 96.1731 153.77 95.1608 155.783C94.1479 157.797 78.9559 157.017 77.6058 155.127C76.255 153.237 73.3959 140.201 74.9703 136.474C76.5447 132.747 94.5972 137.427 95.7906 141.349Z" fill="#C95F50"/>
<path fill-rule="evenodd" clip-rule="evenodd" d="M80.9466 126.496C80.3573 124.725 77.5059 119.666 76.1332 120.257C74.7599 120.847 75.9797 124.849 76.5233 126.457C77.6441 129.769 77.6113 134.663 77.558 137.031C77.5046 139.399 82.4574 137.062 82.4574 137.062C82.4574 137.062 82.4741 131.081 80.9466 126.496Z" fill="#C95F50"/>
<path fill-rule="evenodd" clip-rule="evenodd" d="M75.5092 142.166C75.5092 142.166 75.2804 146.19 77.6389 147.023C79.9143 147.82 80.8212 144.635 80.8891 144.407C80.8792 144.62 80.7755 148.323 83.2408 148.939C85.8029 149.576 86.108 146.237 86.1271 146.022C86.1874 146.225 87.0318 148.908 89.0219 148.989C92.4414 149.128 90.4895 142.214 92.0005 140.106C92.0005 140.106 96.2301 142.022 96.3659 142.054C96.3659 142.054 94.6573 135.442 91.4101 133.752C89.6985 132.86 88.4444 134.132 88.4444 134.132C88.4444 134.132 88.1538 131.945 86.2301 131.405C85.2415 131.13 83.8777 132.32 83.8777 132.32C83.8777 132.32 83.5642 130.577 81.8189 130.194C80.4284 129.884 79.0844 131.101 78.7419 131.64C76.1057 135.787 75.5092 142.166 75.5092 142.166Z" fill="#C95F50"/>
<path fill-rule="evenodd" clip-rule="evenodd" d="M82.4546 130.191C82.4684 130.155 82.4283 130.124 82.4089 130.159C80.5314 133.52 79.3401 137.894 79.4897 141.942C79.4947 142.075 79.6792 142.122 79.6974 141.975C80.2192 137.768 80.9656 134.084 82.4546 130.191Z" fill="#263238"/>
<path fill-rule="evenodd" clip-rule="evenodd" d="M84.4415 131.192C84.4591 131.148 84.3953 131.114 84.3702 131.157C82.2873 134.795 80.9567 139.994 81.6485 144.851C81.6723 145.018 81.84 145.141 81.8257 144.947C81.5806 141.678 82.9703 134.851 84.4415 131.192Z" fill="#263238"/>
<path fill-rule="evenodd" clip-rule="evenodd" d="M87.2761 145.959C86.6827 141.166 87.6974 136.666 89.4081 132.193C89.4304 132.134 89.3452 132.109 89.3133 132.153C87.8758 134.115 87.0849 137.079 86.6652 139.437C86.2638 141.696 86.3594 143.813 87.1072 145.98C87.1367 146.063 87.2888 146.061 87.2761 145.959Z" fill="#263238"/>
<path fill-rule="evenodd" clip-rule="evenodd" d="M76.5219 140.5C76.5601 141.41 76.6599 142.316 76.8464 143.192C77.038 144.057 77.3279 144.939 77.8653 145.534C78.1317 145.825 78.4665 146.012 78.8284 146.032C79.1961 146.048 79.5808 145.98 79.9008 145.795C80.5512 145.439 80.9711 144.635 81.1414 143.866L81.5701 141.931L81.7778 143.913C81.8688 144.779 82.0744 145.678 82.4135 146.458C82.7504 147.238 83.2738 147.917 83.9594 148.124C84.6714 148.357 85.371 148.118 85.7527 147.429C86.1557 146.766 86.337 145.845 86.3825 145.003L86.5088 142.647L87.0858 144.909C87.2421 145.522 87.4792 146.155 87.7765 146.708C88.0767 147.259 88.4636 147.762 88.94 148.001C89.4061 148.238 89.9956 148.195 90.3663 147.839C90.7604 147.471 90.9873 146.827 91.1466 146.195C91.4585 144.899 91.5217 143.512 91.6464 142.141C91.7044 141.453 91.761 140.762 91.8483 140.074C91.9459 139.395 92.0428 138.678 92.3923 138.092C92.1016 138.71 92.0781 139.416 92.0216 140.094C91.9819 140.78 91.9731 141.469 91.9628 142.159C91.943 143.541 91.9092 144.931 91.6479 146.331C91.4974 147.017 91.311 147.756 90.7693 148.336C90.2055 148.928 89.3364 148.994 88.6728 148.663C87.9953 148.329 87.5416 147.717 87.1907 147.102C86.8428 146.472 86.5873 145.823 86.3943 145.11L87.0975 145.017C87.0505 146.014 86.8942 146.985 86.3796 147.891C86.1241 148.336 85.7123 148.734 85.2161 148.904C84.7192 149.077 84.2185 149.042 83.7531 148.89C82.7864 148.57 82.158 147.659 81.7954 146.782C81.4232 145.878 81.225 144.948 81.1355 143.97L81.7712 144.017C81.5245 144.987 80.9857 145.878 80.1225 146.313C79.6953 146.523 79.2358 146.576 78.7836 146.529C78.3167 146.481 77.88 146.202 77.5797 145.836C76.9778 145.084 76.7774 144.138 76.6321 143.24C76.4985 142.33 76.4684 141.411 76.5219 140.5Z" fill="#263238"/>
<path fill-rule="evenodd" clip-rule="evenodd" d="M79.0511 152.993C79.0511 152.993 67.4697 140.001 75.1584 138.288C77.4434 137.779 87.4806 138.219 87.4247 140.092C87.3514 142.51 83.1253 143.052 80.4132 143.002C80.4132 143.002 85.0233 146.906 83.0512 150.696C81.8146 153.072 79.0511 152.993 79.0511 152.993Z" fill="#C95F50"/>
<path fill-rule="evenodd" clip-rule="evenodd" d="M75.5032 138.691C76.3969 138.361 77.3736 138.251 78.3328 138.164C79.2984 138.08 80.2695 138.079 81.2367 138.111C83.1742 138.197 85.0872 138.333 87.0152 138.722C87.4976 138.825 87.9832 138.949 88.4648 139.19C88.7032 139.311 88.9488 139.477 89.1296 139.704C89.2219 139.815 89.2883 139.921 89.3506 140.088C89.3956 140.235 89.4185 140.377 89.4099 140.511C89.4012 141.058 89.1122 141.527 88.7514 141.893C88.3748 142.248 87.9287 142.508 87.4684 142.716C86.5399 143.121 85.553 143.307 84.5756 143.409C83.5958 143.521 82.6184 143.525 81.6449 143.509L81.8715 142.988C82.4202 143.459 82.8789 143.959 83.306 144.496C83.7284 145.032 84.0956 145.602 84.3869 146.203C84.6735 146.806 84.8646 147.445 84.9396 148.092C85.0209 148.74 84.9577 149.397 84.7611 150.013C84.8614 149.379 84.8456 148.739 84.7082 148.123C84.5748 147.506 84.3143 146.919 84.0008 146.361C83.6858 145.802 83.3013 145.276 82.8655 144.785C82.4312 144.298 81.9417 143.828 81.4286 143.435L80.7764 142.935L81.6551 142.914C82.6018 142.89 83.55 142.872 84.473 142.739C85.3928 142.616 86.3157 142.443 87.1092 142.08C87.8821 141.736 88.5951 141.156 88.6077 140.499C88.6756 139.923 87.695 139.577 86.8242 139.376C85.9257 139.16 84.9822 139.025 84.0411 138.89C83.0976 138.757 82.1525 138.636 81.2035 138.557C79.311 138.432 77.3767 138.291 75.5032 138.691Z" fill="#263238"/>
<path fill-rule="evenodd" clip-rule="evenodd" d="M79.4771 153.987L79.9648 155.737L80.4337 157.491L81.3799 160.987C81.6964 162.151 82.0223 163.309 82.3588 164.464C82.5288 165.04 82.6982 165.618 82.8893 166.183C83.0576 166.764 83.2663 167.319 83.4509 167.895C82.8975 166.868 82.4514 165.756 82.0405 164.629C81.6249 163.502 81.2843 162.339 80.956 161.171C80.6389 159.998 80.3493 158.814 80.1055 157.615C79.8581 156.417 79.6312 155.212 79.4771 153.987Z" fill="#263238"/>
<path fill-rule="evenodd" clip-rule="evenodd" d="M68.097 188.711C67.0611 189.507 26.02 189.946 25.8445 189.668C25.3732 188.915 36.5078 153.157 54.0054 142.046C57.0888 140.088 61.783 141.441 63.8202 142.963C64.8374 143.724 67.8012 149.517 68.2096 154.247C68.6125 158.969 68.7493 188.203 68.097 188.711Z" fill="#FF7642"/>
<path fill-rule="evenodd" clip-rule="evenodd" d="M66.5277 166.48C66.1086 165.767 65.6757 165.062 65.2153 164.378C64.1434 162.811 62.9203 161.3 61.3537 160.21C59.8008 159.113 57.8975 158.564 56.0285 158.614C55.6231 158.621 55.2246 158.643 54.8192 158.686C54.6955 158.7 54.5649 158.714 54.4344 158.735C54.0358 158.792 53.6373 158.864 53.2456 158.963C52.3455 159.206 51.466 159.555 50.6277 159.982C48.3808 161.165 46.4706 162.832 44.5742 164.499C44.4986 164.563 44.423 164.634 44.3474 164.691C43.4954 165.454 42.6365 166.202 41.757 166.907C40.3003 168.083 38.7474 169.136 37.0639 169.914C35.3805 170.676 33.5665 171.146 31.725 171.239C31.4364 171.253 31.1547 171.267 30.8729 171.267C30.8455 171.331 30.818 171.395 30.7974 171.46C31.1134 171.452 31.4295 171.438 31.7387 171.423C33.594 171.338 35.4354 170.861 37.1395 170.099C38.8504 169.314 40.4171 168.254 41.8875 167.085C42.7876 166.373 43.6603 165.61 44.5261 164.848C44.6016 164.784 44.6704 164.72 44.7459 164.656C46.6355 162.996 48.532 161.357 50.7376 160.21C51.5622 159.79 52.4211 159.455 53.3075 159.22C53.7472 159.106 54.1939 159.028 54.6474 158.971C54.7779 158.956 54.9085 158.942 55.039 158.935C55.3689 158.899 55.6987 158.885 56.0285 158.878C57.8631 158.842 59.6908 159.377 61.2025 160.445C62.7211 161.507 63.9235 162.989 64.9817 164.549C65.5314 165.368 66.0399 166.209 66.5346 167.071C66.5346 166.871 66.5346 166.672 66.5277 166.48ZM62.7073 176.482C60.7696 176.432 58.8594 175.904 57.1073 175.05C53.5686 173.305 50.7239 170.419 47.8861 167.634C46.8554 166.622 45.8316 165.61 44.7459 164.656C44.691 164.599 44.636 164.549 44.5742 164.499C44.2169 164.186 43.8527 163.879 43.4748 163.58C41.915 162.34 40.1835 161.25 38.2252 160.802C37.4762 160.623 36.7066 160.552 35.937 160.588C35.8821 160.68 35.834 160.773 35.779 160.873C36.5761 160.816 37.38 160.887 38.1702 161.072C40.0598 161.514 41.7638 162.583 43.303 163.815C43.6603 164.1 44.0038 164.392 44.3474 164.691C44.4093 164.741 44.4711 164.791 44.5261 164.848C45.6117 165.803 46.6493 166.836 47.6868 167.855C50.5109 170.647 53.3693 173.568 56.963 175.349C58.7495 176.232 60.7078 176.781 62.7004 176.831C63.9991 176.867 65.2909 176.724 66.5552 176.41C66.5552 176.29 66.5621 176.176 66.5552 176.054C65.2978 176.368 63.9991 176.518 62.7073 176.482ZM66.5621 174.658V174.993C66.3697 174.872 66.1704 174.737 65.9849 174.594C64.4595 173.454 63.2776 171.923 62.2057 170.355C61.1338 168.78 60.1718 167.135 59.1961 165.511C57.815 163.245 56.3995 160.93 54.6474 158.971C54.5718 158.892 54.5031 158.814 54.4344 158.735C53.7541 158.002 53.0258 157.325 52.2356 156.719C49.3084 154.432 45.3231 153.763 41.8394 154.846C40.3071 155.344 38.9191 156.242 37.7236 157.353C37.8885 157.061 38.0602 156.776 38.2252 156.484C39.2765 155.629 40.4583 154.938 41.7363 154.518C43.5366 153.927 45.4537 153.862 47.302 154.162C49.1573 154.482 50.9232 155.294 52.428 156.449C53.3006 157.118 54.0908 157.873 54.8192 158.686C54.8947 158.771 54.9703 158.849 55.039 158.935C56.7431 160.887 58.1173 163.138 59.4504 165.347C60.4261 166.978 61.3812 168.617 62.4393 170.184C63.4975 171.737 64.6656 173.255 66.1429 174.366C66.2803 174.466 66.4178 174.566 66.5621 174.658Z" fill="white"/>
<path fill-rule="evenodd" clip-rule="evenodd" d="M61.4622 150.012C58.7443 149.899 55.4747 145.141 54.6413 141.762C54.5859 141.531 57.9366 133.751 58.4282 132.145C58.5273 131.815 68.5491 137.453 68.5491 137.453C68.5491 137.453 66.4508 140.538 65.6127 143.342C65.5456 143.578 64.0903 150.119 61.4622 150.012Z" fill="#C95F50"/>
<path fill-rule="evenodd" clip-rule="evenodd" d="M58.6791 132.131C58.4834 134.871 58.4293 142.137 63.164 143.83C63.4724 143.932 63.76 144.012 64.0376 144.052C64.1332 143.608 64.1874 143.317 64.1987 143.269C64.8715 140.464 66.562 137.371 66.562 137.371C66.5576 137.362 66.5513 137.36 66.5393 137.356C66.5185 137.335 66.4669 137.304 66.4046 137.262C66.4002 137.253 66.3883 137.25 66.382 137.248C66.3216 137.199 66.2473 137.154 66.1579 137.089C66.1309 137.066 66.1019 137.05 66.0685 137.024C66.0125 136.984 65.9509 136.943 65.8885 136.902C65.8162 136.849 65.7438 136.797 65.6651 136.743C65.5468 136.661 65.4228 136.578 65.2881 136.484C65.2441 136.449 65.1988 136.42 65.1471 136.389C65.0521 136.322 64.9564 136.255 64.8551 136.187C64.5008 135.943 64.12 135.676 63.7141 135.401C63.5674 135.304 63.4227 135.199 63.2754 135.102C63.0891 134.977 62.9028 134.852 62.7184 134.72C62.5327 134.596 62.3465 134.472 62.1602 134.347C62.1375 134.332 62.1148 134.318 62.0859 134.302C61.7649 134.083 61.4427 133.871 61.1387 133.665C61.0311 133.595 60.9234 133.525 60.8221 133.456C60.6132 133.317 60.4093 133.186 60.2167 133.06C60.0744 132.972 59.9379 132.885 59.8076 132.8C59.4941 132.606 59.2204 132.439 59.0039 132.306C58.9403 132.271 58.8824 132.238 58.8245 132.205C58.7716 132.182 58.7263 132.153 58.6791 132.131Z" fill="#263238"/>
<path fill-rule="evenodd" clip-rule="evenodd" d="M62.0169 120.277C59.5767 123.274 57.5577 133.745 59.2244 136.844C61.6417 141.335 67.5432 143.81 72.0477 140.629C76.414 137.546 78.7919 123.856 76.7484 120.849C73.739 116.421 65.6208 115.85 62.0169 120.277Z" fill="#C95F50"/>
<path fill-rule="evenodd" clip-rule="evenodd" d="M68.5491 131.142C68.5502 131.125 68.4982 131.154 68.4926 131.171C68.3699 131.592 68.133 132.059 67.5716 132.104C67.554 132.105 67.5484 132.126 67.5682 132.128C68.2184 132.177 68.5248 131.555 68.5491 131.142Z" fill="#263238"/>
<path fill-rule="evenodd" clip-rule="evenodd" d="M68.2864 129.203C67.6362 128.727 67.255 131.646 67.8573 132.087C68.4501 132.521 68.8313 129.601 68.2864 129.203Z" fill="#263238"/>
<path fill-rule="evenodd" clip-rule="evenodd" d="M71.0825 133.127C71.1013 133.114 71.1451 133.15 71.1321 133.164C70.8073 133.497 70.5986 133.897 71.3934 134.099C71.4183 134.105 71.4004 134.121 71.3696 134.117C70.3254 133.954 70.6175 133.424 71.0825 133.127Z" fill="#263238"/>
<path fill-rule="evenodd" clip-rule="evenodd" d="M72.152 131.154C72.8302 131.474 72.4857 134.393 71.8578 134.097C71.2394 133.805 71.5838 130.887 72.152 131.154Z" fill="#263238"/>
<path fill-rule="evenodd" clip-rule="evenodd" d="M67.6149 137.123C67.696 137.356 67.7616 137.654 67.9403 137.766C68.1118 137.875 68.3458 137.862 68.5287 137.851C68.5467 137.849 68.5571 137.882 68.5416 137.899C68.3442 138.117 68.026 138.157 67.8049 137.982C67.589 137.81 67.5425 137.466 67.5585 137.132C67.5606 137.087 67.603 137.09 67.6149 137.123Z" fill="#263238"/>
<path fill-rule="evenodd" clip-rule="evenodd" d="M71.5392 134.623C71.5392 134.623 71.369 135.64 71.2087 136.102C71.1939 136.145 69.5858 135.67 67.7311 135.751C67.4533 135.764 67.5149 135.594 67.8487 135.52C68.5146 135.372 69.3458 135.26 70.8511 135.59C70.9366 135.471 71.0771 134.021 71.17 134.035C71.494 134.084 72.0579 134.393 72.4016 134.564C72.8332 132.453 72.8373 130.305 73.3059 128.209C73.3248 128.135 73.4629 128.142 73.4678 128.213C73.6627 130.465 73.2335 132.902 72.8578 135.09C72.8143 135.363 71.7439 134.753 71.5392 134.623Z" fill="#263238"/>
<path fill-rule="evenodd" clip-rule="evenodd" d="M68.0652 128.226C68.438 128.186 68.792 128.19 69.1664 128.175C69.5897 128.159 69.9233 128.117 70.3051 128.261C70.5098 128.338 70.593 128.556 70.4951 128.691C70.2667 129.004 69.7561 129.107 69.2488 129.141C68.6974 129.177 68.2585 129.114 67.7969 128.918C67.3499 128.729 67.5734 128.278 68.0652 128.226Z" fill="#263238"/>
<path fill-rule="evenodd" clip-rule="evenodd" d="M73.3108 128.692C72.9986 128.578 72.6604 128.492 72.3211 128.391C71.9381 128.277 71.6632 128.171 71.16 128.157C70.8897 128.15 70.5933 128.252 70.5514 128.353C70.4536 128.587 70.8329 128.772 71.2792 128.916C71.7638 129.073 72.241 129.147 72.8719 129.15C73.4842 129.154 73.7227 128.843 73.3108 128.692Z" fill="#263238"/>
<path fill-rule="evenodd" clip-rule="evenodd" d="M63.755 129.111C64.2112 129.436 64.2979 127.669 64.3183 127.047C64.3432 126.421 64.5753 125.177 64.5753 125.177C64.5753 125.177 64.2953 126.387 64.0833 126.879C63.8725 127.365 63.2954 128.784 63.755 129.111Z" fill="white"/>
<path fill-rule="evenodd" clip-rule="evenodd" d="M57.4131 132.126C57.4131 132.126 55.7383 124.235 57.2792 120.566C57.9759 118.907 60.5376 118.533 60.5376 118.533C60.5376 118.533 60.5369 116.214 62.9155 115.046C65.4231 113.814 69.9082 115.883 69.9082 115.883C69.9082 115.883 74.3491 112.347 78.0129 115.676C81.6766 119.006 77.3105 123.13 77.3105 123.13C77.3105 123.13 78.1283 126.028 73.7543 126.511C69.495 126.983 62.4874 122.542 62.4874 122.542C62.4874 122.542 61.8035 126.876 59.7533 130.822C58.9939 132.284 57.4131 132.126 57.4131 132.126Z" fill="#263238"/>
<path fill-rule="evenodd" clip-rule="evenodd" d="M71.5089 117.887C70.6567 117.299 69.6117 116.904 68.5273 116.627C67.5658 116.382 66.5352 116.219 65.5183 116.237C63.7 116.268 61.856 116.816 60.987 118.115C60.5507 118.769 60.4877 119.5 60.7821 120.196C60.7943 120.224 60.852 120.204 60.8375 120.176C60.2251 118.915 61.4462 117.513 62.8858 116.959C64.5151 116.332 66.5352 116.455 68.2366 116.831C69.3749 117.083 70.4237 117.504 71.4467 117.954C71.5074 117.981 71.5597 117.923 71.5089 117.887Z" fill="#263238"/>
<path fill-rule="evenodd" clip-rule="evenodd" d="M80.4686 120.133C80.5173 118.967 79.6768 117.981 78.551 117.313C77.2671 116.552 75.6537 116.193 74.0719 116.239C72.4593 116.286 70.9089 116.734 69.5542 117.434C69.5243 117.45 69.5574 117.492 69.588 117.477C72.0418 116.268 75.1899 116.053 77.716 117.255C78.8458 117.793 79.8522 118.63 80.0267 119.724C80.1879 120.73 79.6226 121.8 78.7617 122.511C77.6979 123.389 76.2017 123.867 74.748 124.139C74.715 124.146 74.7236 124.187 74.7574 124.183C76.1373 123.989 77.4998 123.638 78.6084 122.921C79.6556 122.245 80.4222 121.237 80.4686 120.133Z" fill="#263238"/>
<path fill-rule="evenodd" clip-rule="evenodd" d="M75.4766 127.973C73.4282 128.146 71.3797 127.745 69.4553 127.063C67.4403 126.349 65.5516 125.386 63.7398 124.259C62.6882 123.606 61.6617 122.913 60.6488 122.202C60.6154 122.179 60.5834 122.227 60.6131 122.252C62.329 123.712 64.1195 125.092 66.1109 126.166C67.9661 127.167 69.9392 127.843 72.0432 128.076C73.1885 128.203 74.3436 128.178 75.485 128.018C75.5147 128.014 75.5056 127.971 75.4766 127.973Z" fill="#263238"/>
<path fill-rule="evenodd" clip-rule="evenodd" d="M60.6013 130.718C60.6013 130.718 59.5504 126.91 57.8898 127.177C56.2292 127.443 56.259 132.433 57.6737 133.616C59.0884 134.799 60.2131 133.518 60.2131 133.518L60.6013 130.718Z" fill="#C95F50"/>
<path fill-rule="evenodd" clip-rule="evenodd" d="M58.6696 128.159C58.6545 128.149 58.6442 128.178 58.6553 128.193C59.2279 128.926 59.359 129.999 59.3769 131.049C59.2659 130.592 59.0432 130.258 58.6276 130.428C58.6058 130.437 58.6129 130.485 58.6331 130.489C58.9279 130.545 59.1086 130.715 59.2156 131.125C59.2913 131.416 59.3111 131.744 59.3408 132.051C59.3511 132.153 59.4704 132.162 59.472 132.051C59.472 132.043 59.472 132.035 59.472 132.026C59.7921 130.808 59.5544 128.752 58.6696 128.159Z" fill="#263238"/>
<path fill-rule="evenodd" clip-rule="evenodd" d="M47.5975 150.81C45.6236 161.419 46.8105 183.668 51.8453 187.395C57.6745 191.711 83.1949 192.597 88.8701 190.991C91.1291 190.352 85.7512 175.989 83.2328 176.006C72.6788 176.077 63.784 174.912 62.8781 173.714C61.4865 171.875 57.8447 158.935 55.3635 150.831C52.2459 140.649 48.4838 146.049 47.5975 150.81Z" fill="#C95F50"/>
<path fill-rule="evenodd" clip-rule="evenodd" d="M110.486 160.192L93.7873 171.39C93.2963 171.719 93.249 172.257 93.6817 172.592L101.434 178.571C101.866 178.905 102.617 178.908 103.108 178.579L119.807 167.382C120.299 167.052 120.346 166.514 119.913 166.18L112.161 160.201C111.729 159.867 110.978 159.863 110.486 160.192Z" fill="#263238"/>
<path fill-rule="evenodd" clip-rule="evenodd" d="M110.486 158.206L93.7878 169.403C93.2961 169.732 93.2489 170.27 93.6822 170.604L101.433 176.584C101.866 176.918 102.617 176.921 103.109 176.592L119.807 165.395C120.299 165.065 120.346 164.526 119.913 164.193L112.161 158.214C111.729 157.88 110.978 157.876 110.486 158.206Z" fill="#37474F"/>
<path fill-rule="evenodd" clip-rule="evenodd" d="M110.116 159.422L94.7777 169.974C94.3088 170.297 94.2448 170.807 94.633 171.115L101.581 176.613C101.97 176.921 102.665 176.909 103.133 176.587L118.472 166.035C119.427 165.377 119.322 164.983 118.934 164.674L117.542 163.574C117.461 163.509 117.293 163.528 117.166 163.615L117.111 163.652C116.814 163.857 116.667 163.743 116.487 163.6L113.269 161.053C113.087 160.91 112.943 160.794 113.241 160.59L113.296 160.552C113.423 160.465 113.459 160.343 113.378 160.278L111.986 159.176C111.597 158.869 110.991 158.82 110.116 159.422Z" fill="white"/>
<path fill-rule="evenodd" clip-rule="evenodd" d="M116.255 162.059L117.093 162.906C117.122 162.935 117.171 162.936 117.203 162.907C117.235 162.879 117.238 162.834 117.209 162.804L116.371 161.957C116.342 161.928 116.293 161.927 116.261 161.956C116.229 161.983 116.227 162.029 116.255 162.059Z" fill="white"/>
<path fill-rule="evenodd" clip-rule="evenodd" d="M102.327 166.839L108.905 170.876L116.235 166.965L109.658 162.928L102.327 166.839Z" fill="#FF7642"/>
<path fill-rule="evenodd" clip-rule="evenodd" d="M104.314 169.153L107.887 171.869L108.288 171.605L104.714 168.889L104.314 169.153Z" fill="#A6A6A6"/>
<path fill-rule="evenodd" clip-rule="evenodd" d="M103.32 170.001L107.114 172.863L107.294 172.746L103.5 169.882L103.32 170.001Z" fill="#A6A6A6"/>
<path fill-rule="evenodd" clip-rule="evenodd" d="M103.32 170L107.114 172.863L107.294 172.745L103.5 169.882L103.32 170Z" fill="#A6A6A6"/>
<path fill-rule="evenodd" clip-rule="evenodd" d="M103.32 170L107.114 172.863L107.294 172.746L103.5 169.882L103.32 170Z" fill="#A6A6A6"/>
<path fill-rule="evenodd" clip-rule="evenodd" d="M116.235 166.085L117.052 166.873L117.229 166.725L116.412 165.937L116.235 166.085Z" fill="#A6A6A6"/>
<path fill-rule="evenodd" clip-rule="evenodd" d="M116.235 166.085L117.052 166.873L117.229 166.725L116.412 165.937L116.235 166.085Z" fill="#A6A6A6"/>
<path fill-rule="evenodd" clip-rule="evenodd" d="M116.235 166.085L117.052 166.873L117.229 166.725L116.412 165.937L116.235 166.085Z" fill="#A6A6A6"/>
<path fill-rule="evenodd" clip-rule="evenodd" d="M101.361 167.357C101.303 167.581 101.354 167.742 101.354 167.742C101.354 167.742 101.568 167.801 101.861 167.772C102.196 167.744 102.45 167.531 102.263 167.376C102.116 167.254 101.847 167.387 101.847 167.387C101.847 167.387 102.048 167.197 101.9 167.075C101.713 166.92 101.42 167.101 101.361 167.357Z" fill="#FFC727"/>
<path fill-rule="evenodd" clip-rule="evenodd" d="M97.3594 170.745L101.878 173.856L103.32 172.993L98.8017 169.882L97.3594 170.745Z" fill="#FFC727"/>
<path fill-rule="evenodd" clip-rule="evenodd" d="M88.9543 190.745C90.1834 190.748 100.514 188.121 103.644 186.318C105.64 185.168 109.083 183.175 112.626 179.285C116.714 174.797 119.125 171.298 119.201 169.36C119.29 167.108 119.227 166.715 110.948 173.613C106.263 177.516 103.27 177.046 100.86 176.104C90.9852 172.244 81.4641 174.882 81.4641 174.882C81.4641 174.882 84.2288 190.731 88.9543 190.745Z" fill="#C95F50"/>
<path fill-rule="evenodd" clip-rule="evenodd" d="M100.322 176.695C97.7719 175.888 107.868 173.879 109.032 171.257C110.196 168.636 107.057 168.54 104.252 169.307C94.5185 171.969 88.8087 169.785 82.959 173.475C82.3425 173.865 80.5059 174.698 80.4735 175C80.1997 177.563 100.322 176.695 100.322 176.695Z" fill="#C95F50"/>
<path fill-rule="evenodd" clip-rule="evenodd" d="M93.3459 170.008C91.3793 169.843 89.4164 169.78 87.4674 170.202C85.655 170.592 84.0329 171.572 82.4878 172.721C82.4217 172.771 82.4746 172.901 82.5436 172.852C85.8019 170.546 89.6484 170.326 93.3414 170.11C93.3958 170.107 93.4031 170.013 93.3459 170.008Z" fill="#263238"/>
<path fill-rule="evenodd" clip-rule="evenodd" d="M44.734 163.922L51.3197 162.69L59.6078 161.14C59.6078 161.14 57.6622 151.94 55.2868 146.202C52.8441 140.303 48.7887 138.375 46.5414 146.485C44.3346 154.451 44.734 163.922 44.734 163.922Z" fill="#FFBA5F"/>
<path fill-rule="evenodd" clip-rule="evenodd" d="M45.7258 160.758C48.4091 160.081 58.2605 157.751 59.5746 157.976C59.6037 157.981 59.6213 158.088 59.5953 158.104C58.4361 158.829 48.4811 160.526 45.7557 160.941C45.7043 160.949 45.6752 160.771 45.7258 160.758Z" fill="#263238"/>
<path fill-rule="evenodd" clip-rule="evenodd" d="M47.6863 164.585C47.4108 164.696 47.1333 164.791 46.8562 164.889L46.783 164.915L46.7748 164.801C46.7062 163.811 46.6944 162.823 46.6929 161.832C46.697 160.843 46.7282 159.855 46.7794 158.869C46.8327 157.883 46.8972 156.898 47.0022 155.919C47.0959 154.939 47.2126 153.962 47.3658 152.993C47.3545 153.984 47.3156 154.969 47.2777 155.953C47.2485 156.938 47.1983 157.919 47.1563 158.901C47.0775 160.865 46.975 162.829 46.9126 164.794L46.8311 164.707C47.1159 164.663 47.3996 164.616 47.6863 164.585Z" fill="#263238"/>
<path fill-rule="evenodd" clip-rule="evenodd" d="M46.7599 153.987C47.0658 154.635 47.2417 155.291 47.3967 155.951C47.4632 156.281 47.5348 156.612 47.5725 156.947C47.6132 157.281 47.656 157.616 47.647 157.961C47.2705 157.333 47.0619 156.674 46.9069 156.01C46.7708 155.344 46.6824 154.672 46.7599 153.987Z" fill="#263238"/>
<path fill-rule="evenodd" clip-rule="evenodd" d="M58.9509 161.935C59.1431 161.878 59.3338 161.818 59.5269 161.769L59.4771 161.841C59.1774 160.951 58.9299 160.05 58.6582 159.156L57.9328 156.453C57.4735 154.644 57.0361 152.838 56.6274 151.007C57.0462 151.854 57.3755 152.737 57.6806 153.624C57.9966 154.51 58.2488 155.413 58.494 156.316C58.7353 157.221 58.947 158.131 59.1377 159.047C59.3066 159.968 59.4895 160.884 59.6 161.815L59.6078 161.882L59.5502 161.888C59.3517 161.91 59.1509 161.92 58.9509 161.935Z" fill="#263238"/>
<path fill-rule="evenodd" clip-rule="evenodd" d="M58.0282 152C58.2706 152.487 58.3471 152.987 58.3659 153.489C58.364 153.74 58.358 153.992 58.2994 154.242C58.2457 154.492 58.1772 154.743 58.0282 154.98C57.9229 154.472 57.8841 153.988 57.8692 153.493C57.8702 152.999 57.8841 152.506 58.0282 152Z" fill="#263238"/>
<path fill-rule="evenodd" clip-rule="evenodd" d="M93.3707 110.926C93.5595 113.112 91.9407 115.038 89.7545 115.227C87.5677 115.416 85.6423 113.797 85.453 111.61C85.2642 109.424 86.8829 107.498 89.0692 107.309C91.256 107.12 93.1814 108.739 93.3707 110.926Z" fill="white"/>
<path fill-rule="evenodd" clip-rule="evenodd" d="M92.3755 110.927C92.2876 109.93 91.7807 108.981 91.0008 108.369C90.2227 107.753 89.2075 107.486 88.2555 107.609C87.2992 107.727 86.4258 108.238 85.8526 108.972C85.2739 109.701 84.9891 110.642 85.0752 111.558C85.1476 112.476 85.5889 113.355 86.2847 113.974C86.9742 114.6 87.9244 114.953 88.8869 114.905C89.8463 114.862 90.8014 114.425 91.4607 113.685C92.1242 112.947 92.4603 111.925 92.3755 110.927ZM92.3755 110.927C92.4696 111.923 92.1583 112.95 91.5269 113.74C90.9036 114.536 89.9503 115.088 88.9135 115.211C87.8817 115.342 86.7811 115.048 85.943 114.381C85.1018 113.717 84.5527 112.689 84.4586 111.612C84.3658 110.535 84.7285 109.427 85.4441 108.629C86.1547 107.826 87.1896 107.348 88.2289 107.299C89.2713 107.244 90.3056 107.625 91.0565 108.302C91.8141 108.972 92.2975 109.93 92.3755 110.927Z" fill="#263238"/>
<path fill-rule="evenodd" clip-rule="evenodd" d="M84.437 118.051C84.5319 119.144 83.7223 120.107 82.6286 120.202C81.5355 120.296 80.5726 119.487 80.4783 118.394C80.3834 117.301 81.1935 116.338 82.2866 116.243C83.3798 116.149 84.3427 116.958 84.437 118.051Z" fill="white"/>
<path fill-rule="evenodd" clip-rule="evenodd" d="M85.4224 116.975C85.3561 116.251 84.9801 115.564 84.4067 115.136C83.8333 114.705 83.1006 114.545 82.4343 114.654C81.0651 114.864 80.1594 116.186 80.292 117.418C80.3721 118.654 81.4913 119.805 82.8782 119.776C83.5535 119.768 84.2482 119.484 84.7383 118.962C85.23 118.441 85.4815 117.699 85.4224 116.975ZM85.4224 116.975C85.581 118.422 84.4989 119.954 82.913 120.176C82.1423 120.294 81.2988 120.098 80.6462 119.601C79.992 119.106 79.5617 118.316 79.4873 117.488C79.4178 116.658 79.7041 115.806 80.2637 115.206C80.8209 114.603 81.6199 114.265 82.3995 114.25C84.0015 114.197 85.3294 115.523 85.4224 116.975Z" fill="#263238"/>
<path fill-rule="evenodd" clip-rule="evenodd" d="M126.657 91.7809C127.456 98.3791 122.771 104.377 116.191 105.184C114.034 105.446 111.938 105.118 110.073 104.326C108.485 106.409 106.092 107.87 103.292 108.213C99.6119 108.661 96.1491 107.054 94.0525 104.292C93.6206 104.422 93.1681 104.518 92.7056 104.574C88.2265 105.118 84.1545 101.922 83.6121 97.4315C83.3608 95.3393 83.9133 93.3385 85.0342 91.7408C83.7127 90.0621 82.823 88.016 82.5464 85.7426C81.7467 79.1397 86.4318 73.1415 93.0122 72.3403C96.0078 71.9768 98.8782 72.7486 101.195 74.3257C102.784 72.335 105.122 70.9437 107.846 70.6109C112.552 70.0362 116.895 72.8188 118.488 77.0782C118.9 76.9372 119.333 76.8409 119.78 76.7855C123.395 76.3471 126.677 78.9279 127.115 82.5471C127.355 84.5331 126.692 86.4229 125.445 87.7941C126.069 89.009 126.486 90.3495 126.657 91.7809Z" fill="white"/>
<path fill-rule="evenodd" clip-rule="evenodd" d="M126.639 91.7581C126.471 90.3834 126.062 89.0378 125.426 87.8089L125.422 87.8016L125.428 87.7956C126.391 86.7331 126.989 85.3477 127.095 83.9186C127.203 82.4929 126.84 81.0273 126.048 79.8382C125.274 78.6371 124.088 77.7124 122.739 77.2531C121.399 76.7752 119.894 76.7811 118.555 77.2411L118.491 77.263L118.466 77.1987C117.829 75.5741 116.782 74.1112 115.42 73.0301C114.075 71.9278 112.425 71.2192 110.72 70.9574C109.011 70.7022 107.237 70.8977 105.633 71.5301C104.031 72.1657 102.607 73.2303 101.543 74.5811L101.418 74.7402L101.248 74.6262C98.9545 73.0791 96.1093 72.3977 93.3799 72.7424C90.6491 73.0718 88.0559 74.3776 86.1935 76.402C84.3139 78.4111 83.222 81.1155 83.1254 83.8524C82.9965 86.5932 83.8787 89.3672 85.5784 91.5241L85.7233 91.7077L85.589 91.8986C84.6611 93.2124 84.1492 94.8178 84.1631 96.4312C84.1671 97.2372 84.3046 98.0412 84.5407 98.8115C84.796 99.5757 85.1598 100.303 85.6221 100.964C86.5731 102.263 87.9058 103.3 89.4395 103.82C90.2 104.089 91.0056 104.247 91.8158 104.255C92.6239 104.272 93.442 104.191 94.2178 103.953L94.3673 103.907L94.4612 104.032C95.3633 105.23 96.5405 106.221 97.8791 106.905C99.2158 107.595 100.719 107.95 102.224 107.969C103.732 107.985 105.245 107.647 106.605 106.985C107.971 106.331 109.171 105.341 110.106 104.145L110.152 104.086L110.218 104.116C112.108 104.935 114.219 105.242 116.272 104.997C118.314 104.717 120.317 103.966 121.959 102.696C122.805 102.093 123.512 101.324 124.179 100.534C124.791 99.6983 125.363 98.8234 125.752 97.8583C126.592 95.9553 126.852 93.8222 126.639 91.7581ZM126.639 91.7581C126.863 93.8209 126.615 95.9586 125.784 97.8715C125.399 98.8419 124.829 99.7229 124.219 100.565C123.554 101.363 122.847 102.14 122 102.751C120.356 104.037 118.343 104.806 116.285 105.099C114.219 105.374 112.077 105.096 110.145 104.29L110.257 104.26C109.321 105.492 108.108 106.523 106.717 107.213C105.331 107.912 103.781 108.282 102.224 108.287C100.669 108.29 99.1073 107.945 97.7079 107.249C96.3077 106.557 95.0664 105.543 94.1047 104.303L94.3475 104.382C93.5274 104.646 92.6643 104.745 91.8065 104.739C90.9467 104.741 90.0876 104.586 89.2721 104.31C87.6287 103.781 86.1836 102.692 85.1604 101.298C84.6591 100.592 84.2643 99.813 83.9852 98.9917C83.7259 98.1658 83.5751 97.3028 83.5659 96.4358C83.5414 94.6992 84.0831 92.9618 85.0778 91.5381L85.0883 91.9119C83.2927 89.6489 82.3139 86.7231 82.4746 83.8258C82.5924 80.9345 83.763 78.0916 85.7504 75.9897C87.7199 73.8712 90.456 72.5144 93.3171 72.1869C96.1808 71.8661 99.1397 72.6238 101.495 74.2623L101.201 74.3067C102.331 72.9114 103.831 71.825 105.502 71.1894C107.175 70.557 109.009 70.3827 110.765 70.6704C112.518 70.964 114.198 71.7176 115.556 72.8624C116.932 73.9872 117.975 75.4926 118.598 77.149L118.509 77.1072C119.887 76.6565 121.412 76.6771 122.77 77.1636C124.136 77.6375 125.33 78.5814 126.107 79.7991C126.901 81.0061 127.258 82.4869 127.142 83.922C127.027 85.361 126.418 86.7503 125.445 87.8109L125.447 87.7983C126.077 89.0332 126.479 90.3821 126.639 91.7581Z" fill="#263238"/>
<path fill-rule="evenodd" clip-rule="evenodd" d="M107.411 97.552L107.296 98.1094C107.117 98.9765 106.336 99.4911 105.475 99.3105C104.676 99.1431 104.102 98.3439 104.282 97.4768L104.397 96.9195C104.57 96.0834 105.418 95.5503 106.218 95.7184C107.079 95.8983 107.584 96.7152 107.411 97.552ZM108.814 90.7683L108.398 92.7818C108.219 93.6496 107.438 94.1642 106.576 93.9836C105.778 93.8155 105.204 93.017 105.383 92.1492L106.05 88.9288C106.056 88.8978 106.087 88.9045 106.093 88.8728C106.069 88.8359 106.069 88.8359 106.076 88.8042C106.242 87.9991 107.097 87.4351 107.896 87.6024C109.834 88.0094 111.723 86.79 112.12 84.8693C112.523 82.9178 111.269 81.0709 109.331 80.6646C108.071 80.4007 106.822 80.8497 106.027 81.7492C105.442 82.4024 104.468 82.4562 103.82 81.8679C103.202 81.2862 103.141 80.3365 103.726 79.6833C105.23 77.9949 107.591 77.133 109.959 77.63C113.527 78.3783 115.846 81.9025 115.103 85.4953C114.469 88.5616 111.815 90.6872 108.814 90.7683Z" fill="#FF7642"/>
<path fill-rule="evenodd" clip-rule="evenodd" d="M93.1787 79.7763L93.1032 79.2163C92.9856 78.3448 93.6087 77.6093 94.5568 77.5018C95.4367 77.401 96.303 77.9668 96.4206 78.8383L96.4953 79.399C96.6082 80.2398 95.9223 81.0133 95.0425 81.1134C94.0943 81.2209 93.2916 80.617 93.1787 79.7763ZM94.0959 86.5952L93.8233 84.5715C93.7064 83.6993 94.3287 82.9646 95.2769 82.8571C96.1567 82.7569 97.023 83.3221 97.1407 84.1935L97.5762 87.4315C97.5802 87.463 97.5468 87.4666 97.5508 87.4981C97.5881 87.5251 97.5881 87.5251 97.5929 87.5566C97.7018 88.3659 97.0191 89.1708 96.1392 89.271C94.0069 89.5137 92.4904 91.2661 92.7495 93.1969C93.0134 95.1584 94.9447 96.4876 97.0771 96.2449C98.4648 96.0869 99.5918 95.2637 100.096 94.1627C100.469 93.3614 101.452 92.9966 102.323 93.3402C103.16 93.6875 103.552 94.5597 103.179 95.361C102.219 97.43 100.094 98.9989 97.488 99.2957C93.561 99.7431 89.9519 97.1821 89.4663 93.5705C89.0522 90.4882 91.04 87.6377 94.0959 86.5952Z" fill="#FF7642"/>
<path d="M163.282 190.755H165.071V190.378H163.719V189.501H164.999V189.138H163.719V188.313H165.071V187.937H163.282V190.755ZM165.559 190.755H165.983V189.511C165.983 189.169 166.176 188.956 166.487 188.956C166.797 188.956 166.944 189.13 166.944 189.481V190.755H167.365V189.382C167.365 188.876 167.104 188.593 166.629 188.593C166.321 188.593 166.117 188.729 166.014 188.956H165.983V188.634H165.559V190.755ZM168.662 190.769C168.744 190.769 168.822 190.759 168.891 190.747V190.409C168.832 190.415 168.795 190.417 168.73 190.417C168.521 190.417 168.435 190.323 168.435 190.095V188.968H168.891V188.634H168.435V188.099H168.004V188.634H167.672V188.968H168.004V190.196C168.004 190.604 168.195 190.769 168.662 190.769ZM170.156 190.796C170.699 190.796 170.992 190.483 171.062 190.204L171.066 190.187L170.658 190.188L170.65 190.204C170.599 190.313 170.437 190.448 170.166 190.448C169.816 190.448 169.593 190.212 169.586 189.806H171.089V189.657C171.089 189.021 170.726 188.593 170.134 188.593C169.543 188.593 169.16 189.036 169.16 189.698V189.7C169.16 190.372 169.535 190.796 170.156 190.796ZM170.136 188.94C170.423 188.94 170.636 189.124 170.67 189.503H169.591C169.629 189.138 169.847 188.94 170.136 188.94ZM171.497 190.755H171.921V189.487C171.921 189.181 172.142 188.981 172.466 188.981C172.546 188.981 172.618 188.991 172.695 189.007V188.616C172.652 188.606 172.577 188.597 172.509 188.597C172.226 188.597 172.029 188.729 171.952 188.954H171.921V188.634H171.497V190.755ZM174.891 190.796C175.434 190.796 175.727 190.483 175.798 190.204L175.801 190.187L175.393 190.188L175.385 190.204C175.335 190.313 175.173 190.448 174.901 190.448C174.551 190.448 174.329 190.212 174.321 189.806H175.825V189.657C175.825 189.021 175.462 188.593 174.87 188.593C174.278 188.593 173.895 189.036 173.895 189.698V189.7C173.895 190.372 174.27 190.796 174.891 190.796ZM174.872 188.94C175.159 188.94 175.372 189.124 175.405 189.503H174.327C174.364 189.138 174.583 188.94 174.872 188.94ZM176.233 190.755H176.657V189.452C176.657 189.175 176.846 188.956 177.102 188.956C177.352 188.956 177.51 189.108 177.51 189.351V190.755H177.932V189.413C177.932 189.157 178.11 188.956 178.379 188.956C178.657 188.956 178.789 189.101 178.789 189.394V190.755H179.211V189.292C179.211 188.851 178.961 188.593 178.534 188.593C178.239 188.593 177.995 188.743 177.887 188.972H177.854C177.76 188.743 177.555 188.593 177.266 188.593C176.989 188.593 176.782 188.728 176.688 188.96H176.657V188.634H176.233V190.755ZM180.289 190.79C180.57 190.79 180.793 190.669 180.918 190.454H180.951V190.755H181.371V189.304C181.371 188.858 181.07 188.593 180.537 188.593C180.055 188.593 179.721 188.825 179.67 189.173L179.668 189.187H180.076L180.078 189.179C180.129 189.028 180.283 188.942 180.518 188.942C180.805 188.942 180.951 189.071 180.951 189.304V189.491L180.377 189.524C179.871 189.556 179.586 189.776 179.586 190.155V190.159C179.586 190.544 179.885 190.79 180.289 190.79ZM180.008 190.142V190.138C180.008 189.946 180.141 189.841 180.434 189.823L180.951 189.79V189.972C180.951 190.245 180.719 190.452 180.402 190.452C180.174 190.452 180.008 190.337 180.008 190.142ZM182.094 188.255C182.238 188.255 182.359 188.136 182.359 187.991C182.359 187.845 182.238 187.726 182.094 187.726C181.947 187.726 181.828 187.845 181.828 187.991C181.828 188.136 181.947 188.255 182.094 188.255ZM181.881 190.755H182.303V188.634H181.881V190.755ZM182.843 190.755H183.267V187.802H182.843V190.755Z" fill="#000A14"/>
<path d="M165.294 151.993H165.95V150.224H167.767V149.67H165.95V148.331H167.934V147.766H165.294V151.993ZM169.917 152.055C170.848 152.055 171.42 151.431 171.42 150.406V150.4C171.42 149.374 170.845 148.75 169.917 148.75C168.985 148.75 168.411 149.377 168.411 150.4V150.406C168.411 151.431 168.982 152.055 169.917 152.055ZM169.917 151.525C169.369 151.525 169.061 151.112 169.061 150.406V150.4C169.061 149.694 169.369 149.281 169.917 149.281C170.462 149.281 170.772 149.694 170.772 150.4V150.406C170.772 151.109 170.462 151.525 169.917 151.525ZM172.034 151.993H172.67V150.092C172.67 149.632 173.001 149.333 173.488 149.333C173.608 149.333 173.716 149.348 173.83 149.371V148.785C173.766 148.771 173.655 148.756 173.552 148.756C173.127 148.756 172.831 148.955 172.717 149.292H172.67V148.812H172.034V151.993ZM175.555 153.115C176.458 153.115 177.029 152.653 177.029 151.929V148.812H176.396V149.333H176.358C176.174 148.976 175.828 148.756 175.383 148.756C174.556 148.756 174.05 149.398 174.05 150.306V150.312C174.05 151.208 174.554 151.838 175.371 151.838C175.807 151.838 176.159 151.645 176.352 151.299H176.399V151.926C176.399 152.36 176.089 152.606 175.564 152.606C175.134 152.606 174.876 152.45 174.823 152.231L174.82 152.225H174.179L174.173 152.231C174.249 152.761 174.747 153.115 175.555 153.115ZM175.547 151.314C175.005 151.314 174.7 150.901 174.7 150.309V150.303C174.7 149.711 175.005 149.295 175.547 149.295C176.083 149.295 176.411 149.711 176.411 150.303V150.309C176.411 150.904 176.086 151.314 175.547 151.314ZM179.147 152.055C180.078 152.055 180.65 151.431 180.65 150.406V150.4C180.65 149.374 180.076 148.75 179.147 148.75C178.215 148.75 177.641 149.377 177.641 150.4V150.406C177.641 151.431 178.212 152.055 179.147 152.055ZM179.147 151.525C178.599 151.525 178.291 151.112 178.291 150.406V150.4C178.291 149.694 178.599 149.281 179.147 149.281C179.692 149.281 180.002 149.694 180.002 150.4V150.406C180.002 151.109 179.692 151.525 179.147 151.525ZM182.466 152.014C182.589 152.014 182.706 151.999 182.808 151.982V151.475C182.721 151.484 182.665 151.487 182.568 151.487C182.255 151.487 182.126 151.346 182.126 151.003V149.313H182.808V148.812H182.126V148.009H181.478V148.812H180.98V149.313H181.478V151.156C181.478 151.768 181.766 152.014 182.466 152.014ZM160.954 158.993H161.61V157.549H162.6C163.43 157.549 164.004 156.984 164.004 156.157V156.152C164.004 155.323 163.43 154.766 162.6 154.766H160.954V158.993ZM162.436 155.32C163.005 155.32 163.336 155.627 163.336 156.155V156.16C163.336 156.691 163.005 156.998 162.436 156.998H161.61V155.32H162.436ZM165.389 159.046C165.811 159.046 166.145 158.865 166.332 158.542H166.382V158.993H167.012V156.817C167.012 156.149 166.561 155.75 165.761 155.75C165.038 155.75 164.537 156.099 164.46 156.62L164.457 156.641H165.07L165.073 156.629C165.149 156.404 165.38 156.275 165.732 156.275C166.163 156.275 166.382 156.468 166.382 156.817V157.098L165.521 157.148C164.762 157.195 164.334 157.526 164.334 158.094V158.1C164.334 158.677 164.783 159.046 165.389 159.046ZM164.967 158.073V158.068C164.967 157.781 165.166 157.622 165.606 157.596L166.382 157.546V157.819C166.382 158.229 166.034 158.539 165.559 158.539C165.216 158.539 164.967 158.366 164.967 158.073ZM168.922 159.055C169.678 159.055 170.24 158.654 170.24 158.065V158.059C170.24 157.599 169.947 157.338 169.335 157.195L168.831 157.08C168.474 156.995 168.327 156.872 168.327 156.673V156.667C168.327 156.412 168.579 156.24 168.928 156.24C169.285 156.24 169.511 156.406 169.572 156.629V156.635H170.179V156.632C170.123 156.114 169.657 155.75 168.931 155.75C168.21 155.75 167.694 156.149 167.694 156.702V156.705C167.694 157.171 167.973 157.444 168.573 157.581L169.08 157.698C169.449 157.783 169.599 157.918 169.599 158.117V158.123C169.599 158.384 169.326 158.563 168.934 158.563C168.556 158.563 168.324 158.402 168.245 158.161L168.242 158.158H167.606V158.161C167.668 158.695 168.154 159.055 168.922 159.055ZM171.954 159.055C172.71 159.055 173.272 158.654 173.272 158.065V158.059C173.272 157.599 172.979 157.338 172.367 157.195L171.863 157.08C171.505 156.995 171.359 156.872 171.359 156.673V156.667C171.359 156.412 171.611 156.24 171.96 156.24C172.317 156.24 172.543 156.406 172.604 156.629V156.635H173.21V156.632C173.155 156.114 172.689 155.75 171.962 155.75C171.242 155.75 170.726 156.149 170.726 156.702V156.705C170.726 157.171 171.004 157.444 171.605 157.581L172.112 157.698C172.481 157.783 172.63 157.918 172.63 158.117V158.123C172.63 158.384 172.358 158.563 171.965 158.563C171.587 158.563 171.356 158.402 171.277 158.161L171.274 158.158H170.638V158.161C170.7 158.695 171.186 159.055 171.954 159.055ZM174.411 158.993H175.059L175.715 156.62H175.765L176.424 158.993H177.077L177.953 155.812H177.323L176.755 158.267H176.705L176.049 155.812H175.445L174.789 158.267H174.742L174.171 155.812H173.532L174.411 158.993ZM179.684 159.055C180.616 159.055 181.187 158.431 181.187 157.406V157.4C181.187 156.374 180.613 155.75 179.684 155.75C178.753 155.75 178.178 156.377 178.178 157.4V157.406C178.178 158.431 178.75 159.055 179.684 159.055ZM179.684 158.525C179.136 158.525 178.829 158.112 178.829 157.406V157.4C178.829 156.694 179.136 156.281 179.684 156.281C180.229 156.281 180.54 156.694 180.54 157.4V157.406C180.54 158.109 180.229 158.525 179.684 158.525ZM181.802 158.993H182.438V157.092C182.438 156.632 182.769 156.333 183.255 156.333C183.375 156.333 183.484 156.348 183.598 156.371V155.785C183.533 155.771 183.422 155.756 183.32 155.756C182.895 155.756 182.599 155.955 182.485 156.292H182.438V155.812H181.802V158.993ZM185.138 159.046C185.584 159.046 185.932 158.841 186.117 158.492H186.167V158.993H186.8V154.564H186.167V156.316H186.117C185.947 155.973 185.575 155.756 185.138 155.756C184.33 155.756 183.82 156.392 183.82 157.4V157.406C183.82 158.405 184.339 159.046 185.138 159.046ZM185.32 158.504C184.787 158.504 184.467 158.088 184.467 157.406V157.4C184.467 156.717 184.787 156.301 185.32 156.301C185.847 156.301 186.176 156.72 186.176 157.4V157.406C186.176 158.085 185.85 158.504 185.32 158.504Z" fill="#000A14"/>
<path d="M162.766 66.5555H163.422V65.1112H164.412C165.241 65.1112 165.816 64.5458 165.816 63.7196V63.7137C165.816 62.8846 165.241 62.328 164.412 62.328H162.766V66.5555ZM164.248 62.8817C164.817 62.8817 165.148 63.1893 165.148 63.7167V63.7225C165.148 64.2528 164.817 64.5604 164.248 64.5604H163.422V62.8817H164.248ZM167.201 66.6083C167.623 66.6083 167.957 66.4266 168.144 66.1044H168.194V66.5555H168.824V64.3788C168.824 63.7108 168.373 63.3124 167.573 63.3124C166.849 63.3124 166.348 63.661 166.272 64.1825L166.269 64.203H166.881L166.884 64.1913C166.961 63.9657 167.192 63.8368 167.544 63.8368C167.974 63.8368 168.194 64.0302 168.194 64.3788V64.66L167.333 64.7098C166.574 64.7567 166.146 65.0878 166.146 65.6561V65.662C166.146 66.2391 166.594 66.6083 167.201 66.6083ZM166.779 65.6356V65.6298C166.779 65.3427 166.978 65.1844 167.418 65.1581L168.194 65.1083V65.3807C168.194 65.7909 167.845 66.1014 167.371 66.1014C167.028 66.1014 166.779 65.9286 166.779 65.6356ZM170.734 66.6171C171.489 66.6171 172.052 66.2157 172.052 65.6268V65.621C172.052 65.161 171.759 64.9003 171.147 64.7567L170.643 64.6425C170.285 64.5575 170.139 64.4344 170.139 64.2352V64.2294C170.139 63.9745 170.391 63.8016 170.739 63.8016C171.097 63.8016 171.322 63.9686 171.384 64.1913V64.1971H171.99V64.1942C171.935 63.6757 171.469 63.3124 170.742 63.3124C170.022 63.3124 169.506 63.7108 169.506 64.2645V64.2675C169.506 64.7333 169.784 65.0057 170.385 65.1434L170.892 65.2606C171.261 65.3456 171.41 65.4803 171.41 65.6796V65.6854C171.41 65.9462 171.138 66.1249 170.745 66.1249C170.367 66.1249 170.136 65.9637 170.057 65.7235L170.054 65.7206H169.418V65.7235C169.48 66.2567 169.966 66.6171 170.734 66.6171ZM173.765 66.6171C174.521 66.6171 175.084 66.2157 175.084 65.6268V65.621C175.084 65.161 174.791 64.9003 174.178 64.7567L173.675 64.6425C173.317 64.5575 173.171 64.4344 173.171 64.2352V64.2294C173.171 63.9745 173.423 63.8016 173.771 63.8016C174.129 63.8016 174.354 63.9686 174.416 64.1913V64.1971H175.022V64.1942C174.967 63.6757 174.501 63.3124 173.774 63.3124C173.053 63.3124 172.538 63.7108 172.538 64.2645V64.2675C172.538 64.7333 172.816 65.0057 173.417 65.1434L173.924 65.2606C174.293 65.3456 174.442 65.4803 174.442 65.6796V65.6854C174.442 65.9462 174.17 66.1249 173.777 66.1249C173.399 66.1249 173.168 65.9637 173.089 65.7235L173.086 65.7206H172.45V65.7235C172.511 66.2567 172.998 66.6171 173.765 66.6171ZM176.223 66.5555H176.87L177.527 64.1825H177.576L178.236 66.5555H178.889L179.765 63.3739H179.135L178.567 65.829H178.517L177.861 63.3739H177.257L176.601 65.829H176.554L175.983 63.3739H175.344L176.223 66.5555ZM181.496 66.6171C182.428 66.6171 182.999 65.993 182.999 64.9677V64.9618C182.999 63.9364 182.425 63.3124 181.496 63.3124C180.564 63.3124 179.99 63.9393 179.99 64.9618V64.9677C179.99 65.993 180.561 66.6171 181.496 66.6171ZM181.496 66.0868C180.948 66.0868 180.64 65.6737 180.64 64.9677V64.9618C180.64 64.2557 180.948 63.8427 181.496 63.8427C182.041 63.8427 182.351 64.2557 182.351 64.9618V64.9677C182.351 65.6708 182.041 66.0868 181.496 66.0868ZM183.614 66.5555H184.249V64.6542C184.249 64.1942 184.58 63.8954 185.067 63.8954C185.187 63.8954 185.295 63.91 185.41 63.9335V63.3475C185.345 63.3329 185.234 63.3182 185.131 63.3182C184.706 63.3182 184.411 63.5175 184.296 63.8544H184.249V63.3739H183.614V66.5555ZM173.59 73.6083C174.035 73.6083 174.384 73.4032 174.568 73.0546H174.618V73.5555H175.251V69.1259H174.618V70.8778H174.568C174.398 70.535 174.026 70.3182 173.59 70.3182C172.781 70.3182 172.271 70.954 172.271 71.9618V71.9677C172.271 72.9667 172.79 73.6083 173.59 73.6083ZM173.771 73.0663C173.238 73.0663 172.919 72.6503 172.919 71.9677V71.9618C172.919 71.2792 173.238 70.8632 173.771 70.8632C174.299 70.8632 174.627 71.2821 174.627 71.9618V71.9677C174.627 72.6473 174.302 73.0663 173.771 73.0663Z" fill="white"/>
<path d="M158.308 226.503H158.812V225.443H159.371L159.924 226.503H160.5L159.885 225.367C160.219 225.245 160.416 224.937 160.416 224.564V224.56C160.416 224.023 160.052 223.685 159.447 223.685H158.308V226.503ZM158.812 225.056V224.093H159.385C159.705 224.093 159.898 224.277 159.898 224.572V224.576C159.898 224.878 159.713 225.056 159.394 225.056H158.812ZM161.728 226.546C162.308 226.546 162.593 226.212 162.662 225.937L162.667 225.919H162.205L162.199 225.933C162.152 226.031 162.001 226.163 161.738 226.163C161.408 226.163 161.201 225.941 161.195 225.558H162.687V225.398C162.687 224.753 162.312 224.328 161.705 224.328C161.097 224.328 160.708 224.767 160.708 225.439V225.441C160.708 226.12 161.093 226.546 161.728 226.546ZM161.71 224.708C161.982 224.708 162.179 224.882 162.212 225.232H161.199C161.236 224.892 161.439 224.708 161.71 224.708ZM163.884 226.546C164.409 226.546 164.79 226.275 164.79 225.869V225.865C164.79 225.554 164.593 225.376 164.175 225.283L163.829 225.206C163.599 225.154 163.509 225.078 163.509 224.953V224.951C163.509 224.79 163.665 224.685 163.882 224.685C164.11 224.685 164.251 224.794 164.286 224.929L164.288 224.935H164.745V224.931C164.714 224.585 164.403 224.328 163.884 224.328C163.38 224.328 163.028 224.593 163.028 224.978V224.98C163.028 225.294 163.222 225.486 163.628 225.576L163.974 225.654C164.208 225.706 164.302 225.788 164.302 225.913V225.917C164.302 226.078 164.134 226.187 163.892 226.187C163.65 226.187 163.507 226.083 163.456 225.935L163.454 225.931H162.972V225.935C163.013 226.296 163.341 226.546 163.884 226.546ZM166.098 226.546C166.679 226.546 166.964 226.212 167.032 225.937L167.038 225.919H166.575L166.569 225.933C166.522 226.031 166.372 226.163 166.108 226.163C165.778 226.163 165.571 225.941 165.565 225.558H167.057V225.398C167.057 224.753 166.682 224.328 166.075 224.328C165.468 224.328 165.079 224.767 165.079 225.439V225.441C165.079 226.12 165.464 226.546 166.098 226.546ZM166.081 224.708C166.352 224.708 166.55 224.882 166.583 225.232H165.569C165.606 224.892 165.809 224.708 166.081 224.708ZM168.288 226.513C168.381 226.513 168.471 226.505 168.542 226.492V226.117C168.483 226.122 168.446 226.124 168.377 226.124C168.174 226.124 168.09 226.035 168.09 225.822V224.745H168.542V224.369H168.09V223.845H167.596V224.369H167.264V224.745H167.596V225.937C167.596 226.349 167.797 226.513 168.288 226.513ZM158.308 231.503H158.812V230.572H159.433C160.006 230.572 160.392 230.193 160.392 229.63V229.626C160.392 229.062 160.006 228.685 159.433 228.685H158.308V231.503ZM159.31 229.097C159.672 229.097 159.883 229.29 159.883 229.628V229.632C159.883 229.97 159.672 230.165 159.31 230.165H158.812V229.097H159.31ZM161.306 231.538C161.587 231.538 161.814 231.417 161.931 231.21H161.964V231.503H162.445V230.044C162.445 229.593 162.136 229.328 161.587 229.328C161.08 229.328 160.736 229.566 160.689 229.925L160.687 229.943H161.146L161.148 229.935C161.197 229.794 161.341 229.714 161.564 229.714C161.826 229.714 161.964 229.831 161.964 230.044V230.228L161.415 230.261C160.896 230.292 160.605 230.515 160.605 230.896V230.9C160.605 231.288 160.9 231.538 161.306 231.538ZM161.085 230.876V230.872C161.085 230.697 161.212 230.597 161.484 230.579L161.964 230.548V230.72C161.964 230.974 161.748 231.165 161.455 231.165C161.24 231.165 161.085 231.058 161.085 230.876ZM163.739 231.546C164.265 231.546 164.646 231.275 164.646 230.869V230.865C164.646 230.554 164.448 230.376 164.03 230.283L163.685 230.206C163.454 230.154 163.364 230.078 163.364 229.953V229.951C163.364 229.79 163.521 229.685 163.737 229.685C163.966 229.685 164.107 229.794 164.142 229.929L164.144 229.935H164.601V229.931C164.569 229.585 164.259 229.328 163.739 229.328C163.235 229.328 162.884 229.593 162.884 229.978V229.98C162.884 230.294 163.077 230.486 163.484 230.576L163.829 230.654C164.064 230.706 164.157 230.788 164.157 230.913V230.917C164.157 231.078 163.989 231.187 163.747 231.187C163.505 231.187 163.362 231.083 163.312 230.935L163.31 230.931H162.827V230.935C162.868 231.296 163.196 231.546 163.739 231.546ZM165.807 231.546C166.333 231.546 166.714 231.275 166.714 230.869V230.865C166.714 230.554 166.516 230.376 166.098 230.283L165.753 230.206C165.522 230.154 165.432 230.078 165.432 229.953V229.951C165.432 229.79 165.589 229.685 165.806 229.685C166.034 229.685 166.175 229.794 166.21 229.929L166.212 229.935H166.669V229.931C166.638 229.585 166.327 229.328 165.807 229.328C165.304 229.328 164.952 229.593 164.952 229.978V229.98C164.952 230.294 165.145 230.486 165.552 230.576L165.897 230.654C166.132 230.706 166.225 230.788 166.225 230.913V230.917C166.225 231.078 166.057 231.187 165.815 231.187C165.573 231.187 165.431 231.083 165.38 230.935L165.378 230.931H164.895V230.935C164.936 231.296 165.264 231.546 165.807 231.546ZM167.456 231.503H167.96L168.374 229.956H168.407L168.823 231.503H169.333L169.911 229.369H169.428L169.075 230.972H169.042L168.627 229.369H168.165L167.754 230.972H167.721L167.366 229.369H166.877L167.456 231.503ZM171.074 231.546C171.713 231.546 172.102 231.128 172.102 230.437V230.433C172.102 229.745 171.711 229.328 171.074 229.328C170.44 229.328 170.047 229.747 170.047 230.433V230.437C170.047 231.128 170.434 231.546 171.074 231.546ZM171.074 231.152C170.737 231.152 170.543 230.888 170.543 230.439V230.435C170.543 229.986 170.737 229.72 171.074 229.72C171.41 229.72 171.604 229.986 171.604 230.435V230.439C171.604 230.888 171.412 231.152 171.074 231.152ZM172.494 231.503H172.98V230.263C172.98 229.958 173.193 229.765 173.518 229.765C173.601 229.765 173.682 229.777 173.76 229.792V229.357C173.713 229.343 173.637 229.333 173.562 229.333C173.281 229.333 173.086 229.468 173.014 229.697H172.98V229.369H172.494V231.503ZM174.777 231.538C175.078 231.538 175.308 231.402 175.425 231.169H175.459V231.503H175.947V228.542H175.459V229.708H175.425C175.314 229.478 175.07 229.333 174.777 229.333C174.236 229.333 173.902 229.755 173.902 230.435V230.439C173.902 231.115 174.242 231.538 174.777 231.538ZM174.929 231.128C174.597 231.128 174.396 230.869 174.396 230.439V230.435C174.396 230.005 174.599 229.744 174.929 229.744C175.259 229.744 175.466 230.007 175.466 230.435V230.439C175.466 230.867 175.261 231.128 174.929 231.128Z" fill="white"/>
</g>
</g>
<defs>
<clipPath id="clip0_0_2472">
<rect width="280.157" height="304" fill="white"/>
</clipPath>
</defs>
</svg>
