<svg width="235" height="308" viewBox="0 0 235 308" fill="none" xmlns="http://www.w3.org/2000/svg">
<path fill-rule="evenodd" clip-rule="evenodd" d="M200.585 162.042C246.472 195.432 246.471 249.567 200.584 282.958C154.697 316.347 80.3009 316.347 34.4147 282.958C-11.4716 249.568 -11.4716 195.433 34.4147 162.042C80.3017 128.653 154.698 128.653 200.585 162.042Z" fill="#EBEBEB"/>
<path fill-rule="evenodd" clip-rule="evenodd" d="M184.042 259.711C197.319 267.327 197.319 279.673 184.041 287.289C170.764 294.904 149.236 294.904 135.958 287.289C122.681 279.673 122.681 267.327 135.959 259.711C149.236 252.096 170.764 252.096 184.042 259.711Z" fill="#E0E0E0"/>
<path fill-rule="evenodd" clip-rule="evenodd" d="M164.265 206.034L72.9142 258.994C70.3436 260.484 65.8551 260.297 62.8874 258.577L30.4542 239.777C27.4873 238.058 27.1652 235.456 29.735 233.966L121.086 181.006C123.656 179.516 128.145 179.703 131.112 181.423L163.545 200.222C166.513 201.942 166.835 204.544 164.265 206.034Z" fill="#E0E0E0"/>
<path fill-rule="evenodd" clip-rule="evenodd" d="M44 213.621L40.5592 221C40.5592 221 37.0869 209.62 29.0748 201.326C26.0507 198.195 23.5735 197.32 22.4773 196.687C21.3819 196.053 13.9285 192.594 15.1308 187.761C16.3346 182.93 27.1424 183.329 36.6871 198.053C41.5851 205.61 44 213.621 44 213.621Z" fill="#BA68C8"/>
<path fill-rule="evenodd" clip-rule="evenodd" d="M44 213.621L40.5592 221C40.5592 221 37.0869 209.62 29.0748 201.326C26.0507 198.195 23.5735 197.32 22.4773 196.687C21.3819 196.053 13.9285 192.594 15.1308 187.761C16.3346 182.93 27.1424 183.329 36.6871 198.053C41.5851 205.61 44 213.621 44 213.621Z" fill="#000A14"/>
<path fill-rule="evenodd" clip-rule="evenodd" d="M42.6547 218C42.5013 218 42.3606 217.905 42.3206 217.762C42.2998 217.688 40.1623 210.246 32.8486 200.731C25.5846 191.28 16.3756 189.645 16.2837 189.63C16.0958 189.598 15.9719 189.433 16.0055 189.261C16.0399 189.088 16.2165 188.974 16.4068 189.005C16.5011 189.02 25.9763 190.69 33.4122 200.365C40.805 209.983 42.9681 217.529 42.9889 217.604C43.0369 217.774 42.9249 217.946 42.7403 217.99C42.7115 217.997 42.6827 218 42.6547 218Z" fill="white"/>
<path fill-rule="evenodd" clip-rule="evenodd" d="M42 218.977L36.2797 231.346C36.2797 231.346 31.4288 233.748 28.9061 229.343C26.3825 224.937 27.4986 222.712 24.0158 222.423C20.5322 222.136 19.8753 222.413 18.751 220.542C17.6275 218.67 18.2925 217.052 18.3698 215.948C18.4478 214.844 19 212.256 16.4081 210.856C13.8154 209.458 10.881 208.405 12.4311 205.864C13.3555 204.347 16.1027 203.537 18.6723 204.093C21.2418 204.651 23.2467 204.942 24.9045 204.334C26.5631 203.727 29.5139 201.722 31.0848 204.23C32.6542 206.738 32.6022 208.017 33.9308 208.692C36.4335 209.964 41.9138 207.782 42 218.977Z" fill="#BA68C8"/>
<path fill-rule="evenodd" clip-rule="evenodd" d="M42 218.977L36.2797 231.346C36.2797 231.346 31.4288 233.748 28.9061 229.343C26.3825 224.937 27.4986 222.712 24.0158 222.423C20.5322 222.136 19.8753 222.413 18.751 220.542C17.6275 218.67 18.2925 217.052 18.3698 215.948C18.4478 214.844 19 212.256 16.4081 210.856C13.8154 209.458 10.881 208.405 12.4311 205.864C13.3555 204.347 16.1027 203.537 18.6723 204.093C21.2418 204.651 23.2467 204.942 24.9045 204.334C26.5631 203.727 29.5139 201.722 31.0848 204.23C32.6542 206.738 32.6022 208.017 33.9308 208.692C36.4335 209.964 41.9138 207.782 42 218.977Z" fill="#000A14"/>
<path fill-rule="evenodd" clip-rule="evenodd" d="M40.6642 226C40.5482 226 40.4354 225.94 40.3732 225.833C40.2837 225.677 31.1859 210.271 14.2848 207.664C14.1012 207.636 13.9759 207.466 14.0039 207.283C14.0327 207.1 14.2039 206.973 14.3882 207.005C31.6138 209.661 40.8641 225.342 40.9551 225.499C41.0477 225.66 40.9925 225.864 40.8314 225.955C40.7785 225.985 40.721 226 40.6642 226Z" fill="white"/>
<path fill-rule="evenodd" clip-rule="evenodd" d="M29.6919 214C29.5869 214 29.4834 213.947 29.4263 213.853C27.0532 209.945 28.3447 206.348 28.4011 206.197C28.4575 206.043 28.6331 205.962 28.7945 206.018C28.9551 206.073 29.0386 206.242 28.9815 206.397C28.9687 206.431 27.735 209.893 29.9574 213.554C30.0438 213.695 29.9946 213.876 29.8475 213.959C29.7982 213.987 29.7447 214 29.6919 214Z" fill="white"/>
<path fill-rule="evenodd" clip-rule="evenodd" d="M23.347 220C23.2529 220 23.1595 219.961 23.0912 219.882C22.9616 219.734 22.9713 219.506 23.1129 219.371C28.7953 213.968 33.5364 215.077 33.7343 215.126C33.921 215.172 34.0352 215.367 33.9902 215.561C33.9475 215.755 33.7641 215.877 33.5734 215.829C33.5268 215.818 28.9739 214.777 23.5811 219.905C23.5143 219.969 23.4307 220 23.347 220Z" fill="white"/>
<mask id="mask0_0_3362" style="mask-type:alpha" maskUnits="userSpaceOnUse" x="36" y="0" width="98" height="235">
<path fill-rule="evenodd" clip-rule="evenodd" d="M36.1074 0.744995H133.356V234.735H36.1074V0.744995Z" fill="white"/>
</mask>
<g mask="url(#mask0_0_3362)">
<path fill-rule="evenodd" clip-rule="evenodd" d="M42.3069 61.811C42.3069 57.3309 44.6731 53.1916 48.5138 50.9519L127.451 4.91832C129.783 3.55819 132.611 4.83445 133.356 7.23054C132.928 5.3649 131.777 3.72292 130.109 2.71945L129.828 2.55019C127.863 1.36839 125.62 0.744995 123.333 0.744995V0.746506C122.639 0.736683 121.925 0.908211 121.251 1.30114L42.3143 47.3347C38.4729 49.5744 36.1074 53.7144 36.1074 58.1938V230.623C36.1074 233.784 39.4948 235.759 42.2044 234.179L42.3069 234.12V61.811Z" fill="#37474F"/>
</g>
<path fill-rule="evenodd" clip-rule="evenodd" d="M126.81 192.408L48.0808 238.444C45.3784 240.024 42 238.049 42 234.888V62.4511C42 57.9716 44.3599 53.8321 48.1905 51.5915L126.918 5.55607C129.622 3.97599 133 5.95128 133 9.1122V181.549C133 186.029 130.641 190.169 126.81 192.408Z" fill="#455A64"/>
<path fill-rule="evenodd" clip-rule="evenodd" d="M42.6757 232.905V61.2059C42.6757 59.3016 43.143 57.4619 43.9977 55.802L37.4242 52C36.5043 53.711 36 55.6237 36 57.6041V228.946V229.303V230.738C36 232.124 36.7814 233.407 38.0558 234.117L41.4448 236.002C42.6185 236.655 43.9598 237 45.326 237H47V236.998C44.7372 236.969 42.6757 235.272 42.6757 232.905Z" fill="#263238"/>
<path fill-rule="evenodd" clip-rule="evenodd" d="M125.606 22V166.313C125.606 170.253 123.498 173.892 120.075 175.862L49.7443 216.34C49.1805 216.665 48.5835 216.813 48 216.823C48.8159 218.704 51.1769 219.64 53.1386 218.511L123.47 178.034C126.892 176.064 129 172.424 129 168.485V25.6011C129 23.5808 127.404 22.1181 125.606 22Z" fill="#37474F"/>
<path fill-rule="evenodd" clip-rule="evenodd" d="M47.2938 215.981C47.8776 215.971 48.4751 215.824 49.04 215.5L119.416 175.197C122.841 173.236 124.95 169.612 124.95 165.69V22C125.281 22.0217 123.894 21.9094 122.911 22.4727L52.5332 62.7757C49.1095 64.737 47 68.3608 47 72.2826V214.549C47 215.076 47.1103 215.562 47.3036 216C47.3006 215.993 47.2968 215.987 47.2938 215.981Z" fill="#BA68C8"/>
<path fill-rule="evenodd" clip-rule="evenodd" d="M47.2938 215.981C47.8776 215.971 48.4751 215.824 49.04 215.5L119.416 175.197C122.841 173.236 124.95 169.612 124.95 165.69V22C125.281 22.0217 123.894 21.9094 122.911 22.4727L52.5332 62.7757C49.1095 64.737 47 68.3608 47 72.2826V214.549C47 215.076 47.1103 215.562 47.3036 216C47.3006 215.993 47.2968 215.987 47.2938 215.981Z" fill="white"/>
<path fill-rule="evenodd" clip-rule="evenodd" d="M77 41.1056C77 42.0934 76.5523 43.2945 75.9997 43.7883C75.4477 44.2822 75 43.8825 75 42.8938C75 41.9069 75.4477 40.705 75.9997 40.2111C76.5523 39.7181 77 40.1178 77 41.1056Z" fill="#263238"/>
<path fill-rule="evenodd" clip-rule="evenodd" d="M82 38.106C82 39.0937 81.5524 40.2947 81 40.7885C80.4482 41.2824 80 40.8818 80 39.894C80 38.9063 80.4482 37.7053 81 37.2115C81.5524 36.7176 82 37.1182 82 38.106Z" fill="#263238"/>
<path fill-rule="evenodd" clip-rule="evenodd" d="M100.873 29.048L85.1272 37.8689C84.5043 38.2174 84 37.8471 84 37.0416C84 36.2362 84.5043 35.3005 85.1272 34.952L100.873 26.1311C101.495 25.7826 102 26.1529 102 26.9584C102 27.7638 101.495 28.6995 100.873 29.048Z" fill="#263238"/>
<path fill-rule="evenodd" clip-rule="evenodd" d="M96.9268 197C96.5085 197 96.0469 197.132 95.5618 197.409L88.4382 201.491C86.5397 202.579 85 205.498 85 208.011C85 209.881 85.8528 211 87.0732 211C87.4915 211 87.9531 210.868 88.4382 210.591L95.5618 206.509C97.4611 205.421 99 202.502 99 199.989C99 198.118 98.1472 197 96.9268 197ZM96.9276 197.604C97.817 197.604 98.3916 198.54 98.3916 199.989C98.3916 202.266 96.9562 205.012 95.258 205.986L88.1344 210.067C87.7535 210.286 87.3968 210.396 87.0732 210.396C86.183 210.396 85.6084 209.46 85.6084 208.011C85.6084 205.734 87.0431 202.987 88.7427 202.014L95.8664 197.932C96.2465 197.714 96.6039 197.604 96.9276 197.604Z" fill="#263238"/>
<path fill-rule="evenodd" clip-rule="evenodd" d="M58 82.6222V245.535C58 248.486 58.9922 250.469 60.5086 251.119L60.5516 251.135L60.5579 251.143L67 255L66.9653 248.734L66.2491 79.8025L59.4457 76C58.5457 78.1066 58 80.4451 58 82.6222Z" fill="#E6E6E6"/>
<path fill-rule="evenodd" clip-rule="evenodd" d="M60.4844 251.173L67.2056 254.718L67.1694 249.101L66.3585 80.548L59.222 77.0342C58.2947 79.0625 57.7866 81.2135 57.7866 83.132V245.903C57.7866 248.561 58.758 250.515 60.383 251.129L60.4837 251.175L60.4844 251.173ZM68 256L60.0904 251.829C58.1303 251.049 57 248.849 57 245.903V83.132C57 80.9924 57.5954 78.5856 58.6769 76.3558L58.85 76L67.1434 80.0831L67.1442 80.3141L67.956 249.097L68 256Z" fill="#E6E6E6"/>
<path fill-rule="evenodd" clip-rule="evenodd" d="M59 75.2058L66.3297 79L144.762 32.8183L150 29.7354L142.763 25.6093L142.557 25.4854V25.4778C141.404 24.7747 139.892 24.8209 138.228 25.7945L63.9858 69.1791C61.9848 70.3464 60.1981 72.5939 59 75.2058Z" fill="#E0E0E0"/>
<path fill-rule="evenodd" clip-rule="evenodd" d="M59.8602 74.719L66.628 78.203L148.884 30.047L142.058 26.1709C142.038 26.1597 142.019 26.1463 142.002 26.1313C140.944 25.52 139.576 25.643 138.139 26.478L64.5002 69.2653C62.731 70.2912 61.053 72.2669 59.8602 74.719ZM66.6391 79C66.5813 79 66.5235 78.9866 66.4709 78.959L59.2016 75.2178C59.0245 75.1261 58.9504 74.9106 59.0349 74.7287C60.298 71.9918 62.1554 69.7648 64.1298 68.6189L137.768 25.8324C139.472 24.8423 141.131 24.7305 142.438 25.5237C142.457 25.5356 142.476 25.5491 142.492 25.564L142.64 25.652L149.811 29.7175C149.927 29.7831 149.999 29.9061 150 30.0395C150.001 30.173 149.93 30.2968 149.816 30.3639L66.825 78.9493C66.768 78.9836 66.7035 79 66.6391 79Z" fill="#E0E0E0"/>
<path fill-rule="evenodd" clip-rule="evenodd" d="M64 85.9641V248.194C64 250.751 64.8077 252.587 66.1002 253.446L66.524 253.679C67.6471 254.213 69.0547 254.097 70.5858 253.206L106.754 232.18L145.407 208.751C149.045 206.637 152 201.91 152 197.029V34.8072C152 32.3352 151.246 30.5463 150.031 29.6473C149.823 29.4919 149.6 29.3607 149.361 29.2675C148.262 28.7952 146.892 28.9347 145.407 29.7943L70.5858 74.0305C68.6475 75.1539 66.9079 76.5585 65.7088 79.0456C64.6459 81.2226 64 83.6786 64 85.9641Z" fill="#FAFAFA"/>
<path fill-rule="evenodd" clip-rule="evenodd" d="M145.733 208.217C130.231 217.44 89.904 241.443 69.9413 253.434C67.3272 255.003 64 253.124 64 250.081V83.742C64 79.8917 66.0471 76.3286 69.3789 74.3815L146.096 29.5425C148.71 28.0149 152 29.8947 152 32.9174V197.21C152 201.724 149.621 205.904 145.733 208.217Z" fill="#FAFAFA"/>
<path fill-rule="evenodd" clip-rule="evenodd" d="M145.205 208.445C133.142 215.696 121.082 222.95 109.025 230.211C101.887 234.51 94.7503 238.811 87.6171 243.117C84.3574 245.084 81.0985 247.053 77.841 249.024C76.4167 249.886 74.9915 250.748 73.5679 251.61C72.2532 252.407 70.8521 253.541 69.3999 254.049C66.9892 254.893 64.8188 252.951 64.7549 250.552C64.7452 250.165 64.7549 249.777 64.7549 249.39V243.769V221.884V190.55V155.344V122.189V96.666C64.7549 92.5982 64.7459 88.5304 64.7549 84.4627C64.7647 80.46 66.6834 76.9887 70.1166 74.9442C71.8595 73.9057 73.61 72.8808 75.3566 71.8498C83.5461 67.0138 91.7347 62.1785 99.9234 57.3431C109.627 51.6139 119.329 45.8839 129.032 40.1546C134.553 36.8945 140.061 33.6094 145.596 30.3735C147.31 29.3713 149.469 29.4697 150.66 31.2781C151.143 32.0123 151.227 32.8283 151.23 33.6692C151.234 35.121 151.23 36.5721 151.23 38.0239V58.1349V88.5857V123.542V157.268V183.699V197.112C151.23 201.764 149.213 205.964 145.205 208.445C144.793 208.699 145.17 209.355 145.584 209.099C149.763 206.51 151.982 202.1 151.982 197.217V192.569V171.746V140.565V104.864V71.1762V45.2844C151.982 41.3287 152.023 37.3706 151.982 33.4156C151.943 29.8164 148.345 27.9014 145.312 29.6643C143.481 30.7278 141.665 31.8178 139.841 32.8941C131.427 37.8626 123.013 42.8312 114.599 47.7997C104.809 53.5812 95.017 59.3627 85.2266 65.1441C80.0332 68.2105 74.8225 71.2503 69.6456 74.3447C66.0493 76.4936 64.0164 80.2276 64.0037 84.418C63.9999 85.7797 64.0037 87.1422 64.0037 88.5047V108.363V138.909V174.459V208.633V235.806V249.903C64.0037 250.164 63.9954 250.425 64.0037 250.685C64.0931 253.536 66.8141 255.719 69.5998 254.779C71.0181 254.301 72.3569 253.228 73.634 252.453C75.0862 251.574 76.5399 250.694 77.992 249.815C81.2397 247.851 84.4889 245.888 87.7381 243.926C101.945 235.35 116.163 226.792 130.383 218.238C135.45 215.192 140.516 212.144 145.584 209.099C145.999 208.849 145.622 208.194 145.205 208.445Z" fill="#EBEBEB"/>
<path fill-rule="evenodd" clip-rule="evenodd" d="M69.3789 73.801L146.096 29.5356C148.71 28.0275 152 29.8833 152 32.8673V39.9912L151.977 39.9927L64 90V83.0418C64 79.2407 66.0471 75.7232 69.3789 73.801Z" fill="#EBEBEB"/>
<path fill-rule="evenodd" clip-rule="evenodd" d="M129 94.8219C129 107.169 120.045 122.183 109 128.356C97.954 134.529 89 129.524 89 117.178C89 104.831 97.954 89.8178 109 83.6441C120.045 77.471 129 82.4752 129 94.8219Z" fill="#BA68C8"/>
<path fill-rule="evenodd" clip-rule="evenodd" d="M129 94.8219C129 107.169 120.045 122.183 109 128.356C97.954 134.529 89 129.524 89 117.178C89 104.831 97.954 89.8178 109 83.6441C120.045 77.471 129 82.4752 129 94.8219Z" fill="white"/>
<path fill-rule="evenodd" clip-rule="evenodd" d="M103.901 107C103.404 107 103 106.61 103 106.128V100.385C103 97.8472 104.779 94.8652 107.05 93.5959C108.302 92.8962 109.525 92.8098 110.495 93.3521C111.466 93.8944 112 94.9627 112 96.3621V102.105C112 102.587 111.597 102.978 111.099 102.978C110.602 102.978 110.198 102.587 110.198 102.105V96.3621C110.198 95.6233 109.979 95.0765 109.595 94.8623C109.211 94.6473 108.611 94.7359 107.95 95.1061C106.244 96.0599 104.802 98.4774 104.802 100.385V106.128C104.802 106.61 104.398 107 103.901 107Z" fill="#37474F"/>
<path fill-rule="evenodd" clip-rule="evenodd" d="M115.275 99.1014C114.95 98.9354 114.539 98.9671 114.09 99.2417L102.908 106.09C102.46 106.365 102.049 106.836 101.723 107.402C101.283 108.166 101 109.102 101 109.96V120.228C101 120.972 101.213 121.516 101.556 121.792C101.617 121.842 101.683 121.88 101.752 121.912C102.073 122.063 102.473 122.026 102.908 121.759L114.09 114.911C115.144 114.265 116 112.533 116 111.041V100.772C116 99.9147 115.716 99.3262 115.275 99.1014Z" fill="#FF7642"/>
<path fill-rule="evenodd" clip-rule="evenodd" d="M108.862 108.86L110 111.874L106 114L107.001 110.278L107.143 109.752C106.468 109.769 106 109.288 106 108.441C106 108.117 106.067 107.775 106.187 107.437C106.508 106.544 107.2 105.677 108 105.251C109.104 104.665 110 105.139 110 106.314C110 107.161 109.531 108.141 108.854 108.843L108.862 108.86Z" fill="#455A64"/>
<path fill-rule="evenodd" clip-rule="evenodd" d="M107.001 110.202L107.142 109.608C106.467 109.628 106 109.085 106 108.132C106 107.766 106.067 107.38 106.187 107L108.862 108.604L110 112L107.001 110.202Z" fill="#37474F"/>
<path fill-rule="evenodd" clip-rule="evenodd" d="M138.635 144.931L80.3642 178.478C77.9537 179.865 76 178.392 76 175.188V166.385C76 163.18 77.9537 159.457 80.3642 158.069L138.635 124.522C141.046 123.135 143 124.608 143 127.812V136.615C143 139.82 141.046 143.543 138.635 144.931Z" fill="#2473F2"/>
<path fill-rule="evenodd" clip-rule="evenodd" d="M89 166H90V157H89V166Z" fill="#FAFAFA"/>
<path fill-rule="evenodd" clip-rule="evenodd" d="M86.5209 165L86 163.963L93.4791 159L94 160.037L86.5209 165Z" fill="#FAFAFA"/>
<path fill-rule="evenodd" clip-rule="evenodd" d="M92.462 164L87 160.14L87.538 159L93 162.86L92.462 164Z" fill="#FAFAFA"/>
<path fill-rule="evenodd" clip-rule="evenodd" d="M86.0201 168L85 167.408L90.9799 157L92 157.592L86.0201 168Z" fill="#FAFAFA"/>
<path fill-rule="evenodd" clip-rule="evenodd" d="M108 156H109V147H108V156Z" fill="#FAFAFA"/>
<path fill-rule="evenodd" clip-rule="evenodd" d="M104.521 154L104 152.963L111.479 148L112 149.037L104.521 154Z" fill="#FAFAFA"/>
<path fill-rule="evenodd" clip-rule="evenodd" d="M110.462 154L105 150.14L105.538 149L111 152.86L110.462 154Z" fill="#FAFAFA"/>
<path fill-rule="evenodd" clip-rule="evenodd" d="M105.02 156L104 155.408L109.98 145L111 145.592L105.02 156Z" fill="#FAFAFA"/>
<path fill-rule="evenodd" clip-rule="evenodd" d="M129 145H130V136H129V145Z" fill="#FAFAFA"/>
<path fill-rule="evenodd" clip-rule="evenodd" d="M125.521 143L125 141.963L132.479 137L133 138.037L125.521 143Z" fill="#FAFAFA"/>
<path fill-rule="evenodd" clip-rule="evenodd" d="M131.462 143L126 139.14L126.538 138L132 141.86L131.462 143Z" fill="#FAFAFA"/>
<path fill-rule="evenodd" clip-rule="evenodd" d="M127.02 146L126 145.408L131.98 135L133 135.592L127.02 146Z" fill="#FAFAFA"/>
<path fill-rule="evenodd" clip-rule="evenodd" d="M140.368 156C139.837 156 139.251 156.168 138.635 156.522L80.3642 190.069C77.9537 191.457 76 195.18 76 198.385V207.187C76 209.573 77.0828 211 78.6322 211C79.1627 211 79.7488 210.832 80.3642 210.478L138.635 176.931C141.046 175.543 143 171.82 143 168.615V159.812C143 157.426 141.916 156 140.368 156ZM140.369 157.499C141.148 157.499 141.497 158.661 141.497 159.812V168.615C141.497 171.292 139.843 174.506 137.884 175.633L79.6128 209.18C79.2476 209.39 78.9087 209.501 78.6322 209.501C77.8522 209.501 77.5028 208.339 77.5028 207.187V198.385C77.5028 195.709 79.1574 192.494 81.1156 191.367L139.386 157.82C139.752 157.609 140.091 157.499 140.369 157.499Z" fill="#2473F2"/>
<path d="M105.021 186.887C105.027 186.898 105.093 187.03 105.218 187.284L102.006 189.138C102.203 189.329 102.43 189.434 102.687 189.452C102.946 189.462 103.217 189.385 103.5 189.222C103.711 189.099 103.876 188.964 103.994 188.817C104.117 188.666 104.218 188.477 104.297 188.25L105.602 188.627C105.449 189.354 104.959 189.955 104.133 190.432C103.617 190.73 103.107 190.894 102.602 190.924C102.098 190.955 101.637 190.859 101.219 190.636C100.806 190.411 100.472 190.078 100.218 189.638C99.9673 189.203 99.8462 188.755 99.855 188.293C99.8661 187.823 100 187.384 100.257 186.975C100.513 186.566 100.872 186.228 101.334 185.961C101.775 185.707 102.227 185.569 102.693 185.546C103.155 185.519 103.59 185.619 103.997 185.848C104.407 186.068 104.748 186.414 105.021 186.887ZM101.978 187.057C101.739 187.195 101.577 187.379 101.492 187.609C101.413 187.836 101.419 188.079 101.511 188.337L103.32 187.293C103.142 187.084 102.932 186.959 102.691 186.917C102.455 186.872 102.217 186.919 101.978 187.057ZM107.384 182.468C107.933 182.152 108.467 182.06 108.987 182.195C109.512 182.327 109.964 182.721 110.344 183.379L111.803 185.906L110.254 186.8L108.941 184.526C108.593 183.923 108.177 183.761 107.693 184.04C107.427 184.194 107.262 184.404 107.2 184.672C107.143 184.937 107.214 185.244 107.415 185.592L108.648 187.727L107.099 188.622L104.549 184.203L106.024 183.351L106.302 183.832C106.372 183.553 106.5 183.297 106.686 183.067C106.869 182.831 107.101 182.632 107.384 182.468ZM115.814 183.351C115.731 183.508 115.607 183.663 115.442 183.816C115.282 183.966 115.096 184.102 114.884 184.225C114.308 184.557 113.784 184.672 113.311 184.568C112.838 184.464 112.44 184.133 112.117 183.573L111.26 182.089L110.616 182.461L109.948 181.303L110.592 180.932L109.928 179.782L111.477 178.888L112.14 180.037L113.151 179.454L113.82 180.611L112.809 181.195L113.656 182.662C113.747 182.82 113.86 182.921 113.995 182.967C114.132 183.003 114.271 182.981 114.412 182.899C114.592 182.796 114.723 182.659 114.805 182.488L115.814 183.351ZM119.779 178.366C119.785 178.377 119.851 178.51 119.976 178.764L116.764 180.618C116.961 180.809 117.188 180.913 117.445 180.931C117.704 180.941 117.975 180.864 118.257 180.701C118.469 180.579 118.634 180.444 118.752 180.296C118.875 180.146 118.976 179.957 119.055 179.73L120.36 180.107C120.207 180.833 119.717 181.435 118.891 181.912C118.375 182.21 117.864 182.374 117.36 182.404C116.856 182.434 116.395 182.338 115.976 182.116C115.564 181.891 115.23 181.558 114.976 181.118C114.725 180.683 114.604 180.235 114.613 179.773C114.624 179.303 114.758 178.863 115.014 178.454C115.271 178.045 115.63 177.707 116.092 177.441C116.532 177.187 116.985 177.048 117.451 177.026C117.913 176.998 118.348 177.099 118.755 177.327C119.165 177.547 119.506 177.894 119.779 178.366ZM116.736 178.536C116.497 178.674 116.335 178.859 116.25 179.089C116.171 179.315 116.177 179.558 116.269 179.817L118.078 178.772C117.9 178.564 117.69 178.438 117.449 178.397C117.212 178.352 116.975 178.398 116.736 178.536ZM121.088 175.361C121.129 175.069 121.247 174.802 121.44 174.559C121.636 174.309 121.897 174.089 122.223 173.901L123.028 175.295C122.877 175.36 122.756 175.42 122.663 175.473C122.332 175.664 122.123 175.905 122.036 176.194C121.955 176.48 122.021 176.808 122.234 177.177L123.406 179.207L121.857 180.101L119.306 175.683L120.782 174.831L121.088 175.361Z" fill="#2473F2"/>
<path fill-rule="evenodd" clip-rule="evenodd" d="M178.997 150.003C178.997 150.003 184.207 149.638 187.162 157.159C188.999 161.833 191.236 169.058 192.666 173.856C193.554 176.836 192.637 180.078 190.336 182.083L181.251 190L178 183.861C178 183.861 181.505 179.005 184.207 176.495L178 157.159L178.997 150.003Z" fill="#FFA8A7"/>
<path fill-rule="evenodd" clip-rule="evenodd" d="M181.276 173.924C181.276 173.924 189.855 175.095 192 168.259C192 168.259 188.323 158.258 186.637 154.936C184.952 151.613 181.504 149.199 178.786 150.248C176.067 151.296 181.276 173.924 181.276 173.924Z" fill="#BA68C8"/>
<path fill-rule="evenodd" clip-rule="evenodd" d="M181.276 173.924C181.276 173.924 189.855 175.095 192 168.259C192 168.259 188.323 158.258 186.637 154.936C184.952 151.613 181.504 149.199 178.786 150.248C176.067 151.296 181.276 173.924 181.276 173.924Z" fill="#FF9D1E"/>
<path fill-rule="evenodd" clip-rule="evenodd" d="M175.488 262.531C175.488 262.531 171.445 259.165 169.877 259.007C168.308 258.849 165.588 261.465 167.885 266.003C168.525 267.266 171.121 268.633 172.743 271.054C174.366 273.473 175.826 275.292 178.315 274.961C180.802 274.63 181.127 273.263 180.965 271.684C180.802 270.106 180.072 267.397 180.072 267.397L175.488 262.531Z" fill="#FF7642"/>
<path fill-rule="evenodd" clip-rule="evenodd" d="M178.461 274.212C175.882 274.564 174.368 272.629 172.686 270.053C171.004 267.478 168.313 266.022 167.651 264.678C167.36 264.087 167.148 263.528 167 263C167.095 263.81 167.347 264.712 167.84 265.711C168.482 267.014 171.093 268.427 172.724 270.925C174.356 273.424 175.825 275.302 178.327 274.96C180.244 274.699 180.879 273.807 181 272.672C180.669 273.436 179.943 274.01 178.461 274.212Z" fill="#263238"/>
<path fill-rule="evenodd" clip-rule="evenodd" d="M173.453 267C173.381 267 173.308 266.983 173.24 266.948C173.019 266.833 172.936 266.567 173.053 266.353C173.114 266.243 174.571 263.645 177.446 263.011C177.694 262.956 177.933 263.106 177.989 263.343C178.044 263.581 177.89 263.816 177.646 263.87C175.184 264.412 173.866 266.744 173.853 266.768C173.772 266.915 173.615 267 173.453 267Z" fill="#EBEBEB"/>
<path fill-rule="evenodd" clip-rule="evenodd" d="M172.453 266C172.381 266 172.308 265.983 172.24 265.948C172.019 265.833 171.936 265.568 172.053 265.353C172.114 265.243 173.57 262.645 176.446 262.011C176.693 261.956 176.933 262.106 176.989 262.343C177.044 262.581 176.89 262.816 176.646 262.87C174.183 263.412 172.866 265.744 172.853 265.768C172.772 265.915 172.615 266 172.453 266Z" fill="#EBEBEB"/>
<path fill-rule="evenodd" clip-rule="evenodd" d="M169.453 265C169.381 265 169.308 264.983 169.24 264.948C169.019 264.833 168.936 264.568 169.053 264.353C169.114 264.243 170.571 261.644 173.446 261.012C173.693 260.956 173.933 261.106 173.989 261.344C174.044 261.58 173.891 261.816 173.646 261.87C171.184 262.412 169.866 264.744 169.853 264.768C169.772 264.915 169.615 265 169.453 265Z" fill="#EBEBEB"/>
<path fill-rule="evenodd" clip-rule="evenodd" d="M152.842 274.418C152.842 274.418 147.349 272.582 145.711 273.088C144.072 273.594 142.468 277.54 146.715 281.371C147.897 282.437 151.084 282.773 153.747 284.644C156.41 286.516 158.652 287.819 161.003 286.399C163.353 284.978 163.161 283.344 162.743 281.572C162.21 279.315 161.783 277.675 161.783 277.675L152.842 274.418Z" fill="#FF7642"/>
<path fill-rule="evenodd" clip-rule="evenodd" d="M160.986 285.583C158.576 287.036 156.277 285.702 153.546 283.787C150.815 281.872 147.548 281.528 146.336 280.437C145.804 279.958 145.364 279.476 145 279C145.427 279.787 146.051 280.601 146.951 281.411C148.126 282.469 151.296 282.803 153.945 284.661C156.594 286.52 158.825 287.813 161.163 286.403C162.954 285.323 163.216 284.143 162.867 282.933C162.854 283.853 162.371 284.747 160.986 285.583Z" fill="#263238"/>
<path fill-rule="evenodd" clip-rule="evenodd" d="M151.501 280C151.484 280 151.468 279.999 151.452 279.998C151.177 279.977 150.976 279.785 151.002 279.569C151.016 279.451 151.388 276.649 154.21 275.073C154.434 274.947 154.746 274.988 154.908 275.166C155.068 275.342 155.014 275.588 154.79 275.714C152.346 277.08 152.001 279.619 151.998 279.645C151.973 279.848 151.755 280 151.501 280Z" fill="#EBEBEB"/>
<path fill-rule="evenodd" clip-rule="evenodd" d="M153.501 280C153.484 280 153.468 279.999 153.452 279.998C153.177 279.977 152.975 279.785 153.002 279.569C153.016 279.451 153.389 276.65 156.21 275.073C156.434 274.947 156.747 274.988 156.908 275.166C157.068 275.343 157.014 275.589 156.79 275.714C154.347 277.08 154.001 279.619 153.998 279.645C153.973 279.848 153.755 280 153.501 280Z" fill="#EBEBEB"/>
<path fill-rule="evenodd" clip-rule="evenodd" d="M148.501 279C148.484 279 148.468 278.999 148.452 278.998C148.177 278.977 147.976 278.785 148.002 278.569C148.016 278.451 148.388 275.65 151.21 274.073C151.434 273.947 151.747 273.989 151.908 274.166C152.068 274.343 152.014 274.589 151.79 274.715C149.346 276.08 149.001 278.619 148.998 278.645C148.973 278.848 148.755 279 148.501 279Z" fill="#EBEBEB"/>
<path fill-rule="evenodd" clip-rule="evenodd" d="M180.272 262.033C180.75 256.504 181.788 247.842 182.218 243.792C182.988 236.557 182.283 231.036 181.8 228.413C181.58 227.211 181.518 225.996 181.634 224.778C182.681 213.767 183.369 195.922 182.788 192L168 195.271C168 195.271 169.81 220.309 170.604 228.636C171.403 237.02 174.376 262.105 174.376 262.105C175.613 262.866 177.858 263.698 180.272 262.033Z" fill="#2473F2"/>
<path fill-rule="evenodd" clip-rule="evenodd" d="M177.832 268.947C179.136 268.728 179.746 267.284 179.746 267.284C179.746 266.372 179.844 264.851 180 263C177.543 264.741 175.259 263.871 174 263.075L174.532 267.94C175.144 268.684 176.528 269.166 177.832 268.947Z" fill="#FFA8A7"/>
<path fill-rule="evenodd" clip-rule="evenodd" d="M162.665 272.712C163.299 264.273 164.523 247.918 164.686 245.349C164.85 242.757 164.564 239.189 164.15 236.862C163.881 235.348 163.903 233.799 164.175 232.285L171 194.276L152.233 194L151.005 233.82C150.989 234.335 151.009 234.85 151.064 235.362L155.044 272.475C155.044 272.475 158.927 275.743 162.665 272.712Z" fill="#2473F2"/>
<path fill-rule="evenodd" clip-rule="evenodd" d="M160.126 279.972C161.365 279.85 162.479 278.743 162.653 278.095C162.653 278.095 162.792 276.146 163 273.229C159.566 276.162 156 273 156 273L156.549 278.385C156.549 278.385 157.358 280.247 160.126 279.972Z" fill="#FFA8A7"/>
<path fill-rule="evenodd" clip-rule="evenodd" d="M161.875 152.457L157.6 153.932L153 175.889L153.223 195.358C153.223 195.358 156.507 198 169.338 198C176.54 198 181.228 195.262 182.997 192.348L181.844 180.586C181.844 180.586 182.997 168.995 182.997 163.266C182.997 157.537 183.251 152.84 178.813 150L174.863 150.327L161.875 152.457Z" fill="#BA68C8"/>
<path fill-rule="evenodd" clip-rule="evenodd" d="M161.875 152.457L157.6 153.932L153 175.889L153.223 195.358C153.223 195.358 156.507 198 169.338 198C176.54 198 181.228 195.262 182.997 192.348L181.844 180.586C181.844 180.586 182.997 168.995 182.997 163.266C182.997 157.537 183.251 152.84 178.813 150L174.863 150.327L161.875 152.457Z" fill="#FF7642"/>
<path fill-rule="evenodd" clip-rule="evenodd" d="M156.528 134L155.036 138.417C154.944 138.69 155.035 139.021 155.229 139.118L157 140L156.528 134Z" fill="#F28F8F"/>
<path fill-rule="evenodd" clip-rule="evenodd" d="M159.164 125C159.164 125 156 126.782 156 137.006C156 142.628 156.369 146.21 159.164 145.99C161.959 145.77 170 144.667 170 144.667V125H159.164Z" fill="#FFA8A7"/>
<path fill-rule="evenodd" clip-rule="evenodd" d="M159.488 145.994C160.515 145.943 162.221 145.821 164 145.684V145C162.363 145.55 159.443 145.936 159 145.993C159.155 146.001 159.317 146.003 159.488 145.994Z" fill="#F28F8F"/>
<path fill-rule="evenodd" clip-rule="evenodd" d="M165 144.595V151H173V142L165 144.595Z" fill="#FFA8A7"/>
<path fill-rule="evenodd" clip-rule="evenodd" d="M163.261 149.356C163.261 149.356 166.362 150.523 168.854 150.064C171.345 149.605 171.887 148 171.887 148C171.887 148 172.7 147.935 174 150.523C174 150.523 172.477 153.745 168.963 153.963C164.358 154.25 161 152.759 161 152.759C161 152.759 162.199 149.025 163.261 149.356Z" fill="#BA68C8"/>
<path fill-rule="evenodd" clip-rule="evenodd" d="M163.261 149.356C163.261 149.356 166.362 150.523 168.854 150.064C171.345 149.605 171.887 148 171.887 148C171.887 148 172.7 147.935 174 150.523C174 150.523 172.477 153.745 168.963 153.963C164.358 154.25 161 152.759 161 152.759C161 152.759 162.199 149.025 163.261 149.356Z" fill="#FF7642"/>
<path fill-rule="evenodd" clip-rule="evenodd" d="M142.777 168.132L140.409 171.745C140.409 171.745 134.658 169.203 130.617 167.661C126.575 166.121 124.166 163.98 124.166 163.98C124.166 163.98 124.476 160.921 124.943 159.36C125.409 157.799 125.565 156.489 124.166 157.183C122.767 157.876 121.834 160.573 121.757 160.881C121.757 160.881 113.674 152.829 112.664 153.003C111.654 153.176 111.887 154.388 114.063 156.874L116.238 159.36C116.238 159.36 111.28 162.191 112.089 165.273C112.897 168.354 119.425 169.742 119.425 169.742C119.425 169.742 138.54 184.304 142.777 181.685C147.015 179.065 153 171.514 153 171.514L142.777 168.132Z" fill="#FFA8A7"/>
<path fill-rule="evenodd" clip-rule="evenodd" d="M157.932 154C157.932 154 161.567 157.013 159.199 163.243C156.83 169.473 150.784 177 150.784 177C150.784 177 144.445 175.014 142 169.85L149.991 157.242C151.145 155.42 153.083 154.262 155.223 154.12C155.977 154.07 156.874 154.027 157.932 154Z" fill="#BA68C8"/>
<path fill-rule="evenodd" clip-rule="evenodd" d="M157.932 154C157.932 154 161.567 157.013 159.199 163.243C156.83 169.473 150.784 177 150.784 177C150.784 177 144.445 175.014 142 169.85L149.991 157.242C151.145 155.42 153.083 154.262 155.223 154.12C155.977 154.07 156.874 154.027 157.932 154Z" fill="#FF9D1E"/>
<path fill-rule="evenodd" clip-rule="evenodd" d="M157.771 119.809C157.771 119.809 154.06 119.356 153.114 121.708C152.524 123.172 154.411 124.311 154.411 124.311C154.411 124.311 152.018 126.384 155.59 127.023C155.59 127.023 155.296 129.843 158.479 129.463C158.479 129.463 158.066 131.7 161.191 132.48C161.191 132.48 159.612 136.352 162.583 136.406H165.365L164.243 139.389C164.243 139.389 166.321 144 172.806 144C172.806 144 174.457 140.853 175.224 139.932C175.99 139.01 180 134.291 180 130.549C180 126.806 178.434 124.589 176.269 124.097C176.269 124.097 175.342 122.033 173.161 120.677C170.979 119.321 166.38 118.112 163.786 119.774C163.786 119.774 161.486 117 159.894 117C158.302 117 157.771 118.507 157.771 119.809Z" fill="#263238"/>
<path fill-rule="evenodd" clip-rule="evenodd" d="M163.004 135.978C163.004 135.978 162.761 132 165.987 132C169.214 132 168.449 139 164.494 139L163.004 135.978Z" fill="#FFA8A7"/>
</svg>
