<svg width="16" height="20" viewBox="0 0 16 20" fill="none" xmlns="http://www.w3.org/2000/svg">
<path fill-rule="evenodd" clip-rule="evenodd" d="M13.0921 5.40036C13.0921 2.41782 10.888 0 8.16901 0C5.45007 0 3.24594 2.41782 3.24594 5.40036C3.24594 8.38289 5.45007 10.8007 8.16901 10.8007C10.888 10.8007 13.0921 8.38289 13.0921 5.40036ZM10.2047 13.5498C8.85507 13.4338 7.49918 13.4338 6.1495 13.5498C5.41166 13.5934 4.67735 13.6915 3.95155 13.8434C2.37 14.1548 1.34808 14.7331 0.918223 15.6228C0.749712 15.9705 0.663273 16.3589 0.666694 16.7527C0.668128 17.144 0.757262 17.529 0.926334 17.8737C1.3643 18.7633 2.38622 19.3327 3.95155 19.653C4.67416 19.8082 5.40598 19.9063 6.14139 19.9466C6.3847 19.9466 6.63613 19.9644 6.89566 20H8.13657C8.82596 20 9.50725 20 10.1885 19.9199C10.9239 19.874 11.6556 19.7729 12.3784 19.6174C14.0005 19.3149 14.9818 18.7278 15.4198 17.8381C15.7487 17.1437 15.7487 16.3171 15.4198 15.6228C14.9818 14.7331 13.9599 14.1815 12.3946 13.8434C11.6712 13.6936 10.9397 13.5955 10.2047 13.5498Z" fill="#B8BCBF"/>
</svg>
