<svg width="10" height="16" viewBox="0 0 10 16" fill="none" xmlns="http://www.w3.org/2000/svg">
<path opacity="0.5" d="M0.987793 8.00684C0.987793 8.35547 1.12061 8.6543 1.40283 8.92822L7.76953 15.1538C7.99365 15.3779 8.25928 15.4858 8.57471 15.4858C9.22217 15.4858 9.73682 14.9712 9.73682 14.332C9.73682 14.0083 9.604 13.7178 9.37158 13.4937L3.73535 7.99854L9.37158 2.52002C9.6123 2.2876 9.73682 1.99707 9.73682 1.68164C9.73682 1.04248 9.22217 0.527832 8.57471 0.527832C8.25928 0.527832 7.99365 0.635742 7.76953 0.859863L1.40283 7.08545C1.12061 7.35938 0.996094 7.6499 0.987793 8.00684Z" fill="#828588"/>
</svg>
