<svg width="30" height="30" viewBox="0 0 30 30" fill="none" xmlns="http://www.w3.org/2000/svg">
<path d="M2.5 15.625C2.5 15.2799 2.77983 15 3.125 15H9.375C9.72017 15 10 15.2799 10 15.625V22.5C10 24.5711 8.32106 26.25 6.25 26.25C4.17894 26.25 2.5 24.5711 2.5 22.5V15.625Z" fill="#7A7A7A"/>
<path d="M3.75 13.125H8.75V7.49978C8.75 6.57055 7.77211 5.96619 6.94099 6.38175L4.44099 7.63175C4.0175 7.84349 3.75 8.27631 3.75 8.74978V13.125Z" fill="#7A7A7A"/>
<path d="M13.75 13.125C13.75 9.32804 16.828 6.25 20.625 6.25C24.422 6.25 27.5 9.32804 27.5 13.125C27.5 16.922 24.422 20 20.625 20C16.828 20 13.75 16.922 13.75 13.125Z" fill="#7A7A7A"/>
<path d="M19.6875 22.1379C19.9955 22.1706 20.3082 22.1875 20.625 22.1875C20.9417 22.1875 21.2545 22.1706 21.5625 22.1379V24.375H24.375C24.8927 24.375 25.3125 24.7947 25.3125 25.3125C25.3125 25.8302 24.8927 26.25 24.375 26.25H16.875C16.3572 26.25 15.9375 25.8302 15.9375 25.3125C15.9375 24.7947 16.3572 24.375 16.875 24.375H19.6875V22.1379Z" fill="#7A7A7A"/>
</svg>
