<svg width="30" height="30" viewBox="0 0 30 30" fill="none" xmlns="http://www.w3.org/2000/svg">
<path fill-rule="evenodd" clip-rule="evenodd" d="M6.5625 5.625H4.6875C3.94125 5.625 3.22594 5.92125 2.69906 6.44906C2.17125 6.97594 1.875 7.69125 1.875 8.4375C1.875 11.6841 1.875 18.3159 1.875 21.5625C1.875 22.3088 2.17125 23.0241 2.69906 23.5509C3.22594 24.0788 3.94125 24.375 4.6875 24.375H25.3125C26.0588 24.375 26.7741 24.0788 27.3009 23.5509C27.8288 23.0241 28.125 22.3088 28.125 21.5625V8.4375C28.125 7.69125 27.8288 6.97594 27.3009 6.44906C26.7741 5.92125 26.0588 5.625 25.3125 5.625H8.4375V2.8125C8.4375 2.295 8.0175 1.875 7.5 1.875C6.9825 1.875 6.5625 2.295 6.5625 2.8125V5.625ZM18.75 9.37687C15.6459 9.37687 13.125 11.8969 13.125 15.0019C13.125 18.1059 15.6459 20.6269 18.75 20.6269C21.8541 20.6269 24.375 18.1059 24.375 15.0019C24.375 11.8969 21.8541 9.37687 18.75 9.37687ZM6.5625 20.595H10.3303C10.8478 20.595 11.2678 20.175 11.2678 19.6575C11.2678 19.14 10.8478 18.72 10.3303 18.72H6.5625C6.045 18.72 5.625 19.14 5.625 19.6575C5.625 20.175 6.045 20.595 6.5625 20.595ZM6.5625 15.9225H10.3303C10.8478 15.9225 11.2678 15.5025 11.2678 14.985C11.2678 14.4675 10.8478 14.0475 10.3303 14.0475H6.5625C6.045 14.0475 5.625 14.4675 5.625 14.985C5.625 15.5025 6.045 15.9225 6.5625 15.9225ZM6.5625 11.25H10.3303C10.8478 11.25 11.2678 10.83 11.2678 10.3125C11.2678 9.795 10.8478 9.375 10.3303 9.375H6.5625C6.045 9.375 5.625 9.795 5.625 10.3125C5.625 10.83 6.045 11.25 6.5625 11.25Z" fill="#7A7A7A"/>
</svg>
