<svg width="24" height="24" viewBox="0 0 24 24" fill="none" xmlns="http://www.w3.org/2000/svg">
<g clip-path="url(#clip0_969_3366)">
<path d="M22.5621 22.3148L17.2746 11.9422C16.8133 11.0364 16.7273 9.98513 17.0355 9.01636L17.8561 6.43782C17.9737 6.06788 18.3148 5.81457 18.7029 5.80969L20.3237 5.78841C20.7185 5.78353 21.0641 5.52183 21.1763 5.14346L21.9956 2.37816C22.1353 1.90753 21.8723 1.41206 21.4047 1.263L18.0025 0.181127C16.8656 -0.180373 15.6249 0.0227836 14.6627 0.728534L11.9999 2.68116L9.33 0.72319C8.37188 0.0205337 7.13696 -0.184404 6.00361 0.171377L2.51803 1.26521C2.0483 1.41291 1.78392 1.90931 1.92361 2.38125L2.74158 5.14299C2.8538 5.52183 3.19936 5.78353 3.59414 5.78841L5.2966 5.80969C5.68472 5.81503 6.0263 6.06788 6.14429 6.43782L6.96493 9.01678C7.27275 9.98513 7.18669 11.0364 6.7254 11.9418L1.43794 22.3148C1.25522 22.6741 1.27163 23.1026 1.48233 23.4464C1.69299 23.7902 2.06733 24 2.47055 24H21.5294C21.9326 24 22.3069 23.7902 22.5177 23.4464C22.7284 23.1026 22.7448 22.6741 22.5621 22.3148Z" fill="#7A7A7A"/>
</g>
<defs>
<clipPath id="clip0_969_3366">
<rect width="24" height="24" fill="white"/>
</clipPath>
</defs>
</svg>
