<svg width="30" height="30" viewBox="0 0 30 30" fill="none" xmlns="http://www.w3.org/2000/svg">
<path d="M23.7702 15.2951L25.7918 13.0978C28.6419 10.235 28.5916 6.60643 26.0052 3.99482C23.4186 1.37068 19.7649 1.35815 16.8896 4.20825L14.7049 6.22977C15.7973 5.9159 16.9649 6.16699 18.1828 7.39747L22.7657 11.9678C23.9837 13.1856 24.0841 14.2027 23.7702 15.2951ZM13.0349 21.3469C14.2906 22.6025 15.4959 22.6402 16.7892 21.3469L21.3595 16.7641C22.6653 15.4708 22.6276 14.278 21.372 13.0225L16.9775 8.61536C15.7219 7.35981 14.5291 7.33468 13.2233 8.64049L8.65297 13.2108C7.35975 14.504 7.39741 15.7094 8.65297 16.9649L13.0349 21.3469ZM14.1775 13.1856C13.7004 12.7085 13.7004 11.9678 14.165 11.5032C14.6421 11.0261 15.3703 11.0261 15.8475 11.5032C16.2995 11.9678 16.3246 12.696 15.8224 13.1856C15.3829 13.6251 14.6296 13.6251 14.1775 13.1856ZM11.5157 15.835C11.0386 15.3578 11.0386 14.6296 11.5157 14.1524C11.9928 13.6753 12.7211 13.6879 13.1982 14.165C13.6502 14.617 13.6628 15.3578 13.1982 15.8098C12.7085 16.3121 11.9803 16.2869 11.5157 15.835ZM18.4842 15.835C18.0321 16.2869 17.2914 16.2869 16.8143 15.8098C16.3623 15.3704 16.3623 14.617 16.8143 14.165C17.3039 13.6753 18.0321 13.6879 18.4842 14.1524C18.9613 14.6296 18.9613 15.3578 18.4842 15.835ZM3.99477 25.9926C6.58131 28.6167 10.2601 28.6419 13.1103 25.7792L15.2699 23.7451C14.1901 24.059 13.0726 23.8456 11.8547 22.6277L7.27184 18.0448C6.05395 16.8268 5.94097 15.8098 6.25484 14.7175L4.22079 16.8896C1.35809 19.7398 1.40829 23.381 3.99477 25.9926ZM14.165 18.4717C13.7004 18.0197 13.6879 17.2914 14.1775 16.8017C14.6421 16.3372 15.3829 16.3497 15.8224 16.8017C16.2995 17.2663 16.3246 18.0197 15.8475 18.4717C15.3578 18.9488 14.6421 18.9488 14.165 18.4717Z" fill="#7A7A7A"/>
</svg>
