<svg width="30" height="30" viewBox="0 0 30 30" fill="none" xmlns="http://www.w3.org/2000/svg">
<g clip-path="url(#clip0_970_3387)">
<path d="M28.3978 16.3837C27.5138 16.3837 26.7955 17.1014 26.796 17.9854V24.5305L20.8804 18.6149L24.0854 15.4098C24.7108 14.7845 24.7108 13.7697 24.0854 13.1443C23.4601 12.519 22.4453 12.519 21.8199 13.1443L18.6149 16.3494L16.2362 13.9707C18.6362 10.5002 18.295 5.6929 15.2073 2.60575C11.7332 -0.868338 6.07983 -0.868338 2.60575 2.60575C-0.868338 6.07983 -0.868338 11.7332 2.60575 15.2073C5.69342 18.295 10.5002 18.6362 13.9707 16.2362L16.3494 18.6149L13.1443 21.8199C12.519 22.4453 12.519 23.4601 13.1443 24.0854C13.7697 24.7108 14.7845 24.7108 15.4098 24.0854L18.6149 20.8804L24.5305 26.796H17.9854C17.5434 26.796 17.1425 26.9752 16.8527 27.265C16.5628 27.5548 16.3831 27.9558 16.3837 28.3978C16.3837 29.2828 17.1009 30.0001 17.9859 30.0001H28.3983C29.2823 30.0006 30.0006 29.2823 30.0001 28.3983V17.9854C30.0001 17.1009 29.2828 16.3837 28.3978 16.3837ZM4.87125 12.9423C2.64626 10.7173 2.64626 7.09676 4.87125 4.87125C7.09624 2.64626 10.7168 2.64626 12.9423 4.87125C15.1673 7.09624 15.1673 10.7168 12.9423 12.9423C10.7168 15.1673 7.09624 15.1673 4.87125 12.9423Z" fill="#7A7A7A"/>
</g>
<defs>
<clipPath id="clip0_970_3387">
<rect width="30" height="30" fill="white"/>
</clipPath>
</defs>
</svg>
