<svg width="30" height="30" viewBox="0 0 30 30" fill="none" xmlns="http://www.w3.org/2000/svg">
<path d="M24.668 16.3125C23.1211 16.7344 21.6445 15.9492 21.8672 14.8242C21.9844 14.2617 22.5703 13.7461 23.3438 13.5234C24.8906 13.1016 26.3672 13.8867 26.1445 15.0117C26.0391 15.5859 25.4414 16.1016 24.668 16.3125ZM11.6836 20.2383C10.5234 20.4141 9.70313 21.3633 9.85547 22.3594C10.0078 23.3555 11.0742 24.0234 12.2344 23.8477C13.3945 23.6719 14.2148 22.7227 14.0625 21.7266C13.9102 20.7305 12.8438 20.0625 11.6836 20.2383ZM20.5547 19.6289C19.7578 19.7227 19.1016 20.25 18.9844 20.8945C18.7852 21.9258 19.875 22.793 21.1524 22.6406C21.9492 22.5469 22.6055 22.0195 22.7227 21.375C22.9102 20.3438 21.832 19.4648 20.5547 19.6289ZM5.20313 21.4453C4.62891 21.5391 4.16016 22.0078 4.06641 22.582C3.92578 23.5078 4.71094 24.293 5.63672 24.1523C6.21094 24.0586 6.67969 23.5898 6.77344 23.0156C6.91407 22.0898 6.12891 21.3047 5.20313 21.4453ZM10.6289 18.3516C11.1914 18.2109 11.6133 17.7656 11.6484 17.2617C11.707 16.4648 10.8516 15.8789 9.9375 16.1016C9.375 16.2422 8.95313 16.6875 8.91797 17.1914C8.8711 17.9883 9.72657 18.5625 10.6289 18.3516ZM27.8789 25.8984C27.7969 26.1094 27.6094 26.25 27.3867 26.2734L1.07813 29.3203C1.05469 29.3203 1.03125 29.3203 1.00781 29.3203C0.85547 29.3203 0.714845 29.2617 0.597658 29.168C0.468751 29.0508 0.398438 28.8867 0.398438 28.7109V27.2227V27.1992C0.410156 26.8359 0.714844 26.543 1.07813 26.543C1.61719 26.543 2.05078 26.1094 2.05078 25.5703C2.05078 25.0547 1.65234 24.6328 1.13672 24.6094C1.11328 24.6094 1.08984 24.6211 1.07813 24.6211C0.703125 24.6211 0.398438 24.3164 0.398438 23.9531V23.9414V21.1641C0.398438 21 0.468751 20.8359 0.585938 20.7188C0.691407 20.625 0.820313 20.5664 0.960938 20.5547C1.01953 20.543 1.06641 20.5312 1.125 20.5312C1.92188 20.5312 2.56641 19.8867 2.56641 19.0898C2.56641 18.457 2.15625 17.9297 1.59375 17.7305V17.7656C1.44141 17.7656 1.27735 17.7773 1.125 17.8125C0.94922 17.8477 0.76172 17.8008 0.621095 17.6836C0.48047 17.5664 0.398438 17.3906 0.398438 17.2148V14.4492C0.398438 14.2266 0.527345 14.0273 0.714845 13.9219L15.6094 1.05469C24.3984 1.05469 27.9492 7.16016 28.1953 7.61719C28.2422 7.66406 28.2891 7.72266 28.3242 7.79297C28.4766 8.09766 31.2891 17.5312 27.8789 25.8984ZM27.5156 23.1914C27.4453 23.2148 27.375 23.2266 27.3164 23.2383C26.2852 23.3906 25.418 22.5234 25.5703 21.4922C25.6641 20.8477 26.1914 20.332 26.8359 20.2266C27.3047 20.1563 27.7383 20.2969 28.0664 20.5781C28.875 15.2227 27.9375 10.043 27.4336 8.75391L16.582 11.3438C17.1211 11.7891 17.4609 12.457 17.4609 13.207C17.4609 14.6367 16.2188 15.7852 14.7539 15.6211C13.6641 15.5039 12.7734 14.6367 12.6211 13.5469C12.5508 13.0781 12.6211 12.6328 12.7969 12.2344L1.65235 14.8945V16.4414C2.89453 16.6641 3.83203 17.7539 3.83203 19.0547C3.83203 20.3555 2.89453 21.4453 1.65235 21.668V21.7148V23.4961C1.67578 23.5313 1.69922 23.5664 1.72266 23.6133C2.55469 23.8711 3.15234 24.6445 3.15234 25.5586C3.15234 26.4609 2.55469 27.2344 1.73438 27.4922C1.71094 27.5391 1.6875 27.5859 1.65235 27.6211V28.0078L26.918 25.0781C27.1289 24.4805 27.3399 23.8359 27.5156 23.1914ZM16.3477 23.6836C15.7734 23.6836 15.3047 24.1523 15.3047 24.7266C15.3047 25.3008 15.7734 25.7695 16.3477 25.7695C16.9219 25.7695 17.3906 25.3008 17.3906 24.7266C17.3789 24.1523 16.9219 23.6836 16.3477 23.6836Z" fill="#7A7A7A"/>
</svg>
