<svg width="30" height="30" viewBox="0 0 30 30" fill="none" xmlns="http://www.w3.org/2000/svg">
<path d="M15 2.7278C8.2043 2.7278 2.69531 8.23683 2.69531 15.0325C3.34344 31.3544 26.6591 31.3498 27.3047 15.0324C27.3047 8.23684 21.7957 2.7278 15 2.7278ZM15.7694 6.48258L18.3091 4.79141C20.4825 5.50049 22.3748 6.88093 23.7136 8.73401L22.8943 11.657L18.8826 12.9428L15.7694 10.6546V6.48258ZM11.691 4.79141L14.2313 6.48289V10.6543L11.1176 12.9428L7.10569 11.6567L6.28655 8.73387C7.6253 6.88077 9.51762 5.50036 11.691 4.79141ZM6.31796 21.3732C4.96119 19.5322 4.2308 17.3046 4.23414 15.0177L6.63302 13.1202L10.6417 14.4053L11.8377 18.1288L9.35634 21.4975L6.31796 21.3732ZM18.3429 25.2611C16.2564 25.9724 13.7433 25.9723 11.6568 25.261L10.5981 22.4054L13.083 19.032H16.9172L19.4016 22.4055L18.3429 25.2611ZM23.6819 21.3733L20.6435 21.4976L18.1625 18.1289L19.3587 14.4052L23.3671 13.1205L25.7659 15.0178C25.7692 17.3047 25.0388 19.5324 23.6819 21.3733Z" fill="#7A7A7A"/>
</svg>
