<svg width="30" height="30" viewBox="0 0 30 30" fill="none" xmlns="http://www.w3.org/2000/svg">
<path d="M9.375 12.1875H5.625C5.0625 12.1875 4.6875 12.5625 4.6875 13.125C4.6875 13.6875 5.0625 14.0625 5.625 14.0625H9.375C9.9375 14.0625 10.3125 13.6875 10.3125 13.125C10.3125 12.5625 9.9375 12.1875 9.375 12.1875Z" fill="#7A7A7A"/>
<path d="M6.5625 15H5.625C5.0625 15 4.6875 15.375 4.6875 15.9375C4.6875 16.5 5.0625 16.875 5.625 16.875H6.5625C7.125 16.875 7.5 16.5 7.5 15.9375C7.5 15.375 7.125 15 6.5625 15Z" fill="#7A7A7A"/>
<path d="M20.1562 14.0625C17.625 10.5 13.5 8.4375 9.1875 8.4375H7.5V2.8125C7.5 2.25 7.125 1.875 6.5625 1.875C6 1.875 5.625 2.25 5.625 2.8125V8.4375C3.5625 8.4375 1.875 10.125 1.875 12.1875V20.625C1.875 22.0312 2.625 23.25 3.75 23.9062C4.03125 26.25 6 28.125 8.4375 28.125C10.6875 28.125 12.5625 26.5312 13.0312 24.375H16.0312C16.5 26.5312 18.375 28.125 20.625 28.125C22.875 28.125 24.75 26.5312 25.2188 24.375H27.1875C27.75 24.375 28.125 24 28.125 23.4375V22.5C28.125 18 24.5625 14.3438 20.1562 14.0625ZM17.7188 14.0625H16.5C14.7188 14.0625 13.3125 12.75 13.125 11.0625C14.9062 11.625 16.5 12.6562 17.7188 14.0625ZM8.4375 26.25C6.84375 26.25 5.625 25.0312 5.625 23.4375C5.625 21.8438 6.84375 20.625 8.4375 20.625C10.0312 20.625 11.25 21.8438 11.25 23.4375C11.25 25.0312 10.0312 26.25 8.4375 26.25ZM20.625 26.25C19.0312 26.25 17.8125 25.0312 17.8125 23.4375C17.8125 21.8438 19.0312 20.625 20.625 20.625C22.2188 20.625 23.4375 21.8438 23.4375 23.4375C23.4375 25.0312 22.2188 26.25 20.625 26.25Z" fill="#7A7A7A"/>
</svg>
